Exo2-SemiBold.ufo
<glyph name="exclam" format="2">
  <advance width="287.4"/>
  <unicode hex="0021"/>
  <outline>
    <contour>
      <point x="203.86666666666667" y="695.0" type="line"/>
      <point x="83.4" y="695.0" type="line"/>
      <point x="83.4" y="409.8666666666667" type="line"/>
      <point x="95.86666666666666" y="215.73333333333332" type="line"/>
      <point x="191.4" y="215.73333333333332" type="line"/>
      <point x="203.86666666666667" y="409.8666666666667" type="line"/>
    </contour>
    <contour>
      <point x="158.53333333333333" y="137.33333333333334" type="curve" smooth="yes"/>
      <point x="129.73333333333332" y="137.33333333333334" type="line" smooth="yes"/>
      <point x="97.26666666666667" y="137.33333333333334"/>
      <point x="86.33333333333333" y="126.4"/>
      <point x="86.33333333333333" y="93.93333333333334" type="curve" smooth="yes"/>
      <point x="86.33333333333333" y="43.4" type="line" smooth="yes"/>
      <point x="86.33333333333333" y="10.933333333333334"/>
      <point x="97.26666666666667" y="0.0"/>
      <point x="129.73333333333332" y="0.0" type="curve" smooth="yes"/>
      <point x="158.53333333333333" y="0.0" type="line" smooth="yes"/>
      <point x="191.0" y="0.0"/>
      <point x="201.93333333333334" y="10.933333333333334"/>
      <point x="201.93333333333334" y="43.4" type="curve" smooth="yes"/>
      <point x="201.93333333333334" y="93.93333333333334" type="line" smooth="yes"/>
      <point x="201.93333333333334" y="126.4"/>
      <point x="191.0" y="137.33333333333334"/>
    </contour>
  </outline>
</glyph>
<glyph name="quotedbl" format="2">
  <advance width="367.0"/>
  <unicode hex="0022"/>
  <outline>
    <contour>
      <point x="307.73333333333335" y="690.0" type="line"/>
      <point x="214.0" y="690.0" type="line"/>
      <point x="221.66666666666666" y="471.53333333333336" type="line"/>
      <point x="300.06666666666666" y="471.53333333333336" type="line"/>
    </contour>
    <contour>
      <point x="153.86666666666667" y="690.0" type="line"/>
      <point x="60.13333333333333" y="690.0" type="line"/>
      <point x="66.93333333333334" y="471.53333333333336" type="line"/>
      <point x="146.2" y="471.53333333333336" type="line"/>
    </contour>
  </outline>
</glyph>
<glyph name="numbersign" format="2">
  <advance width="697.5333333333333"/>
  <unicode hex="0023"/>
  <outline>
    <contour>
      <point x="330.1333333333333" y="690.0" type="line"/>
      <point x="236.66666666666666" y="690.0" type="line"/>
      <point x="116.66666666666667" y="0.0" type="line"/>
      <point x="210.13333333333333" y="0.0" type="line"/>
    </contour>
    <contour>
      <point x="581.1333333333333" y="690.0" type="line"/>
      <point x="487.6666666666667" y="690.0" type="line"/>
      <point x="367.6666666666667" y="0.0" type="line"/>
      <point x="461.1333333333333" y="0.0" type="line"/>
    </contour>
    <contour>
      <point x="660.9333333333333" y="509.53333333333336" type="line"/>
      <point x="92.33333333333333" y="509.53333333333336" type="line"/>
      <point x="77.86666666666666" y="435.2" type="line"/>
      <point x="646.4666666666667" y="435.2" type="line"/>
    </contour>
    <contour>
      <point x="618.9333333333333" y="278.0" type="line"/>
      <point x="50.333333333333336" y="278.0" type="line"/>
      <point x="35.86666666666667" y="203.66666666666666" type="line"/>
      <point x="604.4666666666667" y="203.66666666666666" type="line"/>
    </contour>
  </outline>
</glyph>
<glyph name="dollar" format="2">
  <advance width="569.8666666666667"/>
  <unicode hex="0024"/>
  <outline>
    <contour>
      <point x="286.46666666666664" y="702.2666666666667" type="curve" smooth="yes"/>
      <point x="121.46666666666667" y="702.2666666666667"/>
      <point x="50.2" y="675.3333333333334"/>
      <point x="50.2" y="516.6" type="curve" smooth="yes"/>
      <point x="50.2" y="413.8666666666667"/>
      <point x="86.86666666666666" y="349.93333333333334"/>
      <point x="188.8" y="317.26666666666665" type="curve" smooth="yes"/>
      <point x="326.73333333333335" y="272.8666666666667" type="line" smooth="yes"/>
      <point x="376.73333333333335" y="257.1333333333333"/>
      <point x="399.73333333333335" y="244.66666666666666"/>
      <point x="399.73333333333335" y="182.33333333333334" type="curve" smooth="yes"/>
      <point x="399.73333333333335" y="114.8"/>
      <point x="374.6" y="101.13333333333333"/>
      <point x="284.46666666666664" y="101.13333333333333" type="curve" smooth="yes"/>
      <point x="237.46666666666667" y="101.13333333333333"/>
      <point x="196.8" y="102.26666666666667"/>
      <point x="66.46666666666667" y="105.26666666666667" type="curve"/>
      <point x="58.34773333333333" y="10.420733333333333" type="line"/>
      <point x="158.46666666666667" y="-10.133333333333333"/>
      <point x="239.86666666666667" y="-12.266666666666667"/>
      <point x="282.4" y="-12.266666666666667" type="curve" smooth="yes"/>
      <point x="458.6" y="-12.266666666666667"/>
      <point x="526.0666666666667" y="23.8"/>
      <point x="526.0666666666667" y="181.4" type="curve" smooth="yes"/>
      <point x="526.0666666666667" y="282.4"/>
      <point x="493.1333333333333" y="347.46666666666664"/>
      <point x="384.73333333333335" y="381.8666666666667" type="curve" smooth="yes"/>
      <point x="252.73333333333332" y="423.46666666666664" type="line" smooth="yes"/>
      <point x="198.66666666666666" y="439.73333333333335"/>
      <point x="175.4" y="454.06666666666666"/>
      <point x="175.4" y="514.6666666666666" type="curve" smooth="yes"/>
      <point x="175.4" y="589.4"/>
      <point x="206.46666666666667" y="593.5333333333333"/>
      <point x="290.0" y="593.5333333333333" type="curve" smooth="yes"/>
      <point x="357.6666666666667" y="593.5333333333333"/>
      <point x="436.93333333333334" y="591.6666666666666"/>
      <point x="494.06666666666666" y="589.8" type="curve"/>
      <point x="502.1171333333333" y="678.5792666666666" type="line"/>
      <point x="428.8" y="698.0"/>
      <point x="352.1333333333333" y="702.2666666666667"/>
    </contour>
    <contour>
      <point x="257.8" y="355.93333333333334" type="line"/>
      <point x="216.0" y="-122.13333333333334" type="line"/>
      <point x="270.73333333333335" y="-122.13333333333334" type="line"/>
      <point x="311.53333333333336" y="354.2" type="line"/>
    </contour>
    <contour>
      <point x="359.93333333333334" y="795.9333333333333" type="line"/>
      <point x="305.93333333333334" y="795.9333333333333" type="line"/>
      <point x="266.8" y="355.93333333333334" type="line"/>
      <point x="321.6666666666667" y="354.2" type="line"/>
    </contour>
  </outline>
</glyph>
<glyph name="percent" format="2">
  <advance width="901.0666666666667"/>
  <unicode hex="0025"/>
  <outline>
    <contour>
      <point x="205.6" y="703.1333333333333" type="curve" smooth="yes"/>
      <point x="82.0" y="703.1333333333333"/>
      <point x="39.333333333333336" y="648.3333333333334"/>
      <point x="39.333333333333336" y="498.0" type="curve" smooth="yes"/>
      <point x="39.333333333333336" y="348.53333333333336"/>
      <point x="82.0" y="292.8666666666667"/>
      <point x="205.6" y="292.8666666666667" type="curve" smooth="yes"/>
      <point x="330.3333333333333" y="292.8666666666667"/>
      <point x="373.0" y="348.53333333333336"/>
      <point x="373.0" y="498.0" type="curve" smooth="yes"/>
      <point x="373.0" y="648.3333333333334"/>
      <point x="330.3333333333333" y="703.1333333333333"/>
    </contour>
    <contour>
      <point x="204.73333333333332" y="631.4" type="curve" smooth="yes"/>
      <point x="264.4" y="631.4"/>
      <point x="281.53333333333336" y="601.2666666666667"/>
      <point x="281.53333333333336" y="498.0" type="curve" smooth="yes"/>
      <point x="281.53333333333336" y="393.73333333333335"/>
      <point x="264.4" y="364.6"/>
      <point x="204.73333333333332" y="364.6" type="curve" smooth="yes"/>
      <point x="146.93333333333334" y="364.6"/>
      <point x="129.93333333333334" y="393.73333333333335"/>
      <point x="129.93333333333334" y="498.0" type="curve" smooth="yes"/>
      <point x="129.93333333333334" y="601.2666666666667"/>
      <point x="146.93333333333334" y="631.4"/>
    </contour>
    <contour>
      <point x="703.4666666666667" y="690.0" type="line"/>
      <point x="622.5333333333333" y="690.0" type="line"/>
      <point x="194.86666666666667" y="0.0" type="line"/>
      <point x="275.8" y="0.0" type="line"/>
    </contour>
    <contour>
      <point x="694.4666666666667" y="399.73333333333335" type="curve" smooth="yes"/>
      <point x="570.8666666666667" y="399.73333333333335"/>
      <point x="528.2" y="344.06666666666666"/>
      <point x="528.2" y="194.6" type="curve" smooth="yes"/>
      <point x="528.2" y="44.266666666666666"/>
      <point x="570.8666666666667" y="-10.533333333333333"/>
      <point x="694.4666666666667" y="-10.533333333333333" type="curve" smooth="yes"/>
      <point x="818.3333333333334" y="-10.533333333333333"/>
      <point x="861.0" y="44.266666666666666"/>
      <point x="861.0" y="194.6" type="curve" smooth="yes"/>
      <point x="861.0" y="344.06666666666666"/>
      <point x="818.3333333333334" y="399.73333333333335"/>
    </contour>
    <contour>
      <point x="693.6" y="327.1333333333333" type="curve" smooth="yes"/>
      <point x="752.4" y="327.1333333333333"/>
      <point x="770.4" y="299.73333333333335"/>
      <point x="770.4" y="194.6" type="curve" smooth="yes"/>
      <point x="770.4" y="89.6"/>
      <point x="752.4" y="61.2"/>
      <point x="693.6" y="61.2" type="curve" smooth="yes"/>
      <point x="634.9333333333333" y="61.2"/>
      <point x="617.9333333333333" y="89.6"/>
      <point x="618.8" y="194.6" type="curve" smooth="yes"/>
      <point x="617.9333333333333" y="299.73333333333335"/>
      <point x="634.9333333333333" y="327.1333333333333"/>
    </contour>
  </outline>
</glyph>
<glyph name="ampersand" format="2">
  <advance width="767.0666666666667"/>
  <unicode hex="0026"/>
  <outline>
    <contour>
      <point x="342.8" y="701.4" type="curve" smooth="yes"/>
      <point x="155.4" y="701.4"/>
      <point x="78.66666666666667" y="681.1333333333333"/>
      <point x="78.66666666666667" y="520.8666666666667" type="curve" smooth="yes"/>
      <point x="78.66666666666667" y="420.6"/>
      <point x="109.8" y="368.1333333333333"/>
      <point x="193.66666666666666" y="360.1333333333333" type="curve"/>
      <point x="193.66666666666666" y="355.8666666666667" type="line"/>
      <point x="92.66666666666667" y="346.8666666666667"/>
      <point x="58.4" y="280.1333333333333"/>
      <point x="58.4" y="175.13333333333333" type="curve" smooth="yes"/>
      <point x="58.4" y="36.13333333333333"/>
      <point x="117.06666666666666" y="-11.4"/>
      <point x="263.1333333333333" y="-11.4" type="curve" smooth="yes"/>
      <point x="378.73333333333335" y="-11.4"/>
      <point x="443.1333333333333" y="15.933333333333334"/>
      <point x="504.93333333333334" y="90.33333333333333" type="curve"/>
      <point x="490.8" y="163.93333333333334" type="line"/>
      <point x="442.8" y="117.53333333333333"/>
      <point x="377.06666666666666" y="94.66666666666667"/>
      <point x="297.06666666666666" y="93.66666666666667" type="curve" smooth="yes"/>
      <point x="213.66666666666666" y="93.53333333333333"/>
      <point x="190.33333333333334" y="116.93333333333334"/>
      <point x="190.33333333333334" y="198.46666666666667" type="curve" smooth="yes"/>
      <point x="190.33333333333334" y="286.4"/>
      <point x="219.0" y="311.4"/>
      <point x="308.3333333333333" y="311.4" type="curve" smooth="yes"/>
      <point x="707.4" y="311.4" type="line"/>
      <point x="707.4" y="401.6666666666667" type="line"/>
      <point x="315.1333333333333" y="401.6666666666667" type="line" smooth="yes"/>
      <point x="232.13333333333333" y="401.6666666666667"/>
      <point x="205.66666666666666" y="422.6"/>
      <point x="205.66666666666666" y="502.46666666666664" type="curve" smooth="yes"/>
      <point x="205.66666666666666" y="588.8"/>
      <point x="237.33333333333334" y="602.4"/>
      <point x="339.4" y="602.4" type="curve" smooth="yes"/>
      <point x="392.4" y="602.4"/>
      <point x="458.4" y="601.2666666666667"/>
      <point x="489.0" y="599.4" type="curve"/>
      <point x="503.6" y="690.0" type="line"/>
      <point x="443.6" y="700.4"/>
      <point x="384.8" y="701.4"/>
    </contour>
    <contour>
      <point x="591.8" y="515.8" type="line"/>
      <point x="490.06666666666666" y="515.8" type="line"/>
      <point x="478.0" y="361.46666666666664" type="line"/>
      <point x="478.0" y="111.26666666666667" type="line" smooth="yes"/>
      <point x="478.0" y="34.53333333333333"/>
      <point x="524.6" y="-10.533333333333333"/>
      <point x="608.4666666666667" y="-10.533333333333333" type="curve" smooth="yes"/>
      <point x="637.8" y="-10.533333333333333"/>
      <point x="693.6" y="-5.133333333333334"/>
      <point x="726.4" y="5.933333333333334" type="curve"/>
      <point x="712.9333333333333" y="92.26666666666667" type="line"/>
      <point x="646.4666666666667" y="92.26666666666667" type="line" smooth="yes"/>
      <point x="605.1333333333333" y="92.26666666666667"/>
      <point x="591.8" y="106.6"/>
      <point x="591.8" y="149.06666666666666" type="curve" smooth="yes"/>
    </contour>
  </outline>
</glyph>
<glyph name="quotesingle" format="2">
  <advance width="213.13333333333333"/>
  <unicode hex="0027"/>
  <outline>
    <contour>
      <point x="153.86666666666667" y="690.0" type="line"/>
      <point x="60.13333333333333" y="690.0" type="line"/>
      <point x="66.93333333333334" y="471.53333333333336" type="line"/>
      <point x="146.2" y="471.53333333333336" type="line"/>
    </contour>
  </outline>
</glyph>
<glyph name="parenleft" format="2">
  <advance width="362.46666666666664"/>
  <unicode hex="0028"/>
  <outline>
    <contour>
      <point x="323.8" y="790.0" type="line"/>
      <point x="131.66666666666666" y="724.4666666666667"/>
      <point x="44.93333333333334" y="574.4666666666667"/>
      <point x="44.93333333333334" y="312.0" type="curve" smooth="yes"/>
      <point x="44.93333333333334" y="51.53333333333333"/>
      <point x="131.66666666666666" y="-98.46666666666667"/>
      <point x="323.8" y="-165.0" type="curve"/>
      <point x="338.26666666666665" y="-110.8" type="line"/>
      <point x="213.46666666666667" y="-48.333333333333336"/>
      <point x="163.0" y="96.53333333333333"/>
      <point x="163.0" y="313.0" type="curve" smooth="yes"/>
      <point x="163.0" y="533.4666666666667"/>
      <point x="213.46666666666667" y="677.3333333333334"/>
      <point x="338.26666666666665" y="735.8" type="curve"/>
    </contour>
  </outline>
</glyph>
<glyph name="parenright" format="2">
  <advance width="362.46666666666664"/>
  <unicode hex="0029"/>
  <outline>
    <contour>
      <point x="38.666666666666664" y="790.0" type="curve"/>
      <point x="24.2" y="735.8" type="line"/>
      <point x="149.0" y="677.3333333333334"/>
      <point x="199.46666666666667" y="533.4666666666667"/>
      <point x="199.46666666666667" y="313.0" type="curve" smooth="yes"/>
      <point x="199.46666666666667" y="96.53333333333333"/>
      <point x="149.0" y="-48.333333333333336"/>
      <point x="24.2" y="-110.8" type="curve"/>
      <point x="38.666666666666664" y="-165.0" type="line"/>
      <point x="230.8" y="-98.46666666666667"/>
      <point x="317.53333333333336" y="51.53333333333333"/>
      <point x="317.53333333333336" y="312.0" type="curve" smooth="yes"/>
      <point x="317.53333333333336" y="574.4666666666667"/>
      <point x="230.8" y="724.4666666666667"/>
    </contour>
  </outline>
</glyph>
<glyph name="asterisk" format="2">
  <advance width="449.93333333333334"/>
  <unicode hex="002A"/>
  <outline>
    <contour>
      <point x="259.73333333333335" y="691.1333333333333" type="line"/>
      <point x="190.2" y="691.1333333333333" type="line"/>
      <point x="200.4" y="526.4" type="line"/>
      <point x="95.8" y="398.4" type="line"/>
      <point x="152.0" y="357.53333333333336" type="line"/>
      <point x="224.53333333333333" y="479.1333333333333" type="line"/>
      <point x="298.06666666666666" y="356.6666666666667" type="line"/>
      <point x="353.26666666666665" y="397.53333333333336" type="line"/>
      <point x="248.93333333333334" y="526.5333333333333" type="line"/>
    </contour>
    <contour>
      <point x="65.66666666666667" y="607.2666666666667" type="line"/>
      <point x="43.8" y="542.0" type="line"/>
      <point x="167.53333333333333" y="511.06666666666666" type="line"/>
      <point x="182.13333333333333" y="529.8" type="line"/>
      <point x="183.0" y="559.7333333333333" type="line"/>
    </contour>
    <contour>
      <point x="384.26666666666665" y="607.4" type="line"/>
      <point x="266.93333333333334" y="559.7333333333333" type="line"/>
      <point x="267.2" y="529.8" type="line"/>
      <point x="282.6666666666667" y="511.06666666666666" type="line"/>
      <point x="406.1333333333333" y="541.1333333333333" type="line"/>
    </contour>
  </outline>
</glyph>
<glyph name="plus" format="2">
  <advance width="546.4"/>
  <unicode hex="002B"/>
  <outline>
    <contour>
      <point x="497.0" y="344.6" type="line"/>
      <point x="48.53333333333333" y="344.6" type="line"/>
      <point x="48.53333333333333" y="255.46666666666667" type="line"/>
      <point x="497.0" y="255.46666666666667" type="line"/>
    </contour>
    <contour>
      <point x="318.06666666666666" y="515.6" type="line"/>
      <point x="226.6" y="515.6" type="line"/>
      <point x="227.46666666666667" y="84.46666666666667" type="line"/>
      <point x="318.06666666666666" y="84.46666666666667" type="line"/>
    </contour>
  </outline>
</glyph>
<glyph name="comma" format="2">
  <advance width="237.66666666666666"/>
  <unicode hex="002C"/>
  <outline>
    <contour>
      <point x="135.73333333333332" y="137.33333333333334" type="curve" smooth="yes"/>
      <point x="103.4" y="137.33333333333334" type="line" smooth="yes"/>
      <point x="72.06666666666666" y="137.33333333333334"/>
      <point x="60.266666666666666" y="126.4"/>
      <point x="58.4" y="93.93333333333334" type="curve" smooth="yes"/>
      <point x="58.0" y="38.0" type="line" smooth="yes"/>
      <point x="58.13333333333333" y="14.333333333333334"/>
      <point x="70.2" y="0.0"/>
      <point x="92.13333333333334" y="0.0" type="curve"/>
      <point x="92.0" y="-47.6"/>
      <point x="88.13333333333334" y="-83.33333333333333"/>
      <point x="79.2" y="-124.86666666666666" type="curve"/>
      <point x="133.8" y="-140.33333333333334" type="line"/>
      <point x="161.06666666666666" y="-91.86666666666666"/>
      <point x="177.4" y="-39.86666666666667"/>
      <point x="178.26666666666668" y="29.933333333333334" type="curve" smooth="yes"/>
      <point x="177.4" y="93.93333333333334" type="line" smooth="yes"/>
      <point x="178.13333333333333" y="126.4"/>
      <point x="167.93333333333334" y="137.33333333333334"/>
    </contour>
  </outline>
</glyph>
<glyph name="hyphen" format="2">
  <advance width="428.4"/>
  <unicode hex="002D"/>
  <outline>
    <contour>
      <point x="364.46666666666664" y="297.2" type="line"/>
      <point x="63.93333333333334" y="297.2" type="line"/>
      <point x="63.93333333333334" y="210.73333333333332" type="line"/>
      <point x="364.46666666666664" y="210.73333333333332" type="line"/>
    </contour>
  </outline>
</glyph>
<glyph name="period" format="2">
  <advance width="239.93333333333334"/>
  <unicode hex="002E"/>
  <outline>
    <contour>
      <point x="138.26666666666668" y="137.33333333333334" type="curve" smooth="yes"/>
      <point x="101.66666666666667" y="137.33333333333334" type="line" smooth="yes"/>
      <point x="69.2" y="137.33333333333334"/>
      <point x="58.266666666666666" y="126.4"/>
      <point x="58.266666666666666" y="93.93333333333334" type="curve" smooth="yes"/>
      <point x="58.266666666666666" y="43.4" type="line" smooth="yes"/>
      <point x="58.266666666666666" y="10.933333333333334"/>
      <point x="69.2" y="0.0"/>
      <point x="101.66666666666667" y="0.0" type="curve" smooth="yes"/>
      <point x="138.26666666666668" y="0.0" type="line" smooth="yes"/>
      <point x="170.73333333333332" y="0.0"/>
      <point x="181.66666666666666" y="10.933333333333334"/>
      <point x="181.66666666666666" y="43.4" type="curve" smooth="yes"/>
      <point x="181.66666666666666" y="93.93333333333334" type="line" smooth="yes"/>
      <point x="181.66666666666666" y="126.4"/>
      <point x="170.73333333333332" y="137.33333333333334"/>
    </contour>
  </outline>
</glyph>
<glyph name="slash" format="2">
  <advance width="534.2666666666667"/>
  <unicode hex="002F"/>
  <outline>
    <contour>
      <point x="512.3333333333334" y="690.0" type="line"/>
      <point x="414.93333333333334" y="690.0" type="line"/>
      <point x="21.933333333333334" y="-69.46666666666667" type="line"/>
      <point x="119.33333333333333" y="-69.46666666666667" type="line"/>
    </contour>
  </outline>
</glyph>
<glyph name="zero" format="2">
  <advance width="616.4"/>
  <unicode hex="0030"/>
  <outline>
    <contour>
      <point x="308.06666666666666" y="703.1333333333333" type="curve" smooth="yes"/>
      <point x="120.26666666666667" y="703.1333333333333"/>
      <point x="55.666666666666664" y="603.4"/>
      <point x="55.666666666666664" y="345.0" type="curve" smooth="yes"/>
      <point x="55.666666666666664" y="86.6"/>
      <point x="120.26666666666667" y="-13.133333333333333"/>
      <point x="308.06666666666666" y="-13.133333333333333" type="curve" smooth="yes"/>
      <point x="496.0" y="-13.133333333333333"/>
      <point x="560.7333333333333" y="86.6"/>
      <point x="560.7333333333333" y="345.0" type="curve" smooth="yes"/>
      <point x="560.7333333333333" y="603.4"/>
      <point x="496.0" y="703.1333333333333"/>
    </contour>
    <contour>
      <point x="307.06666666666666" y="598.4666666666667" type="curve" smooth="yes"/>
      <point x="407.73333333333335" y="598.4666666666667"/>
      <point x="438.46666666666664" y="537.7333333333333"/>
      <point x="438.46666666666664" y="345.0" type="curve" smooth="yes"/>
      <point x="438.46666666666664" y="152.26666666666668"/>
      <point x="407.73333333333335" y="91.53333333333333"/>
      <point x="307.06666666666666" y="91.53333333333333" type="curve" smooth="yes"/>
      <point x="208.53333333333333" y="91.53333333333333"/>
      <point x="177.93333333333334" y="152.26666666666668"/>
      <point x="177.93333333333334" y="345.0" type="curve" smooth="yes"/>
      <point x="177.93333333333334" y="537.7333333333333"/>
      <point x="208.53333333333333" y="598.4666666666667"/>
    </contour>
  </outline>
</glyph>
<glyph name="one" format="2">
  <advance width="414.0"/>
  <unicode hex="0031"/>
  <outline>
    <contour>
      <point x="311.6666666666667" y="690.0" type="line"/>
      <point x="186.66666666666666" y="690.0" type="line"/>
      <point x="15.0" y="620.4" type="line"/>
      <point x="30.466666666666665" y="530.7333333333333" type="line"/>
      <point x="192.06666666666666" y="577.3333333333334" type="line"/>
      <point x="187.66666666666666" y="554.2666666666667"/>
      <point x="186.66666666666666" y="532.2"/>
      <point x="186.66666666666666" y="509.1333333333333" type="curve" smooth="yes"/>
      <point x="186.66666666666666" y="0.0" type="line"/>
      <point x="311.6666666666667" y="0.0" type="line"/>
    </contour>
  </outline>
</glyph>
<glyph name="two" format="2">
  <advance width="568.8"/>
  <unicode hex="0032"/>
  <outline>
    <contour>
      <point x="277.06666666666666" y="702.0" type="curve" smooth="yes"/>
      <point x="211.06666666666666" y="702.0"/>
      <point x="150.8" y="698.1333333333333"/>
      <point x="55.46666666666667" y="677.4" type="curve"/>
      <point x="61.6" y="580.8" type="line"/>
      <point x="150.06666666666666" y="591.4666666666667"/>
      <point x="197.6" y="593.2"/>
      <point x="263.8" y="593.2" type="curve" smooth="yes"/>
      <point x="333.06666666666666" y="593.2"/>
      <point x="369.8666666666667" y="586.8666666666667"/>
      <point x="371.6" y="535.8" type="curve" smooth="yes"/>
      <point x="373.3333333333333" y="479.6666666666667"/>
      <point x="331.4" y="414.46666666666664"/>
      <point x="247.73333333333332" y="325.6" type="curve" smooth="yes"/>
      <point x="68.2" y="127.4" type="line" smooth="yes"/>
      <point x="54.0" y="111.8"/>
      <point x="50.333333333333336" y="96.2"/>
      <point x="50.333333333333336" y="75.06666666666666" type="curve" smooth="yes"/>
      <point x="50.333333333333336" y="0.0" type="line"/>
      <point x="520.3333333333334" y="0.0" type="line"/>
      <point x="520.3333333333334" y="117.86666666666667" type="line"/>
      <point x="306.6666666666667" y="117.86666666666667" type="line" smooth="yes"/>
      <point x="272.8" y="118.0"/>
      <point x="233.53333333333333" y="116.86666666666667"/>
      <point x="199.93333333333334" y="112.2" type="curve"/>
      <point x="382.8666666666667" y="308.6666666666667" type="line" smooth="yes"/>
      <point x="474.0" y="407.6"/>
      <point x="498.26666666666665" y="464.06666666666666"/>
      <point x="498.26666666666665" y="546.4666666666667" type="curve" smooth="yes"/>
      <point x="498.26666666666665" y="674.9333333333333"/>
      <point x="412.73333333333335" y="702.0"/>
    </contour>
  </outline>
</glyph>
<glyph name="three" format="2">
  <advance width="560.6666666666666"/>
  <unicode hex="0033"/>
  <outline>
    <contour>
      <point x="265.06666666666666" y="703.1333333333333" type="curve" smooth="yes"/>
      <point x="197.33333333333334" y="703.1333333333333"/>
      <point x="130.06666666666666" y="697.1333333333333"/>
      <point x="58.6" y="685.0" type="curve"/>
      <point x="65.46666666666667" y="590.1333333333333" type="line"/>
      <point x="113.13333333333334" y="593.6"/>
      <point x="178.2" y="596.2"/>
      <point x="245.13333333333333" y="596.2" type="curve" smooth="yes"/>
      <point x="336.46666666666664" y="596.2"/>
      <point x="363.73333333333335" y="587.0666666666667"/>
      <point x="364.6" y="511.6" type="curve" smooth="yes"/>
      <point x="365.46666666666664" y="451.53333333333336"/>
      <point x="356.1333333333333" y="407.1333333333333"/>
      <point x="260.6666666666667" y="407.1333333333333" type="curve" smooth="yes"/>
      <point x="132.86666666666667" y="407.1333333333333" type="line"/>
      <point x="132.86666666666667" y="314.1333333333333" type="line"/>
      <point x="260.6666666666667" y="314.4" type="line" smooth="yes"/>
      <point x="358.3333333333333" y="314.53333333333336"/>
      <point x="378.4" y="276.73333333333335"/>
      <point x="378.4" y="207.26666666666668" type="curve" smooth="yes"/>
      <point x="378.4" y="120.0"/>
      <point x="342.6666666666667" y="94.8"/>
      <point x="241.6" y="94.8" type="curve" smooth="yes"/>
      <point x="180.0" y="94.8"/>
      <point x="127.0" y="97.53333333333333"/>
      <point x="52.2" y="103.26666666666667" type="curve"/>
      <point x="46.2" y="5.0" type="line"/>
      <point x="118.53333333333333" y="-5.133333333333334"/>
      <point x="197.4" y="-13.133333333333333"/>
      <point x="274.73333333333335" y="-13.133333333333333" type="curve" smooth="yes"/>
      <point x="443.8" y="-13.133333333333333"/>
      <point x="504.26666666666665" y="50.06666666666667"/>
      <point x="502.26666666666665" y="192.0" type="curve" smooth="yes"/>
      <point x="500.4" y="290.46666666666664"/>
      <point x="472.8666666666667" y="350.0"/>
      <point x="383.26666666666665" y="365.0" type="curve"/>
      <point x="383.26666666666665" y="369.0" type="line"/>
      <point x="463.26666666666665" y="383.73333333333335"/>
      <point x="484.26666666666665" y="450.53333333333336"/>
      <point x="484.26666666666665" y="543.0" type="curve" smooth="yes"/>
      <point x="484.26666666666665" y="665.1333333333333"/>
      <point x="418.6666666666667" y="703.1333333333333"/>
    </contour>
  </outline>
</glyph>
<glyph name="four" format="2">
  <advance width="626.9333333333333"/>
  <unicode hex="0034"/>
  <outline>
    <contour>
      <point x="343.8666666666667" y="690.0" type="line"/>
      <point x="222.73333333333332" y="690.0" type="line"/>
      <point x="39.266666666666666" y="272.46666666666664" type="line" smooth="yes"/>
      <point x="14.933333333333334" y="216.0"/>
      <point x="50.2" y="156.46666666666667"/>
      <point x="112.4" y="156.46666666666667" type="curve" smooth="yes"/>
      <point x="502.6" y="156.46666666666667" type="line"/>
      <point x="590.0" y="168.66666666666666" type="line"/>
      <point x="590.0" y="252.86666666666667" type="line"/>
      <point x="191.4" y="252.86666666666667" type="line" smooth="yes"/>
      <point x="170.33333333333334" y="252.86666666666667"/>
      <point x="158.0" y="263.73333333333335"/>
      <point x="169.2" y="289.1333333333333" type="curve" smooth="yes"/>
    </contour>
    <contour>
      <point x="500.6" y="556.6" type="line"/>
      <point x="404.46666666666664" y="556.6" type="line"/>
      <point x="383.3333333333333" y="445.4" type="line"/>
      <point x="383.3333333333333" y="0.0" type="line"/>
      <point x="500.6" y="0.0" type="line"/>
    </contour>
  </outline>
</glyph>
<glyph name="five" format="2">
  <advance width="543.7333333333333"/>
  <unicode hex="0035"/>
  <outline>
    <contour>
      <point x="474.93333333333334" y="690.0" type="line"/>
      <point x="87.93333333333334" y="690.0" type="line"/>
      <point x="71.53333333333333" y="391.46666666666664" type="line" smooth="yes"/>
      <point x="70.4" y="364.26666666666665"/>
      <point x="88.46666666666667" y="343.2"/>
      <point x="114.93333333333334" y="340.8" type="curve" smooth="yes"/>
      <point x="181.13333333333333" y="334.3333333333333" type="line" smooth="yes"/>
      <point x="325.53333333333336" y="320.6666666666667"/>
      <point x="375.06666666666666" y="315.06666666666666"/>
      <point x="371.93333333333334" y="210.0" type="curve" smooth="yes"/>
      <point x="369.6666666666667" y="132.8"/>
      <point x="347.2" y="96.86666666666667"/>
      <point x="232.53333333333333" y="96.86666666666667" type="curve" smooth="yes"/>
      <point x="186.0" y="96.86666666666667"/>
      <point x="119.53333333333333" y="102.46666666666667"/>
      <point x="56.733333333333334" y="111.53333333333333" type="curve"/>
      <point x="43.93333333333334" y="11.2" type="line"/>
      <point x="122.93333333333334" y="-4.133333333333334"/>
      <point x="203.53333333333333" y="-12.0"/>
      <point x="263.53333333333336" y="-12.0" type="curve" smooth="yes"/>
      <point x="453.8666666666667" y="-12.0"/>
      <point x="495.06666666666666" y="95.53333333333333"/>
      <point x="495.06666666666666" y="208.93333333333334" type="curve" smooth="yes"/>
      <point x="495.93333333333334" y="343.6"/>
      <point x="437.6666666666667" y="413.1333333333333"/>
      <point x="266.06666666666666" y="430.4" type="curve" smooth="yes"/>
      <point x="178.8" y="439.6" type="line"/>
      <point x="187.4" y="587.0" type="line"/>
      <point x="470.53333333333336" y="587.0" type="line"/>
    </contour>
  </outline>
</glyph>
<glyph name="six" format="2">
  <advance width="579.4"/>
  <unicode hex="0036"/>
  <outline>
    <contour>
      <point x="335.73333333333335" y="702.0" type="curve" smooth="yes"/>
      <point x="150.26666666666668" y="702.0"/>
      <point x="57.53333333333333" y="653.0"/>
      <point x="57.53333333333333" y="337.26666666666665" type="curve" smooth="yes"/>
      <point x="57.53333333333333" y="63.666666666666664"/>
      <point x="102.4" y="-12.0"/>
      <point x="302.6" y="-12.0" type="curve" smooth="yes"/>
      <point x="495.73333333333335" y="-12.0"/>
      <point x="532.7333333333333" y="82.06666666666666"/>
      <point x="532.7333333333333" y="231.26666666666668" type="curve" smooth="yes"/>
      <point x="532.7333333333333" y="393.0"/>
      <point x="487.73333333333335" y="454.26666666666665"/>
      <point x="339.73333333333335" y="454.26666666666665" type="curve" smooth="yes"/>
      <point x="242.8" y="454.26666666666665"/>
      <point x="194.06666666666666" y="427.26666666666665"/>
      <point x="128.66666666666666" y="330.2" type="curve"/>
      <point x="132.66666666666666" y="272.93333333333334" type="line"/>
      <point x="209.33333333333334" y="338.73333333333335"/>
      <point x="245.06666666666666" y="357.3333333333333"/>
      <point x="305.06666666666666" y="357.3333333333333" type="curve" smooth="yes"/>
      <point x="391.53333333333336" y="357.3333333333333"/>
      <point x="413.93333333333334" y="324.06666666666666"/>
      <point x="413.93333333333334" y="229.73333333333332" type="curve" smooth="yes"/>
      <point x="413.93333333333334" y="137.86666666666667"/>
      <point x="403.26666666666665" y="90.46666666666667"/>
      <point x="303.73333333333335" y="90.46666666666667" type="curve" smooth="yes"/>
      <point x="186.2" y="90.46666666666667"/>
      <point x="179.6" y="138.2"/>
      <point x="179.6" y="333.06666666666666" type="curve" smooth="yes"/>
      <point x="179.6" y="565.2"/>
      <point x="215.8" y="600.4"/>
      <point x="335.73333333333335" y="600.4" type="curve" smooth="yes"/>
      <point x="402.6666666666667" y="600.4"/>
      <point x="431.6" y="600.4"/>
      <point x="480.3333333333333" y="597.8" type="curve"/>
      <point x="488.3333333333333" y="685.2" type="line"/>
      <point x="427.2" y="702.0"/>
      <point x="365.93333333333334" y="702.0"/>
    </contour>
  </outline>
</glyph>
<glyph name="seven" format="2">
  <advance width="518.7333333333333"/>
  <unicode hex="0037"/>
  <outline>
    <contour>
      <point x="434.46666666666664" y="690.0" type="curve" smooth="yes"/>
      <point x="32.2" y="690.0" type="line"/>
      <point x="37.733333333333334" y="585.4666666666667" type="line"/>
      <point x="361.53333333333336" y="585.4666666666667" type="line"/>
      <point x="350.3333333333333" y="566.4"/>
      <point x="342.06666666666666" y="546.3333333333334"/>
      <point x="335.6666666666667" y="526.4" type="curve" smooth="yes"/>
      <point x="154.13333333333333" y="0.0" type="line"/>
      <point x="278.46666666666664" y="0.0" type="line"/>
      <point x="488.93333333333334" y="617.6" type="line" smooth="yes"/>
      <point x="502.73333333333335" y="660.3333333333334"/>
      <point x="480.3333333333333" y="690.0"/>
    </contour>
  </outline>
</glyph>
<glyph name="eight" format="2">
  <advance width="610.4"/>
  <unicode hex="0038"/>
  <outline>
    <contour>
      <point x="305.26666666666665" y="701.4" type="curve" smooth="yes"/>
      <point x="120.93333333333334" y="701.4"/>
      <point x="75.8" y="645.4"/>
      <point x="75.8" y="518.0" type="curve" smooth="yes"/>
      <point x="75.8" y="434.1333333333333"/>
      <point x="104.2" y="368.0"/>
      <point x="175.13333333333333" y="360.0" type="curve"/>
      <point x="175.13333333333333" y="356.0" type="line"/>
      <point x="85.13333333333334" y="347.0"/>
      <point x="59.53333333333333" y="273.8666666666667"/>
      <point x="59.53333333333333" y="172.0" type="curve" smooth="yes"/>
      <point x="59.53333333333333" y="46.13333333333333"/>
      <point x="109.73333333333333" y="-11.4"/>
      <point x="305.26666666666665" y="-11.4" type="curve" smooth="yes"/>
      <point x="503.8" y="-11.4"/>
      <point x="551.0" y="46.13333333333333"/>
      <point x="551.0" y="172.0" type="curve" smooth="yes"/>
      <point x="551.0" y="273.8666666666667"/>
      <point x="525.4" y="347.0"/>
      <point x="435.4" y="356.0" type="curve"/>
      <point x="435.4" y="360.0" type="line"/>
      <point x="506.3333333333333" y="368.0"/>
      <point x="534.7333333333333" y="434.1333333333333"/>
      <point x="534.7333333333333" y="518.0" type="curve" smooth="yes"/>
      <point x="534.7333333333333" y="645.4"/>
      <point x="490.73333333333335" y="700.5333333333333"/>
    </contour>
    <contour>
      <point x="307.26666666666665" y="311.06666666666666" type="curve" smooth="yes"/>
      <point x="409.26666666666665" y="311.06666666666666"/>
      <point x="431.93333333333334" y="287.53333333333336"/>
      <point x="431.93333333333334" y="199.0" type="curve" smooth="yes"/>
      <point x="431.93333333333334" y="116.2"/>
      <point x="409.26666666666665" y="91.06666666666666"/>
      <point x="306.26666666666665" y="91.06666666666666" type="curve" smooth="yes"/>
      <point x="202.13333333333333" y="91.06666666666666"/>
      <point x="177.6" y="116.2"/>
      <point x="177.6" y="199.0" type="curve" smooth="yes"/>
      <point x="177.6" y="285.8"/>
      <point x="202.0" y="310.2"/>
    </contour>
    <contour>
      <point x="306.26666666666665" y="605.6" type="curve" smooth="yes"/>
      <point x="401.4" y="605.6"/>
      <point x="421.3333333333333" y="582.4666666666667"/>
      <point x="421.3333333333333" y="504.6" type="curve" smooth="yes"/>
      <point x="421.3333333333333" y="427.2"/>
      <point x="404.26666666666665" y="404.93333333333334"/>
      <point x="307.4" y="404.93333333333334" type="curve" smooth="yes"/>
      <point x="212.0" y="404.93333333333334"/>
      <point x="189.2" y="426.3333333333333"/>
      <point x="189.2" y="504.6" type="curve" smooth="yes"/>
      <point x="189.2" y="582.4666666666667"/>
      <point x="211.0" y="605.6"/>
    </contour>
  </outline>
</glyph>
<glyph name="nine" format="2">
  <advance width="579.4"/>
  <unicode hex="0039"/>
  <outline>
    <contour>
      <point x="280.4" y="702.0" type="curve" smooth="yes"/>
      <point x="107.13333333333334" y="702.0"/>
      <point x="46.93333333333334" y="625.2666666666667"/>
      <point x="47.8" y="458.73333333333335" type="curve" smooth="yes"/>
      <point x="47.8" y="334.3333333333333"/>
      <point x="91.93333333333334" y="235.73333333333332"/>
      <point x="236.93333333333334" y="235.73333333333332" type="curve" smooth="yes"/>
      <point x="333.8666666666667" y="235.73333333333332"/>
      <point x="382.46666666666664" y="262.73333333333335"/>
      <point x="447.8666666666667" y="359.8" type="curve"/>
      <point x="443.8666666666667" y="416.2" type="line"/>
      <point x="367.2" y="351.4"/>
      <point x="332.46666666666664" y="331.8"/>
      <point x="272.6" y="331.8" type="curve" smooth="yes"/>
      <point x="188.26666666666665" y="331.8"/>
      <point x="165.0" y="374.73333333333335"/>
      <point x="165.86666666666667" y="460.26666666666665" type="curve" smooth="yes"/>
      <point x="165.0" y="553.0"/>
      <point x="181.86666666666667" y="600.4"/>
      <point x="279.26666666666665" y="600.4" type="curve" smooth="yes"/>
      <point x="394.8" y="600.4"/>
      <point x="399.6666666666667" y="551.6666666666666"/>
      <point x="399.6666666666667" y="357.93333333333334" type="curve" smooth="yes"/>
      <point x="399.6666666666667" y="143.8"/>
      <point x="368.8" y="90.46666666666667"/>
      <point x="241.8" y="90.46666666666667" type="curve" smooth="yes"/>
      <point x="165.73333333333332" y="90.46666666666667"/>
      <point x="138.53333333333333" y="90.46666666666667"/>
      <point x="86.53333333333333" y="93.2" type="curve"/>
      <point x="78.4" y="4.8" type="line"/>
      <point x="146.06666666666666" y="-12.0"/>
      <point x="208.6" y="-12.0"/>
      <point x="242.66666666666666" y="-12.0" type="curve" smooth="yes"/>
      <point x="442.93333333333334" y="-12.0"/>
      <point x="519.1333333333333" y="45.666666666666664"/>
      <point x="520.0" y="352.73333333333335" type="curve" smooth="yes"/>
      <point x="520.0" y="622.0"/>
      <point x="486.2" y="702.0"/>
    </contour>
  </outline>
</glyph>
<glyph name="less" format="2">
  <advance width="523.2"/>
  <unicode hex="003C"/>
  <outline>
    <contour>
      <point x="460.1333333333333" y="515.8666666666667" type="line"/>
      <point x="45.93333333333334" y="346.73333333333335" type="line"/>
      <point x="45.93333333333334" y="252.46666666666667" type="line"/>
      <point x="460.1333333333333" y="84.93333333333334" type="line"/>
      <point x="460.1333333333333" y="180.33333333333334" type="line"/>
      <point x="149.13333333333333" y="299.53333333333336" type="line"/>
      <point x="460.1333333333333" y="420.46666666666664" type="line"/>
    </contour>
  </outline>
</glyph>
<glyph name="equal" format="2">
  <advance width="582.2666666666667"/>
  <unicode hex="003D"/>
  <outline>
    <contour>
      <point x="516.4666666666667" y="444.8666666666667" type="line"/>
      <point x="65.8" y="444.8666666666667" type="line"/>
      <point x="65.8" y="356.93333333333334" type="line"/>
      <point x="516.4666666666667" y="356.93333333333334" type="line"/>
    </contour>
    <contour>
      <point x="516.4666666666667" y="233.2" type="line"/>
      <point x="65.8" y="233.2" type="line"/>
      <point x="65.8" y="145.26666666666668" type="line"/>
      <point x="516.4666666666667" y="145.26666666666668" type="line"/>
    </contour>
  </outline>
</glyph>
<glyph name="greater" format="2">
  <advance width="522.8"/>
  <unicode hex="003E"/>
  <outline>
    <contour>
      <point x="63.06666666666667" y="515.8666666666667" type="line"/>
      <point x="63.06666666666667" y="420.46666666666664" type="line"/>
      <point x="373.6666666666667" y="299.53333333333336" type="line"/>
      <point x="63.06666666666667" y="180.33333333333334" type="line"/>
      <point x="63.06666666666667" y="84.93333333333334" type="line"/>
      <point x="476.8666666666667" y="252.46666666666667" type="line"/>
      <point x="476.8666666666667" y="346.73333333333335" type="line"/>
    </contour>
  </outline>
</glyph>
<glyph name="question" format="2">
  <advance width="508.26666666666665"/>
  <unicode hex="003F"/>
  <outline>
    <contour>
      <point x="265.46666666666664" y="712.0" type="curve" smooth="yes"/>
      <point x="140.8" y="712.0"/>
      <point x="107.0" y="701.7333333333333"/>
      <point x="34.4" y="689.2" type="curve"/>
      <point x="39.4" y="604.0666666666667" type="line"/>
      <point x="106.8" y="608.4"/>
      <point x="138.2" y="611.0"/>
      <point x="237.73333333333332" y="611.0" type="curve" smooth="yes"/>
      <point x="315.8" y="611.0"/>
      <point x="348.26666666666665" y="586.5333333333333"/>
      <point x="344.8666666666667" y="533.8" type="curve" smooth="yes"/>
      <point x="340.06666666666666" y="441.73333333333335"/>
      <point x="187.6" y="394.73333333333335"/>
      <point x="193.26666666666668" y="215.73333333333332" type="curve"/>
      <point x="294.0" y="215.73333333333332" type="line"/>
      <point x="303.6" y="385.8"/>
      <point x="473.4" y="408.53333333333336"/>
      <point x="473.4" y="557.0" type="curve" smooth="yes"/>
      <point x="473.4" y="663.0"/>
      <point x="404.73333333333335" y="712.0"/>
    </contour>
    <contour>
      <point x="258.4" y="137.33333333333334" type="curve" smooth="yes"/>
      <point x="228.73333333333332" y="137.33333333333334" type="line" smooth="yes"/>
      <point x="196.26666666666668" y="137.33333333333334"/>
      <point x="185.33333333333334" y="126.4"/>
      <point x="185.33333333333334" y="93.93333333333334" type="curve" smooth="yes"/>
      <point x="185.33333333333334" y="43.4" type="line" smooth="yes"/>
      <point x="185.33333333333334" y="10.933333333333334"/>
      <point x="196.26666666666668" y="0.0"/>
      <point x="228.73333333333332" y="0.0" type="curve" smooth="yes"/>
      <point x="258.4" y="0.0" type="line" smooth="yes"/>
      <point x="290.8666666666667" y="0.0"/>
      <point x="301.8" y="10.933333333333334"/>
      <point x="301.8" y="43.4" type="curve" smooth="yes"/>
      <point x="301.8" y="93.93333333333334" type="line" smooth="yes"/>
      <point x="301.8" y="126.4"/>
      <point x="290.8666666666667" y="137.33333333333334"/>
    </contour>
  </outline>
</glyph>
<glyph name="at" format="2">
  <advance width="736.8666666666667"/>
  <unicode hex="0040"/>
  <outline>
    <contour>
      <point x="509.8666666666667" y="594.4666666666667" type="curve" smooth="yes"/>
      <point x="362.6" y="594.4666666666667" type="line" smooth="yes"/>
      <point x="94.06666666666666" y="593.6"/>
      <point x="64.13333333333334" y="553.8"/>
      <point x="64.13333333333334" y="267.4" type="curve" smooth="yes"/>
      <point x="64.13333333333334" y="-25.333333333333332"/>
      <point x="98.2" y="-66.0"/>
      <point x="402.46666666666664" y="-64.26666666666667" type="curve" smooth="yes"/>
      <point x="492.46666666666664" y="-64.26666666666667"/>
      <point x="582.6" y="-59.733333333333334"/>
      <point x="671.6" y="-53.333333333333336" type="curve"/>
      <point x="671.6" y="33.06666666666666" type="line"/>
      <point x="401.6" y="33.06666666666666" type="line" smooth="yes"/>
      <point x="201.86666666666667" y="33.06666666666666"/>
      <point x="178.0" y="35.2"/>
      <point x="178.0" y="267.4" type="curve" smooth="yes"/>
      <point x="178.0" y="490.3333333333333"/>
      <point x="199.46666666666667" y="498.1333333333333"/>
      <point x="362.6" y="498.26666666666665" type="curve" smooth="yes"/>
      <point x="485.8" y="498.26666666666665" type="line" smooth="yes"/>
      <point x="542.0" y="498.26666666666665"/>
      <point x="559.2" y="485.26666666666665"/>
      <point x="559.2" y="435.06666666666666" type="curve" smooth="yes"/>
      <point x="559.2" y="404.73333333333335" type="line"/>
      <point x="372.26666666666665" y="404.73333333333335" type="line" smooth="yes"/>
      <point x="293.4" y="404.73333333333335"/>
      <point x="253.0" y="364.06666666666666"/>
      <point x="253.0" y="298.0" type="curve" smooth="yes"/>
      <point x="253.0" y="248.66666666666666" type="line" smooth="yes"/>
      <point x="253.0" y="165.53333333333333"/>
      <point x="311.1333333333333" y="124.13333333333334"/>
      <point x="388.93333333333334" y="124.13333333333334" type="curve" smooth="yes"/>
      <point x="469.26666666666665" y="124.13333333333334"/>
      <point x="538.3333333333334" y="168.2"/>
      <point x="571.8" y="205.33333333333334" type="curve"/>
      <point x="582.6" y="133.66666666666666" type="line"/>
      <point x="673.2" y="133.66666666666666" type="line"/>
      <point x="673.2" y="438.4" type="line" smooth="yes"/>
      <point x="673.2" y="553.5333333333333"/>
      <point x="614.4666666666667" y="594.4666666666667"/>
    </contour>
    <contour>
      <point x="559.2" y="336.8" type="line"/>
      <point x="559.2" y="268.93333333333334" type="line"/>
      <point x="520.8666666666667" y="231.66666666666666"/>
      <point x="462.06666666666666" y="215.0"/>
      <point x="416.93333333333334" y="215.0" type="curve" smooth="yes"/>
      <point x="383.4" y="215.0"/>
      <point x="364.3333333333333" y="228.73333333333332"/>
      <point x="364.3333333333333" y="269.8666666666667" type="curve" smooth="yes"/>
      <point x="364.3333333333333" y="285.6" type="line" smooth="yes"/>
      <point x="364.3333333333333" y="318.93333333333334"/>
      <point x="376.3333333333333" y="330.6666666666667"/>
      <point x="416.53333333333336" y="332.6666666666667" type="curve" smooth="yes"/>
    </contour>
  </outline>
</glyph>
<glyph name="A" format="2">
  <advance width="636.2"/>
  <unicode hex="0041"/>
  <anchor x="317.8666666666667" y="-12.0" name="bottom"/>
  <anchor x="631.3333333333334" y="0.0" name="ogonek"/>
  <anchor x="318.73333333333335" y="723.7333333333333" name="top"/>
  <outline>
    <contour>
      <point x="379.3333333333333" y="690.0" type="curve" smooth="yes"/>
      <point x="256.8666666666667" y="690.0" type="line" smooth="yes"/>
      <point x="235.73333333333332" y="690.0"/>
      <point x="218.0" y="677.5333333333333"/>
      <point x="212.46666666666667" y="656.5333333333333" type="curve" smooth="yes"/>
      <point x="4.866666666666667" y="0.0" type="line"/>
      <point x="133.13333333333333" y="0.0" type="line"/>
      <point x="289.1333333333333" y="535.6666666666666" type="line" smooth="yes"/>
      <point x="294.1333333333333" y="554.6"/>
      <point x="299.8666666666667" y="575.8"/>
      <point x="304.6" y="594.7333333333333" type="curve"/>
      <point x="331.6" y="594.7333333333333" type="line"/>
      <point x="335.3333333333333" y="575.8"/>
      <point x="342.06666666666666" y="554.6"/>
      <point x="347.06666666666666" y="535.6666666666666" type="curve" smooth="yes"/>
      <point x="503.06666666666666" y="0.0" type="line"/>
      <point x="631.3333333333334" y="0.0" type="line"/>
      <point x="423.73333333333335" y="656.5333333333333" type="line" smooth="yes"/>
      <point x="418.2" y="677.5333333333333"/>
      <point x="400.46666666666664" y="690.0"/>
    </contour>
    <contour>
      <point x="493.8" y="298.4" type="line"/>
      <point x="141.53333333333333" y="298.4" type="line"/>
      <point x="141.53333333333333" y="194.93333333333334" type="line"/>
      <point x="493.8" y="194.93333333333334" type="line"/>
    </contour>
  </outline>
</glyph>
<glyph name="B" format="2">
  <advance width="627.9333333333333"/>
  <unicode hex="0042"/>
  <outline>
    <contour>
      <point x="320.53333333333336" y="698.0" type="curve" smooth="yes"/>
      <point x="211.06666666666666" y="698.0"/>
      <point x="151.4" y="697.0"/>
      <point x="77.13333333333334" y="690.0" type="curve"/>
      <point x="91.4" y="593.9333333333333" type="line"/>
      <point x="141.26666666666668" y="598.2"/>
      <point x="209.53333333333333" y="596.9333333333333"/>
      <point x="314.73333333333335" y="596.9333333333333" type="curve" smooth="yes"/>
      <point x="406.6" y="596.9333333333333"/>
      <point x="436.8" y="579.0"/>
      <point x="436.8" y="501.73333333333335" type="curve" smooth="yes"/>
      <point x="436.8" y="422.6"/>
      <point x="409.2" y="402.8"/>
      <point x="325.4" y="402.8" type="curve" smooth="yes"/>
      <point x="90.4" y="402.8" type="line"/>
      <point x="90.4" y="312.2" type="line"/>
      <point x="326.53333333333336" y="312.2" type="line" smooth="yes"/>
      <point x="422.2" y="311.3333333333333"/>
      <point x="452.53333333333336" y="286.93333333333334"/>
      <point x="452.53333333333336" y="195.2" type="curve" smooth="yes"/>
      <point x="452.53333333333336" y="112.26666666666667"/>
      <point x="423.93333333333334" y="93.06666666666666"/>
      <point x="331.0" y="93.06666666666666" type="curve" smooth="yes"/>
      <point x="215.2" y="93.06666666666666"/>
      <point x="121.93333333333334" y="94.06666666666666"/>
      <point x="91.4" y="96.06666666666666" type="curve"/>
      <point x="77.13333333333334" y="0.0" type="line"/>
      <point x="160.4" y="-7.0"/>
      <point x="226.2" y="-8.0"/>
      <point x="351.8" y="-8.0" type="curve" smooth="yes"/>
      <point x="512.6666666666666" y="-8.0"/>
      <point x="578.4" y="30.0"/>
      <point x="578.4" y="172.0" type="curve" smooth="yes"/>
      <point x="578.4" y="282.0"/>
      <point x="542.8666666666667" y="346.8666666666667"/>
      <point x="438.93333333333334" y="355.8666666666667" type="curve"/>
      <point x="438.93333333333334" y="360.1333333333333" type="line"/>
      <point x="523.0" y="368.1333333333333"/>
      <point x="557.1333333333333" y="419.0"/>
      <point x="557.1333333333333" y="518.0" type="curve" smooth="yes"/>
      <point x="557.1333333333333" y="660.0"/>
      <point x="495.2" y="698.0"/>
    </contour>
    <contour>
      <point x="199.86666666666667" y="690.0" type="line"/>
      <point x="77.13333333333334" y="690.0" type="line"/>
      <point x="77.13333333333334" y="0.0" type="line"/>
      <point x="199.86666666666667" y="0.0" type="line"/>
    </contour>
  </outline>
</glyph>
<glyph name="D" format="2">
  <advance width="670.6666666666666"/>
  <unicode hex="0044"/>
  <anchor x="325.46666666666664" y="-12.0" name="bottom"/>
  <anchor x="320.26666666666665" y="732.4" name="top"/>
  <outline>
    <contour>
      <point x="334.8666666666667" y="699.1333333333333" type="curve" smooth="yes"/>
      <point x="234.2" y="699.1333333333333"/>
      <point x="153.0" y="695.0"/>
      <point x="77.13333333333334" y="690.0" type="curve"/>
      <point x="132.53333333333333" y="593.4" type="line"/>
      <point x="193.26666666666668" y="593.2666666666667"/>
      <point x="253.86666666666667" y="595.0"/>
      <point x="334.8666666666667" y="595.0" type="curve" smooth="yes"/>
      <point x="448.73333333333335" y="595.0"/>
      <point x="485.06666666666666" y="535.3333333333334"/>
      <point x="485.06666666666666" y="345.0" type="curve" smooth="yes"/>
      <point x="485.06666666666666" y="154.66666666666666"/>
      <point x="448.73333333333335" y="95.86666666666666"/>
      <point x="334.8666666666667" y="95.86666666666666" type="curve" smooth="yes"/>
      <point x="251.33333333333334" y="95.86666666666666"/>
      <point x="181.66666666666666" y="97.86666666666666"/>
      <point x="129.6" y="100.26666666666667" type="curve"/>
      <point x="77.13333333333334" y="0.0" type="line"/>
      <point x="152.86666666666667" y="-5.133333333333334"/>
      <point x="235.46666666666667" y="-9.133333333333333"/>
      <point x="334.8666666666667" y="-9.133333333333333" type="curve" smooth="yes"/>
      <point x="542.4" y="-9.133333333333333"/>
      <point x="617.0" y="74.53333333333333"/>
      <point x="617.0" y="345.0" type="curve" smooth="yes"/>
      <point x="617.0" y="615.4666666666667"/>
      <point x="542.4" y="699.1333333333333"/>
    </contour>
    <contour>
      <point x="202.26666666666665" y="690.0" type="line"/>
      <point x="77.13333333333334" y="690.0" type="line"/>
      <point x="77.13333333333334" y="0.0" type="line"/>
      <point x="202.26666666666665" y="0.0" type="line"/>
    </contour>
  </outline>
</glyph>
<glyph name="E" format="2">
  <advance width="568.2666666666667"/>
  <unicode hex="0045"/>
  <guideline x="143.4" y="538.0" angle="0.0"/>
  <anchor x="303.1333333333333" y="0.0" name="bottom"/>
  <anchor x="522.9333333333333" y="6.4" name="ogonek"/>
  <anchor x="311.73333333333335" y="740.2" name="top"/>
  <outline>
    <contour>
      <point x="218.53333333333333" y="692.2666666666667" type="curve" smooth="yes"/>
      <point x="128.73333333333332" y="692.2666666666667"/>
      <point x="72.13333333333334" y="642.1333333333333"/>
      <point x="71.26666666666667" y="561.2666666666667" type="curve" smooth="yes"/>
      <point x="71.26666666666667" y="128.73333333333332" type="line" smooth="yes"/>
      <point x="72.13333333333334" y="47.86666666666667"/>
      <point x="127.86666666666666" y="-2.2666666666666666"/>
      <point x="218.53333333333333" y="-2.2666666666666666" type="curve" smooth="yes"/>
      <point x="320.2" y="-2.2666666666666666"/>
      <point x="431.6" y="-2.2666666666666666"/>
      <point x="522.9333333333333" y="6.4" type="curve"/>
      <point x="517.2666666666667" y="101.33333333333333" type="line"/>
      <point x="246.93333333333334" y="101.33333333333333" type="line" smooth="yes"/>
      <point x="210.66666666666666" y="101.33333333333333"/>
      <point x="197.26666666666665" y="116.33333333333333"/>
      <point x="197.26666666666665" y="159.0" type="curve" smooth="yes"/>
      <point x="197.26666666666665" y="530.1333333333333" type="line" smooth="yes"/>
      <point x="197.26666666666665" y="572.8"/>
      <point x="210.66666666666666" y="587.8"/>
      <point x="246.93333333333334" y="587.8" type="curve" smooth="yes"/>
      <point x="517.2666666666667" y="587.8" type="line"/>
      <point x="522.9333333333333" y="683.6" type="line"/>
      <point x="431.6" y="692.2666666666667"/>
      <point x="320.2" y="692.2666666666667"/>
    </contour>
    <contour>
      <point x="89.26666666666667" y="409.4" type="line"/>
      <point x="89.26666666666667" y="313.06666666666666" type="line"/>
      <point x="479.53333333333336" y="313.06666666666666" type="line"/>
      <point x="479.53333333333336" y="409.4" type="line"/>
    </contour>
  </outline>
</glyph>
<glyph name="F" format="2">
  <advance width="546.2666666666667"/>
  <unicode hex="0046"/>
  <outline>
    <contour>
      <point x="222.66666666666666" y="692.2666666666667" type="curve" smooth="yes"/>
      <point x="132.73333333333332" y="692.2666666666667"/>
      <point x="75.13333333333334" y="643.0"/>
      <point x="75.13333333333334" y="556.0666666666667" type="curve" smooth="yes"/>
      <point x="75.13333333333334" y="0.0" type="line"/>
      <point x="201.13333333333333" y="0.0" type="line"/>
      <point x="201.13333333333333" y="530.1333333333333" type="line" smooth="yes"/>
      <point x="201.13333333333333" y="572.8"/>
      <point x="216.26666666666665" y="587.8"/>
      <point x="259.73333333333335" y="587.8" type="curve" smooth="yes"/>
      <point x="510.26666666666665" y="587.8" type="line"/>
      <point x="516.8" y="682.6" type="line"/>
      <point x="428.73333333333335" y="692.2666666666667"/>
      <point x="321.2" y="692.2666666666667"/>
    </contour>
    <contour>
      <point x="92.26666666666667" y="397.1333333333333" type="line"/>
      <point x="92.26666666666667" y="299.93333333333334" type="line"/>
      <point x="473.26666666666665" y="299.93333333333334" type="line"/>
      <point x="473.26666666666665" y="397.1333333333333" type="line"/>
    </contour>
  </outline>
</glyph>
<glyph name="G" format="2">
  <advance width="635.0666666666667"/>
  <unicode hex="0047"/>
  <anchor x="335.53333333333336" y="-1.6" name="bottom"/>
  <anchor x="332.06666666666666" y="741.0666666666667" name="top"/>
  <outline>
    <contour>
      <point x="356.1333333333333" y="703.1333333333333" type="curve" smooth="yes"/>
      <point x="132.86666666666667" y="703.1333333333333"/>
      <point x="53.666666666666664" y="623.8666666666667"/>
      <point x="53.666666666666664" y="347.6" type="curve" smooth="yes"/>
      <point x="53.666666666666664" y="98.73333333333333"/>
      <point x="116.73333333333333" y="-13.133333333333333"/>
      <point x="269.6666666666667" y="-13.133333333333333" type="curve" smooth="yes"/>
      <point x="379.6666666666667" y="-13.133333333333333"/>
      <point x="455.1333333333333" y="47.4"/>
      <point x="486.06666666666666" y="83.2" type="curve"/>
      <point x="470.26666666666665" y="153.4" type="line"/>
      <point x="423.53333333333336" y="123.26666666666667"/>
      <point x="373.6666666666667" y="94.73333333333333"/>
      <point x="309.0" y="94.73333333333333" type="curve" smooth="yes"/>
      <point x="215.86666666666667" y="94.73333333333333"/>
      <point x="185.46666666666667" y="155.6"/>
      <point x="185.46666666666667" y="340.6666666666667" type="curve" smooth="yes"/>
      <point x="185.46666666666667" y="565.8666666666667"/>
      <point x="230.73333333333332" y="592.9333333333333"/>
      <point x="362.3333333333333" y="592.9333333333333" type="curve" smooth="yes"/>
      <point x="408.53333333333336" y="592.9333333333333"/>
      <point x="478.8" y="591.0666666666667"/>
      <point x="543.5333333333333" y="586.6" type="curve"/>
      <point x="554.3333333333334" y="680.2" type="line"/>
      <point x="492.6" y="696.8666666666667"/>
      <point x="424.53333333333336" y="703.1333333333333"/>
    </contour>
    <contour>
      <point x="575.5333333333333" y="397.8666666666667" type="line"/>
      <point x="454.2" y="397.8666666666667" type="line"/>
      <point x="454.2" y="128.4" type="line"/>
      <point x="465.53333333333336" y="103.53333333333333" type="line"/>
      <point x="483.1333333333333" y="0.0" type="line"/>
      <point x="575.5333333333333" y="0.0" type="line"/>
    </contour>
  </outline>
</glyph>
<glyph name="H" format="2">
  <advance width="677.6"/>
  <unicode hex="0048"/>
  <anchor x="338.93333333333334" y="0.0" name="bottom"/>
  <anchor x="329.0" y="345.0" name="center"/>
  <anchor x="338.53333333333336" y="740.2" name="top"/>
  <outline>
    <contour>
      <point x="202.4" y="690.0" type="line"/>
      <point x="77.26666666666667" y="690.0" type="line"/>
      <point x="77.26666666666667" y="0.0" type="line"/>
      <point x="202.4" y="0.0" type="line"/>
    </contour>
    <contour>
      <point x="485.3333333333333" y="419.46666666666664" type="line"/>
      <point x="194.4" y="419.46666666666664" type="line"/>
      <point x="194.4" y="316.0" type="line"/>
      <point x="485.3333333333333" y="316.0" type="line"/>
    </contour>
    <contour>
      <point x="600.3333333333334" y="690.0" type="line"/>
      <point x="475.2" y="690.0" type="line"/>
      <point x="475.2" y="0.0" type="line"/>
      <point x="600.3333333333334" y="0.0" type="line"/>
    </contour>
  </outline>
</glyph>
<glyph name="I" format="2">
  <advance width="279.4"/>
  <unicode hex="0049"/>
  <anchor x="136.46666666666667" y="0.0" name="bottom"/>
  <anchor x="187.13333333333333" y="0.0" name="ogonek"/>
  <anchor x="140.2" y="732.4" name="top"/>
  <outline>
    <contour>
      <point x="202.13333333333333" y="690.0" type="line"/>
      <point x="77.26666666666667" y="690.0" type="line"/>
      <point x="77.26666666666667" y="0.0" type="line"/>
      <point x="202.13333333333333" y="0.0" type="line"/>
    </contour>
  </outline>
</glyph>
<glyph name="J" format="2">
  <advance width="353.73333333333335"/>
  <unicode hex="004A"/>
  <anchor x="214.2" y="0.0" name="bottom"/>
  <anchor x="217.93333333333334" y="732.4" name="top"/>
  <outline>
    <contour>
      <point x="279.46666666666664" y="690.0" type="line"/>
      <point x="154.6" y="690.0" type="line"/>
      <point x="154.6" y="155.26666666666668" type="line" smooth="yes"/>
      <point x="154.6" y="114.66666666666667"/>
      <point x="132.13333333333333" y="93.4"/>
      <point x="85.2" y="93.4" type="curve" smooth="yes"/>
      <point x="38.2" y="93.4" type="line"/>
      <point x="24.733333333333334" y="5.933333333333334" type="line"/>
      <point x="50.06666666666667" y="-4.266666666666667"/>
      <point x="104.46666666666667" y="-10.533333333333333"/>
      <point x="135.46666666666667" y="-10.533333333333333" type="curve" smooth="yes"/>
      <point x="226.8" y="-10.533333333333333"/>
      <point x="279.46666666666664" y="46.53333333333333"/>
      <point x="279.46666666666664" y="152.13333333333333" type="curve" smooth="yes"/>
    </contour>
  </outline>
</glyph>
<glyph name="K" format="2">
  <advance width="611.8666666666667"/>
  <unicode hex="004B"/>
  <anchor x="303.8" y="-1.6" name="bottom"/>
  <anchor x="307.26666666666665" y="732.4" name="top"/>
  <outline>
    <contour>
      <point x="588.3333333333334" y="690.0" type="line"/>
      <point x="452.4" y="690.0" type="line"/>
      <point x="231.53333333333333" y="361.0" type="line"/>
      <point x="461.3333333333333" y="0.0" type="line"/>
      <point x="600.9333333333333" y="0.0" type="line"/>
      <point x="409.6" y="298.26666666666665" type="line" smooth="yes"/>
      <point x="397.06666666666666" y="318.73333333333335"/>
      <point x="377.8" y="339.2"/>
      <point x="356.2" y="356.73333333333335" type="curve"/>
      <point x="356.2" y="359.8666666666667" type="line"/>
      <point x="376.93333333333334" y="378.26666666666665"/>
      <point x="388.93333333333334" y="390.73333333333335"/>
      <point x="402.46666666666664" y="412.2" type="curve" smooth="yes"/>
    </contour>
    <contour>
      <point x="202.4" y="690.0" type="line"/>
      <point x="77.26666666666667" y="690.0" type="line"/>
      <point x="77.26666666666667" y="0.0" type="line"/>
      <point x="202.4" y="0.0" type="line"/>
      <point x="202.4" y="243.2" type="line" smooth="yes"/>
      <point x="202.4" y="279.73333333333335"/>
      <point x="194.33333333333334" y="321.6"/>
      <point x="184.4" y="361.1333333333333" type="curve"/>
      <point x="196.73333333333332" y="401.93333333333334"/>
      <point x="202.4" y="443.3333333333333"/>
      <point x="202.4" y="486.53333333333336" type="curve" smooth="yes"/>
    </contour>
    <contour>
      <point x="288.46666666666664" y="407.2" type="line"/>
      <point x="162.06666666666666" y="407.2" type="line"/>
      <point x="162.06666666666666" y="311.4" type="line"/>
      <point x="288.46666666666664" y="311.4" type="line"/>
    </contour>
  </outline>
</glyph>
<glyph name="L" format="2">
  <advance width="521.4666666666667"/>
  <unicode hex="004C"/>
  <anchor x="303.46666666666664" y="0.0" name="bottom"/>
  <anchor x="138.0" y="732.4" name="top"/>
  <outline>
    <contour>
      <point x="200.26666666666665" y="690.0" type="line"/>
      <point x="75.13333333333334" y="690.0" type="line"/>
      <point x="75.13333333333334" y="140.86666666666667" type="line" smooth="yes"/>
      <point x="75.13333333333334" y="58.266666666666666"/>
      <point x="114.86666666666666" y="-2.2666666666666666"/>
      <point x="230.46666666666667" y="-2.2666666666666666" type="curve" smooth="yes"/>
      <point x="322.6666666666667" y="-2.2666666666666666"/>
      <point x="416.8" y="-1.4"/>
      <point x="504.2" y="7.4" type="curve"/>
      <point x="498.53333333333336" y="103.53333333333333" type="line"/>
      <point x="258.73333333333335" y="103.53333333333333" type="line" smooth="yes"/>
      <point x="215.4" y="103.53333333333333"/>
      <point x="200.26666666666665" y="118.53333333333333"/>
      <point x="200.26666666666665" y="161.2" type="curve" smooth="yes"/>
    </contour>
  </outline>
</glyph>
<glyph name="M" format="2">
  <advance width="893.9333333333333"/>
  <unicode hex="004D"/>
  <guideline x="348.8666666666667" y="437.0" angle="0.0"/>
  <anchor x="445.0" y="0.0" name="bottom"/>
  <anchor x="448.73333333333335" y="732.4" name="top"/>
  <outline>
    <contour>
      <point x="753.9333333333333" y="690.0" type="curve" smooth="yes"/>
      <point x="625.3333333333334" y="690.0" type="line" smooth="yes"/>
      <point x="596.6666666666666" y="690.0"/>
      <point x="579.8" y="675.8"/>
      <point x="572.6666666666666" y="648.1333333333333" type="curve" smooth="yes"/>
      <point x="474.53333333333336" y="275.3333333333333" type="line" smooth="yes"/>
      <point x="466.06666666666666" y="242.2"/>
      <point x="460.46666666666664" y="212.4"/>
      <point x="453.8666666666667" y="180.13333333333333" type="curve"/>
      <point x="438.8" y="180.13333333333333" type="line"/>
      <point x="432.3333333333333" y="212.4"/>
      <point x="426.73333333333335" y="242.2"/>
      <point x="418.26666666666665" y="274.46666666666664" type="curve" smooth="yes"/>
      <point x="319.73333333333335" y="648.1333333333333" type="line" smooth="yes"/>
      <point x="312.6" y="675.8"/>
      <point x="296.6" y="690.0"/>
      <point x="268.93333333333334" y="690.0" type="curve" smooth="yes"/>
      <point x="139.13333333333333" y="690.0" type="line" smooth="yes"/>
      <point x="107.33333333333333" y="690.0"/>
      <point x="91.13333333333334" y="672.6666666666666"/>
      <point x="90.0" y="641.0" type="curve" smooth="yes"/>
      <point x="64.26666666666667" y="0.0" type="line"/>
      <point x="186.46666666666667" y="0.0" type="line"/>
      <point x="207.8" y="588.6666666666666" type="line"/>
      <point x="225.4" y="588.6666666666666" type="line"/>
      <point x="345.53333333333336" y="130.06666666666666" type="line" smooth="yes"/>
      <point x="352.6666666666667" y="102.53333333333333"/>
      <point x="370.4" y="88.33333333333333"/>
      <point x="399.06666666666666" y="88.33333333333333" type="curve" smooth="yes"/>
      <point x="494.6" y="88.33333333333333" type="line" smooth="yes"/>
      <point x="523.2666666666667" y="88.33333333333333"/>
      <point x="540.1333333333333" y="102.53333333333333"/>
      <point x="547.1333333333333" y="130.06666666666666" type="curve" smooth="yes"/>
      <point x="666.2666666666667" y="588.6666666666666" type="line"/>
      <point x="684.7333333333333" y="588.6666666666666" type="line"/>
      <point x="708.3333333333334" y="0.0" type="line"/>
      <point x="830.5333333333333" y="0.0" type="line"/>
      <point x="803.0666666666667" y="641.0" type="line" smooth="yes"/>
      <point x="801.9333333333333" y="672.6666666666666"/>
      <point x="785.7333333333333" y="690.0"/>
    </contour>
  </outline>
</glyph>
<glyph name="N" format="2">
  <advance width="714.6"/>
  <unicode hex="004E"/>
  <anchor x="366.8666666666667" y="0.0" name="bottom"/>
  <anchor x="368.0" y="732.4" name="top"/>
  <outline>
    <contour>
      <point x="637.6" y="690.0" type="line"/>
      <point x="515.7333333333333" y="690.0" type="line"/>
      <point x="515.8666666666667" y="244.2" type="line" smooth="yes"/>
      <point x="515.8666666666667" y="206.53333333333333"/>
      <point x="518.1333333333333" y="169.86666666666667"/>
      <point x="521.4" y="132.2" type="curve"/>
      <point x="509.2" y="132.2" type="line"/>
      <point x="494.06666666666666" y="169.26666666666665"/>
      <point x="474.3333333333333" y="211.13333333333333"/>
      <point x="460.53333333333336" y="240.66666666666666" type="curve" smooth="yes"/>
      <point x="273.2" y="652.1333333333333" type="line" smooth="yes"/>
      <point x="261.3333333333333" y="677.5333333333333"/>
      <point x="248.06666666666666" y="690.0"/>
      <point x="221.26666666666668" y="690.0" type="curve" smooth="yes"/>
      <point x="123.53333333333333" y="690.0" type="line" smooth="yes"/>
      <point x="93.6" y="690.0"/>
      <point x="77.13333333333334" y="674.4"/>
      <point x="77.13333333333334" y="643.6" type="curve" smooth="yes"/>
      <point x="77.13333333333334" y="0.0" type="line"/>
      <point x="200.0" y="0.0" type="line"/>
      <point x="200.0" y="460.1333333333333" type="line" smooth="yes"/>
      <point x="200.0" y="494.06666666666666"/>
      <point x="198.6" y="529.4"/>
      <point x="194.33333333333334" y="563.6" type="curve"/>
      <point x="205.66666666666666" y="563.6" type="line"/>
      <point x="213.33333333333334" y="532.0"/>
      <point x="234.4" y="489.1333333333333"/>
      <point x="247.33333333333334" y="461.2" type="curve" smooth="yes"/>
      <point x="440.6666666666667" y="37.86666666666667" type="line" smooth="yes"/>
      <point x="452.4" y="12.466666666666667"/>
      <point x="465.8" y="0.0"/>
      <point x="492.6" y="0.0" type="curve" smooth="yes"/>
      <point x="592.0666666666667" y="0.0" type="line" smooth="yes"/>
      <point x="622.0" y="0.0"/>
      <point x="637.6" y="15.6"/>
      <point x="637.6" y="46.4" type="curve" smooth="yes"/>
    </contour>
  </outline>
</glyph>
<glyph name="O" format="2">
  <advance width="674.9333333333333"/>
  <unicode hex="004F"/>
  <anchor x="335.53333333333336" y="-1.6" name="bottom"/>
  <anchor x="379.53333333333336" y="0.0" name="ogonek"/>
  <anchor x="339.0" y="732.4" name="top"/>
  <outline>
    <contour>
      <point x="337.4" y="703.1333333333333" type="curve" smooth="yes"/>
      <point x="127.4" y="703.1333333333333"/>
      <point x="52.8" y="618.6"/>
      <point x="52.8" y="345.0" type="curve" smooth="yes"/>
      <point x="52.8" y="71.4"/>
      <point x="127.4" y="-13.133333333333333"/>
      <point x="337.4" y="-13.133333333333333" type="curve" smooth="yes"/>
      <point x="547.5333333333333" y="-13.133333333333333"/>
      <point x="622.1333333333333" y="71.4"/>
      <point x="622.1333333333333" y="345.0" type="curve" smooth="yes"/>
      <point x="622.1333333333333" y="618.6"/>
      <point x="547.5333333333333" y="703.1333333333333"/>
    </contour>
    <contour>
      <point x="337.4" y="595.8666666666667" type="curve" smooth="yes"/>
      <point x="453.8666666666667" y="595.8666666666667"/>
      <point x="490.2" y="537.0666666666667"/>
      <point x="490.2" y="345.0" type="curve" smooth="yes"/>
      <point x="490.2" y="152.93333333333334"/>
      <point x="453.8666666666667" y="94.13333333333333"/>
      <point x="337.4" y="94.13333333333333" type="curve" smooth="yes"/>
      <point x="220.93333333333334" y="94.13333333333333"/>
      <point x="184.6" y="152.93333333333334"/>
      <point x="184.6" y="345.0" type="curve" smooth="yes"/>
      <point x="184.6" y="537.0666666666667"/>
      <point x="220.93333333333334" y="595.8666666666667"/>
    </contour>
  </outline>
</glyph>
<glyph name="P" format="2">
  <advance width="600.9333333333333"/>
  <unicode hex="0050"/>
  <outline>
    <contour>
      <point x="326.6666666666667" y="699.1333333333333" type="curve" smooth="yes"/>
      <point x="209.46666666666667" y="699.1333333333333"/>
      <point x="156.13333333333333" y="698.1333333333333"/>
      <point x="77.13333333333334" y="690.0" type="curve"/>
      <point x="91.26666666666667" y="592.2666666666667" type="line"/>
      <point x="120.93333333333334" y="595.4"/>
      <point x="209.06666666666666" y="596.4"/>
      <point x="324.26666666666665" y="596.4" type="curve" smooth="yes"/>
      <point x="411.0" y="596.4"/>
      <point x="438.1333333333333" y="571.7333333333333"/>
      <point x="438.1333333333333" y="477.1333333333333" type="curve" smooth="yes"/>
      <point x="438.1333333333333" y="381.93333333333334"/>
      <point x="411.0" y="358.1333333333333"/>
      <point x="324.26666666666665" y="357.26666666666665" type="curve" smooth="yes"/>
      <point x="246.26666666666668" y="357.26666666666665"/>
      <point x="164.26666666666668" y="357.26666666666665"/>
      <point x="90.26666666666667" y="357.26666666666665" type="curve"/>
      <point x="87.26666666666667" y="286.1333333333333" type="line"/>
      <point x="114.06666666666666" y="273.6666666666667"/>
      <point x="226.13333333333333" y="254.53333333333333"/>
      <point x="342.8" y="254.53333333333333" type="curve" smooth="yes"/>
      <point x="505.8" y="254.53333333333333"/>
      <point x="564.1333333333333" y="302.06666666666666"/>
      <point x="564.1333333333333" y="477.1333333333333" type="curve" smooth="yes"/>
      <point x="564.1333333333333" y="650.7333333333333"/>
      <point x="505.8" y="699.1333333333333"/>
    </contour>
    <contour>
      <point x="202.26666666666665" y="690.0" type="line"/>
      <point x="77.13333333333334" y="690.0" type="line"/>
      <point x="77.13333333333334" y="0.0" type="line"/>
      <point x="202.26666666666665" y="0.0" type="line"/>
    </contour>
  </outline>
</glyph>
<glyph name="Q" format="2">
  <advance width="676.6666666666666"/>
  <unicode hex="0051"/>
  <outline>
    <contour>
      <point x="338.26666666666665" y="703.1333333333333" type="curve" smooth="yes"/>
      <point x="128.26666666666668" y="703.1333333333333"/>
      <point x="53.666666666666664" y="618.6"/>
      <point x="53.666666666666664" y="345.0" type="curve" smooth="yes"/>
      <point x="53.666666666666664" y="71.4"/>
      <point x="128.26666666666668" y="-13.133333333333333"/>
      <point x="338.26666666666665" y="-13.133333333333333" type="curve" smooth="yes"/>
      <point x="548.4" y="-13.133333333333333"/>
      <point x="623.0" y="71.4"/>
      <point x="623.0" y="345.0" type="curve" smooth="yes"/>
      <point x="623.0" y="618.6"/>
      <point x="548.4" y="703.1333333333333"/>
    </contour>
    <contour>
      <point x="292.26666666666665" y="-38.13333333333333" type="curve"/>
      <point x="261.0" y="-110.8" type="line"/>
      <point x="337.26666666666665" y="-152.93333333333334"/>
      <point x="427.93333333333334" y="-197.0"/>
      <point x="541.4" y="-223.86666666666667" type="curve"/>
      <point x="579.6666666666666" y="-104.33333333333333" type="line"/>
      <point x="474.3333333333333" y="-89.66666666666667"/>
      <point x="379.26666666666665" y="-69.06666666666666"/>
    </contour>
    <contour>
      <point x="338.26666666666665" y="595.8666666666667" type="curve" smooth="yes"/>
      <point x="454.73333333333335" y="595.8666666666667"/>
      <point x="491.06666666666666" y="537.0666666666667"/>
      <point x="491.06666666666666" y="345.0" type="curve" smooth="yes"/>
      <point x="491.06666666666666" y="152.93333333333334"/>
      <point x="454.73333333333335" y="94.13333333333333"/>
      <point x="338.26666666666665" y="94.13333333333333" type="curve" smooth="yes"/>
      <point x="221.8" y="94.13333333333333"/>
      <point x="185.46666666666667" y="152.93333333333334"/>
      <point x="185.46666666666667" y="345.0" type="curve" smooth="yes"/>
      <point x="185.46666666666667" y="537.0666666666667"/>
      <point x="221.8" y="595.8666666666667"/>
    </contour>
  </outline>
</glyph>
<glyph name="R" format="2">
  <advance width="629.2"/>
  <unicode hex="0052"/>
  <anchor x="321.3333333333333" y="-1.6" name="bottom"/>
  <anchor x="306.6" y="732.4" name="top"/>
  <outline>
    <contour>
      <point x="327.6666666666667" y="699.1333333333333" type="curve" smooth="yes"/>
      <point x="210.46666666666667" y="699.1333333333333"/>
      <point x="156.13333333333333" y="698.1333333333333"/>
      <point x="77.13333333333334" y="690.0" type="curve"/>
      <point x="91.4" y="594.0" type="line"/>
      <point x="121.06666666666666" y="594.5333333333333"/>
      <point x="207.93333333333334" y="596.4"/>
      <point x="325.26666666666665" y="596.4" type="curve" smooth="yes"/>
      <point x="413.26666666666665" y="596.4"/>
      <point x="441.4" y="573.7333333333333"/>
      <point x="441.4" y="489.0" type="curve" smooth="yes"/>
      <point x="441.4" y="404.26666666666665"/>
      <point x="413.26666666666665" y="379.8666666666667"/>
      <point x="325.26666666666665" y="379.0" type="curve" smooth="yes"/>
      <point x="90.26666666666667" y="379.0" type="line"/>
      <point x="87.26666666666667" y="278.6666666666667" type="line"/>
      <point x="131.46666666666667" y="277.26666666666665"/>
      <point x="195.86666666666667" y="276.4"/>
      <point x="325.06666666666666" y="276.26666666666665" type="curve" smooth="yes"/>
      <point x="367.26666666666665" y="276.26666666666665"/>
      <point x="390.8" y="259.46666666666664"/>
      <point x="404.8666666666667" y="213.66666666666666" type="curve" smooth="yes"/>
      <point x="460.26666666666665" y="0.0" type="line"/>
      <point x="592.8" y="0.0" type="line"/>
      <point x="531.0" y="216.33333333333334" type="line" smooth="yes"/>
      <point x="515.7333333333333" y="282.1333333333333"/>
      <point x="473.3333333333333" y="309.8"/>
      <point x="438.8" y="318.26666666666665" type="curve"/>
      <point x="438.8" y="323.4" type="line"/>
      <point x="533.6666666666666" y="335.26666666666665"/>
      <point x="567.5333333333333" y="394.0"/>
      <point x="567.5333333333333" y="496.93333333333334" type="curve" smooth="yes"/>
      <point x="567.5333333333333" y="653.6"/>
      <point x="497.73333333333335" y="699.1333333333333"/>
    </contour>
    <contour>
      <point x="200.86666666666667" y="690.0" type="line"/>
      <point x="77.13333333333334" y="690.0" type="line"/>
      <point x="77.13333333333334" y="0.0" type="line"/>
      <point x="200.86666666666667" y="0.0" type="line"/>
    </contour>
  </outline>
</glyph>
<glyph name="T" format="2">
  <advance width="591.8"/>
  <unicode hex="0054"/>
  <anchor x="293.46666666666664" y="-2.6666666666666665" name="bottom"/>
  <anchor x="292.73333333333335" y="345.0" name="center"/>
  <anchor x="295.4" y="732.4" name="top"/>
  <outline>
    <contour>
      <point x="358.46666666666664" y="690.0" type="line"/>
      <point x="232.46666666666667" y="690.0" type="line"/>
      <point x="232.46666666666667" y="0.0" type="line"/>
      <point x="358.46666666666664" y="0.0" type="line"/>
    </contour>
    <contour>
      <point x="570.5333333333333" y="690.0" type="line"/>
      <point x="21.266666666666666" y="690.0" type="line"/>
      <point x="21.266666666666666" y="582.6" type="line"/>
      <point x="570.5333333333333" y="582.6" type="line"/>
    </contour>
  </outline>
</glyph>
<glyph name="V" format="2">
  <advance width="622.3333333333334"/>
  <unicode hex="0056"/>
  <outline>
    <contour>
      <point x="611.3333333333334" y="690.0" type="line"/>
      <point x="481.93333333333334" y="690.0" type="line"/>
      <point x="342.6666666666667" y="171.66666666666666" type="line" smooth="yes"/>
      <point x="335.93333333333334" y="146.66666666666666"/>
      <point x="329.2" y="120.26666666666667"/>
      <point x="324.46666666666664" y="95.26666666666667" type="curve"/>
      <point x="298.73333333333335" y="95.26666666666667" type="line"/>
      <point x="293.0" y="120.26666666666667"/>
      <point x="287.26666666666665" y="146.66666666666666"/>
      <point x="280.53333333333336" y="171.66666666666666" type="curve" smooth="yes"/>
      <point x="140.4" y="690.0" type="line"/>
      <point x="11.0" y="690.0" type="line"/>
      <point x="206.73333333333332" y="34.6" type="line" smooth="yes"/>
      <point x="212.13333333333333" y="14.333333333333334"/>
      <point x="229.86666666666667" y="0.0"/>
      <point x="252.13333333333333" y="0.0" type="curve" smooth="yes"/>
      <point x="370.2" y="0.0" type="line" smooth="yes"/>
      <point x="392.46666666666664" y="0.0"/>
      <point x="410.2" y="14.333333333333334"/>
      <point x="415.6" y="34.6" type="curve" smooth="yes"/>
    </contour>
  </outline>
</glyph>
<glyph name="W" format="2">
  <advance width="960.5333333333333"/>
  <unicode hex="0057"/>
  <guideline x="446.06666666666666" y="447.0" angle="0.0"/>
  <anchor x="481.2" y="731.5333333333333" name="top"/>
  <outline>
    <contour>
      <point x="931.8666666666667" y="690.0" type="line"/>
      <point x="801.9333333333333" y="690.0" type="line"/>
      <point x="719.4" y="185.26666666666665" type="line" smooth="yes"/>
      <point x="714.8" y="156.46666666666667"/>
      <point x="711.8" y="123.13333333333333"/>
      <point x="708.3333333333334" y="93.06666666666666" type="curve"/>
      <point x="686.2666666666667" y="93.06666666666666" type="line"/>
      <point x="683.0" y="123.0"/>
      <point x="677.8666666666667" y="155.46666666666667"/>
      <point x="672.1333333333333" y="186.26666666666665" type="curve" smooth="yes"/>
      <point x="587.0" y="650.2666666666667" type="line" smooth="yes"/>
      <point x="582.8666666666667" y="673.5333333333333"/>
      <point x="565.1333333333333" y="690.0"/>
      <point x="541.7333333333333" y="690.0" type="curve" smooth="yes"/>
      <point x="419.6666666666667" y="690.0" type="line" smooth="yes"/>
      <point x="394.53333333333336" y="690.0"/>
      <point x="377.53333333333336" y="673.5333333333333"/>
      <point x="373.53333333333336" y="650.2666666666667" type="curve" smooth="yes"/>
      <point x="288.53333333333336" y="187.4" type="line" smooth="yes"/>
      <point x="282.8" y="157.46666666666667"/>
      <point x="277.53333333333336" y="126.33333333333333"/>
      <point x="273.4" y="93.06666666666666" type="curve"/>
      <point x="252.2" y="93.06666666666666" type="line"/>
      <point x="248.73333333333332" y="127.53333333333333"/>
      <point x="245.86666666666667" y="158.46666666666667"/>
      <point x="241.26666666666668" y="187.26666666666665" type="curve" smooth="yes"/>
      <point x="159.46666666666667" y="690.0" type="line"/>
      <point x="28.666666666666668" y="690.0" type="line"/>
      <point x="147.6" y="35.46666666666667" type="line" smooth="yes"/>
      <point x="151.73333333333332" y="14.333333333333334"/>
      <point x="170.73333333333332" y="0.0"/>
      <point x="193.86666666666667" y="0.0" type="curve" smooth="yes"/>
      <point x="324.26666666666665" y="0.0" type="line" smooth="yes"/>
      <point x="347.4" y="0.0"/>
      <point x="367.4" y="14.333333333333334"/>
      <point x="371.4" y="36.333333333333336" type="curve" smooth="yes"/>
      <point x="457.26666666666665" y="516.8666666666667" type="line" smooth="yes"/>
      <point x="462.1333333333333" y="542.9333333333333"/>
      <point x="465.8666666666667" y="571.0"/>
      <point x="470.46666666666664" y="598.0666666666667" type="curve"/>
      <point x="490.06666666666666" y="598.0666666666667" type="line"/>
      <point x="493.8" y="571.1333333333333"/>
      <point x="498.4" y="543.9333333333333"/>
      <point x="503.26666666666665" y="517.0" type="curve" smooth="yes"/>
      <point x="590.1333333333333" y="36.333333333333336" type="line" smooth="yes"/>
      <point x="594.1333333333333" y="14.333333333333334"/>
      <point x="613.2666666666667" y="0.0"/>
      <point x="636.4" y="0.0" type="curve" smooth="yes"/>
      <point x="766.6666666666666" y="0.0" type="line" smooth="yes"/>
      <point x="789.8" y="0.0"/>
      <point x="807.9333333333333" y="14.333333333333334"/>
      <point x="812.9333333333333" y="35.46666666666667" type="curve" smooth="yes"/>
    </contour>
  </outline>
</glyph>
<glyph name="X" format="2">
  <advance width="625.8666666666667"/>
  <unicode hex="0058"/>
  <outline>
    <contour>
      <point x="596.0666666666667" y="690.0" type="line"/>
      <point x="463.53333333333336" y="690.0" type="line"/>
      <point x="300.6" y="355.46666666666664" type="line"/>
      <point x="475.6666666666667" y="0.0" type="line"/>
      <point x="609.2" y="0.0" type="line"/>
      <point x="425.2" y="355.46666666666664" type="line"/>
    </contour>
    <contour>
      <point x="161.46666666666667" y="690.0" type="line"/>
      <point x="29.8" y="690.0" type="line"/>
      <point x="199.8" y="355.46666666666664" type="line"/>
      <point x="16.666666666666668" y="0.0" type="line"/>
      <point x="149.33333333333334" y="0.0" type="line"/>
      <point x="324.4" y="355.46666666666664" type="line"/>
    </contour>
    <contour>
      <point x="378.53333333333336" y="401.8666666666667" type="line"/>
      <point x="240.73333333333332" y="401.8666666666667" type="line"/>
      <point x="240.73333333333332" y="312.2" type="line"/>
      <point x="378.53333333333336" y="312.2" type="line"/>
    </contour>
  </outline>
</glyph>
<glyph name="Y" format="2">
  <advance width="589.0"/>
  <unicode hex="0059"/>
  <anchor x="292.46666666666664" y="-1.6" name="bottom"/>
  <anchor x="295.93333333333334" y="720.2666666666667" name="top"/>
  <outline>
    <contour>
      <point x="583.4" y="690.0" type="line"/>
      <point x="453.1333333333333" y="690.0" type="line"/>
      <point x="327.26666666666665" y="422.0" type="line" smooth="yes"/>
      <point x="315.4" y="396.3333333333333"/>
      <point x="306.93333333333334" y="365.4"/>
      <point x="299.3333333333333" y="338.73333333333335" type="curve"/>
      <point x="290.6666666666667" y="338.73333333333335" type="line"/>
      <point x="283.06666666666666" y="365.4"/>
      <point x="274.73333333333335" y="396.2"/>
      <point x="262.73333333333335" y="421.8666666666667" type="curve" smooth="yes"/>
      <point x="136.73333333333332" y="690.0" type="line"/>
      <point x="4.733333333333333" y="690.0" type="line"/>
      <point x="236.86666666666667" y="224.93333333333334" type="line"/>
      <point x="353.0" y="224.93333333333334" type="line"/>
    </contour>
    <contour>
      <point x="357.1333333333333" y="305.46666666666664" type="line"/>
      <point x="232.0" y="305.46666666666664" type="line"/>
      <point x="232.0" y="0.0" type="line"/>
      <point x="357.1333333333333" y="0.0" type="line"/>
    </contour>
  </outline>
</glyph>
<glyph name="Z" format="2">
  <advance width="573.8"/>
  <unicode hex="005A"/>
  <anchor x="295.3333333333333" y="-1.6" name="bottom"/>
  <anchor x="284.93333333333334" y="732.4" name="top"/>
  <outline>
    <contour>
      <point x="386.06666666666666" y="589.2666666666667" type="line"/>
      <point x="44.6" y="101.73333333333333" type="line"/>
      <point x="182.2" y="100.73333333333333" type="line"/>
      <point x="522.8" y="588.2666666666667" type="line"/>
    </contour>
    <contour>
      <point x="530.2" y="101.73333333333333" type="line"/>
      <point x="44.6" y="101.73333333333333" type="line"/>
      <point x="44.6" y="0.0" type="line"/>
      <point x="530.2" y="0.0" type="line"/>
    </contour>
    <contour>
      <point x="522.8" y="690.0" type="line"/>
      <point x="51.13333333333333" y="690.0" type="line"/>
      <point x="51.13333333333333" y="588.2666666666667" type="line"/>
      <point x="522.8" y="588.2666666666667" type="line"/>
    </contour>
  </outline>
</glyph>
<glyph name="bracketleft" format="2">
  <advance width="338.73333333333335"/>
  <unicode hex="005B"/>
  <outline>
    <contour>
      <point x="302.6" y="768.0" type="line"/>
      <point x="149.86666666666667" y="768.0" type="line" smooth="yes"/>
      <point x="110.66666666666667" y="768.0"/>
      <point x="82.66666666666667" y="740.0"/>
      <point x="82.66666666666667" y="700.8" type="curve" smooth="yes"/>
      <point x="82.66666666666667" y="-97.8" type="line" smooth="yes"/>
      <point x="82.66666666666667" y="-147.46666666666667"/>
      <point x="110.66666666666667" y="-165.0"/>
      <point x="149.86666666666667" y="-165.0" type="curve" smooth="yes"/>
      <point x="302.6" y="-165.0" type="line"/>
      <point x="302.6" y="-88.13333333333334" type="line"/>
      <point x="213.13333333333333" y="-88.13333333333334" type="line" smooth="yes"/>
      <point x="203.6" y="-88.13333333333334"/>
      <point x="196.33333333333334" y="-80.86666666666667"/>
      <point x="196.33333333333334" y="-70.46666666666667" type="curve" smooth="yes"/>
      <point x="196.33333333333334" y="673.4666666666667" type="line" smooth="yes"/>
      <point x="196.33333333333334" y="683.8666666666667"/>
      <point x="203.6" y="691.1333333333333"/>
      <point x="213.13333333333333" y="691.1333333333333" type="curve" smooth="yes"/>
      <point x="302.6" y="691.1333333333333" type="line"/>
    </contour>
  </outline>
</glyph>
<glyph name="backslash" format="2">
  <advance width="535.1333333333333"/>
  <unicode hex="005C"/>
  <outline>
    <contour>
      <point x="120.2" y="690.0" type="line"/>
      <point x="21.933333333333334" y="690.0" type="line"/>
      <point x="414.93333333333334" y="-69.46666666666667" type="line"/>
      <point x="513.2" y="-69.46666666666667" type="line"/>
    </contour>
  </outline>
</glyph>
<glyph name="bracketright" format="2">
  <advance width="338.73333333333335"/>
  <unicode hex="005D"/>
  <outline>
    <contour>
      <point x="188.0" y="768.0" type="curve" smooth="yes"/>
      <point x="36.13333333333333" y="768.0" type="line"/>
      <point x="36.13333333333333" y="691.1333333333333" type="line"/>
      <point x="124.73333333333333" y="691.1333333333333" type="line" smooth="yes"/>
      <point x="135.13333333333333" y="691.1333333333333"/>
      <point x="142.4" y="683.8666666666667"/>
      <point x="142.4" y="673.4666666666667" type="curve" smooth="yes"/>
      <point x="142.4" y="-70.46666666666667" type="line" smooth="yes"/>
      <point x="142.4" y="-80.86666666666667"/>
      <point x="135.13333333333333" y="-88.13333333333334"/>
      <point x="124.73333333333333" y="-88.13333333333334" type="curve" smooth="yes"/>
      <point x="36.13333333333333" y="-88.13333333333334" type="line"/>
      <point x="36.13333333333333" y="-165.0" type="line"/>
      <point x="188.0" y="-165.0" type="line" smooth="yes"/>
      <point x="228.06666666666666" y="-165.0"/>
      <point x="256.06666666666666" y="-137.0"/>
      <point x="256.06666666666666" y="-97.8" type="curve" smooth="yes"/>
      <point x="256.06666666666666" y="700.8" type="line" smooth="yes"/>
      <point x="256.06666666666666" y="740.0"/>
      <point x="228.06666666666666" y="768.0"/>
    </contour>
  </outline>
</glyph>
<glyph name="asciicircum" format="2">
  <advance width="446.73333333333335"/>
  <unicode hex="005E"/>
  <outline>
    <contour>
      <point x="268.0477333333333" y="615.6423333333333" type="line"/>
      <point x="180.22613333333334" y="615.6423333333333" type="line"/>
      <point x="30.0" y="396.7576666666667" type="line"/>
      <point x="77.91080000000001" y="369.12613333333337" type="line"/>
      <point x="220.13693333333333" y="538.1" type="line"/>
      <point x="228.13693333333333" y="538.1" type="line"/>
      <point x="368.7576666666667" y="369.12613333333337" type="line"/>
      <point x="416.7108" y="396.7576666666667" type="line"/>
    </contour>
  </outline>
</glyph>
<glyph name="underscore" format="2">
  <advance width="441.46666666666664"/>
  <unicode hex="005F"/>
  <outline>
    <contour>
      <point x="441.46666666666664" y="0.0" type="line"/>
      <point x="0.0" y="0.0" type="line"/>
      <point x="0.0" y="-86.46666666666667" type="line"/>
      <point x="441.46666666666664" y="-86.46666666666667" type="line"/>
    </contour>
  </outline>
</glyph>
<glyph name="grave" format="2">
  <advance width="336.9207333333333"/>
  <unicode hex="0060"/>
  <anchor x="214.23153333333332" y="538.2477333333333" name="_top"/>
  <outline>
    <contour>
      <point x="94.73333333333333" y="734.0666666666667" type="line"/>
      <point x="32.2" y="644.4" type="line"/>
      <point x="244.73333333333332" y="532.7333333333333" type="line"/>
      <point x="282.6666666666667" y="586.6666666666666" type="line"/>
    </contour>
  </outline>
</glyph>
<glyph name="a" format="2">
  <advance width="557.9333333333333"/>
  <unicode hex="0061"/>
  <anchor x="268.46666666666664" y="-12.0" name="bottom"/>
  <anchor x="492.2" y="0.0" name="ogonek"/>
  <anchor x="279.6" y="553.7333333333333" name="top"/>
  <outline>
    <contour>
      <point x="309.6" y="503.6" type="curve" smooth="yes"/>
      <point x="244.86666666666667" y="503.6"/>
      <point x="135.26666666666668" y="492.6"/>
      <point x="65.33333333333333" y="480.3333333333333" type="curve"/>
      <point x="76.53333333333333" y="394.1333333333333" type="line"/>
      <point x="153.73333333333332" y="399.8666666666667"/>
      <point x="237.06666666666666" y="404.3333333333333"/>
      <point x="282.1333333333333" y="404.3333333333333" type="curve" smooth="yes"/>
      <point x="352.1333333333333" y="404.3333333333333"/>
      <point x="371.3333333333333" y="390.2"/>
      <point x="372.3333333333333" y="333.53333333333336" type="curve" smooth="yes"/>
      <point x="372.3333333333333" y="120.06666666666666" type="line"/>
      <point x="380.26666666666665" y="106.13333333333334" type="line"/>
      <point x="398.0" y="0.0" type="line"/>
      <point x="493.93333333333334" y="0.0" type="line"/>
      <point x="493.93333333333334" y="333.4" type="line" smooth="yes"/>
      <point x="493.93333333333334" y="464.26666666666665"/>
      <point x="430.6666666666667" y="503.6"/>
    </contour>
    <contour>
      <point x="442.4" y="304.4" type="line"/>
      <point x="187.73333333333332" y="304.4" type="line" smooth="yes"/>
      <point x="96.13333333333334" y="304.4"/>
      <point x="42.666666666666664" y="258.8666666666667"/>
      <point x="42.666666666666664" y="180.6" type="curve" smooth="yes"/>
      <point x="42.666666666666664" y="130.6" type="line" smooth="yes"/>
      <point x="42.666666666666664" y="39.2"/>
      <point x="107.8" y="-10.533333333333333"/>
      <point x="198.2" y="-10.533333333333333" type="curve" smooth="yes"/>
      <point x="312.06666666666666" y="-10.533333333333333"/>
      <point x="385.53333333333336" y="68.4"/>
      <point x="409.73333333333335" y="106.46666666666667" type="curve"/>
      <point x="409.73333333333335" y="181.73333333333332" type="line"/>
      <point x="351.46666666666664" y="113.4"/>
      <point x="275.8666666666667" y="87.26666666666667"/>
      <point x="228.0" y="87.26666666666667" type="curve" smooth="yes"/>
      <point x="183.53333333333333" y="87.26666666666667"/>
      <point x="164.33333333333334" y="104.6"/>
      <point x="164.33333333333334" y="146.86666666666667" type="curve" smooth="yes"/>
      <point x="164.33333333333334" y="166.33333333333334" type="line" smooth="yes"/>
      <point x="164.33333333333334" y="199.06666666666666"/>
      <point x="175.6" y="219.0"/>
      <point x="216.2" y="220.73333333333332" type="curve" smooth="yes"/>
      <point x="441.4" y="220.73333333333332" type="line"/>
    </contour>
  </outline>
</glyph>
<glyph name="b" format="2">
  <advance width="580.7333333333333"/>
  <unicode hex="0062"/>
  <outline>
    <contour>
      <point x="356.06666666666666" y="503.6" type="curve" smooth="yes"/>
      <point x="286.1333333333333" y="503.6"/>
      <point x="218.13333333333333" y="470.2"/>
      <point x="165.0" y="408.46666666666664" type="curve"/>
      <point x="173.93333333333334" y="336.8666666666667" type="line"/>
      <point x="225.06666666666666" y="374.6"/>
      <point x="261.6666666666667" y="402.06666666666666"/>
      <point x="309.6666666666667" y="402.06666666666666" type="curve" smooth="yes"/>
      <point x="393.2" y="402.06666666666666"/>
      <point x="408.8" y="364.26666666666665"/>
      <point x="409.6666666666667" y="248.06666666666666" type="curve" smooth="yes"/>
      <point x="408.8" y="124.4"/>
      <point x="380.06666666666666" y="86.06666666666666"/>
      <point x="302.4" y="84.8" type="curve" smooth="yes"/>
      <point x="261.4" y="83.66666666666667"/>
      <point x="205.6" y="89.8"/>
      <point x="163.2" y="104.0" type="curve"/>
      <point x="66.26666666666667" y="24.8" type="line"/>
      <point x="128.6" y="0.0"/>
      <point x="236.0" y="-12.0"/>
      <point x="304.6666666666667" y="-12.0" type="curve" smooth="yes"/>
      <point x="488.46666666666664" y="-12.0"/>
      <point x="534.6666666666666" y="90.66666666666667"/>
      <point x="534.6666666666666" y="248.2" type="curve" smooth="yes"/>
      <point x="534.6666666666666" y="431.2"/>
      <point x="477.8666666666667" y="503.6"/>
    </contour>
    <contour>
      <point x="187.86666666666667" y="700.0" type="line"/>
      <point x="66.26666666666667" y="700.0" type="line"/>
      <point x="66.26666666666667" y="24.8" type="line"/>
      <point x="187.86666666666667" y="19.133333333333333" type="line"/>
      <point x="187.0" y="401.6666666666667" type="line"/>
      <point x="174.66666666666666" y="415.4" type="line"/>
      <point x="185.6" y="453.2"/>
      <point x="188.26666666666665" y="491.3333333333333"/>
      <point x="188.13333333333333" y="535.0" type="curve" smooth="yes"/>
    </contour>
  </outline>
</glyph>
<glyph name="c" format="2">
  <advance width="497.6666666666667"/>
  <unicode hex="0063"/>
  <anchor x="275.1333333333333" y="-12.666666666666666" name="bottom"/>
  <anchor x="269.46666666666664" y="553.5333333333333" name="top"/>
  <outline>
    <contour>
      <point x="286.2" y="503.6" type="curve" smooth="yes"/>
      <point x="110.86666666666666" y="503.6"/>
      <point x="45.93333333333334" y="435.3333333333333"/>
      <point x="45.93333333333334" y="245.8" type="curve" smooth="yes"/>
      <point x="45.93333333333334" y="56.266666666666666"/>
      <point x="109.86666666666666" y="-12.0"/>
      <point x="285.06666666666666" y="-12.0" type="curve" smooth="yes"/>
      <point x="347.3333333333333" y="-12.0"/>
      <point x="413.73333333333335" y="-2.7333333333333334"/>
      <point x="464.93333333333334" y="17.866666666666667" type="curve"/>
      <point x="453.73333333333335" y="97.73333333333333" type="line"/>
      <point x="400.26666666666665" y="89.86666666666667"/>
      <point x="337.1333333333333" y="88.13333333333333"/>
      <point x="306.6" y="88.13333333333333" type="curve" smooth="yes"/>
      <point x="207.06666666666666" y="88.13333333333333"/>
      <point x="173.2" y="122.73333333333333"/>
      <point x="173.2" y="245.8" type="curve" smooth="yes"/>
      <point x="173.2" y="367.8666666666667"/>
      <point x="207.06666666666666" y="402.46666666666664"/>
      <point x="306.6" y="402.46666666666664" type="curve" smooth="yes"/>
      <point x="342.53333333333336" y="402.46666666666664"/>
      <point x="393.73333333333335" y="401.6"/>
      <point x="443.0" y="399.8666666666667" type="curve"/>
      <point x="457.06666666666666" y="476.1333333333333" type="line"/>
      <point x="405.73333333333335" y="497.3333333333333"/>
      <point x="334.2" y="503.6"/>
    </contour>
  </outline>
</glyph>
<glyph name="d" format="2">
  <advance width="582.7333333333333"/>
  <unicode hex="0064"/>
  <anchor x="300.2" y="-12.666666666666666" name="bottom"/>
  <anchor x="454.1333333333333" y="703.8666666666667" name="top"/>
  <outline>
    <contour>
      <point x="235.33333333333334" y="503.6" type="curve" smooth="yes"/>
      <point x="111.33333333333333" y="503.6"/>
      <point x="47.06666666666667" y="442.8"/>
      <point x="47.06666666666667" y="248.2" type="curve" smooth="yes"/>
      <point x="47.06666666666667" y="81.66666666666667"/>
      <point x="95.33333333333333" y="-12.0"/>
      <point x="219.4" y="-12.0" type="curve" smooth="yes"/>
      <point x="305.6" y="-12.0"/>
      <point x="374.73333333333335" y="31.533333333333335"/>
      <point x="419.06666666666666" y="76.93333333333334" type="curve"/>
      <point x="407.8" y="151.66666666666666" type="line"/>
      <point x="343.6666666666667" y="108.93333333333334"/>
      <point x="317.0" y="91.0"/>
      <point x="264.3333333333333" y="91.0" type="curve" smooth="yes"/>
      <point x="199.33333333333334" y="91.0"/>
      <point x="172.06666666666666" y="120.06666666666666"/>
      <point x="172.06666666666666" y="249.33333333333334" type="curve" smooth="yes"/>
      <point x="172.06666666666666" y="380.6"/>
      <point x="199.33333333333334" y="404.73333333333335"/>
      <point x="270.8" y="404.73333333333335" type="curve" smooth="yes"/>
      <point x="319.6" y="404.73333333333335"/>
      <point x="356.06666666666666" y="393.46666666666664"/>
      <point x="407.3333333333333" y="382.0" type="curve"/>
      <point x="415.4" y="448.4" type="line"/>
      <point x="364.0" y="487.06666666666666"/>
      <point x="300.06666666666666" y="503.6"/>
    </contour>
    <contour>
      <point x="514.6" y="700.0" type="line"/>
      <point x="393.0" y="700.0" type="line"/>
      <point x="393.0" y="559.3333333333334" type="line" smooth="yes"/>
      <point x="393.0" y="517.4"/>
      <point x="395.1333333333333" y="479.26666666666665"/>
      <point x="399.8666666666667" y="439.73333333333335" type="curve"/>
      <point x="393.0" y="426.0" type="line"/>
      <point x="393.0" y="96.4" type="line"/>
      <point x="406.46666666666664" y="86.46666666666667" type="line"/>
      <point x="418.6666666666667" y="0.0" type="line"/>
      <point x="514.6" y="0.0" type="line"/>
    </contour>
  </outline>
</glyph>
<glyph name="e" format="2">
  <advance width="547.5333333333333"/>
  <unicode hex="0065"/>
  <anchor x="277.46666666666664" y="-12.0" name="bottom"/>
  <anchor x="493.46666666666664" y="21.866666666666667" name="ogonek"/>
  <anchor x="286.8666666666667" y="552.6666666666666" name="top"/>
  <outline>
    <contour>
      <point x="283.0" y="503.6" type="curve" smooth="yes"/>
      <point x="116.73333333333333" y="503.6"/>
      <point x="45.8" y="440.4"/>
      <point x="45.8" y="246.0" type="curve" smooth="yes"/>
      <point x="45.8" y="59.53333333333333"/>
      <point x="113.13333333333334" y="-12.0"/>
      <point x="290.93333333333334" y="-12.0" type="curve" smooth="yes"/>
      <point x="353.2" y="-12.0"/>
      <point x="440.6666666666667" y="-3.7333333333333334"/>
      <point x="493.46666666666664" y="21.0" type="curve"/>
      <point x="482.26666666666665" y="99.33333333333333" type="line"/>
      <point x="423.1333333333333" y="92.06666666666666"/>
      <point x="353.06666666666666" y="87.46666666666667"/>
      <point x="306.1333333333333" y="87.46666666666667" type="curve" smooth="yes"/>
      <point x="206.0" y="87.46666666666667"/>
      <point x="172.2" y="112.0"/>
      <point x="172.2" y="254.26666666666668" type="curve" smooth="yes"/>
      <point x="172.2" y="378.4"/>
      <point x="197.2" y="407.73333333333335"/>
      <point x="288.1333333333333" y="407.6" type="curve" smooth="yes"/>
      <point x="362.53333333333336" y="407.6"/>
      <point x="385.3333333333333" y="387.73333333333335"/>
      <point x="385.3333333333333" y="335.8" type="curve" smooth="yes"/>
      <point x="385.3333333333333" y="309.6"/>
      <point x="380.06666666666666" y="278.73333333333335"/>
      <point x="341.1333333333333" y="278.73333333333335" type="curve" smooth="yes"/>
      <point x="90.4" y="278.73333333333335" type="line"/>
      <point x="90.4" y="194.46666666666667" type="line"/>
      <point x="375.0" y="194.46666666666667" type="line" smooth="yes"/>
      <point x="465.6666666666667" y="194.46666666666667"/>
      <point x="505.8666666666667" y="245.6"/>
      <point x="505.73333333333335" y="334.26666666666665" type="curve" smooth="yes"/>
      <point x="505.6" y="445.2"/>
      <point x="442.4" y="503.6"/>
    </contour>
  </outline>
</glyph>
<glyph name="f" format="2">
  <advance width="394.93333333333334"/>
  <unicode hex="0066"/>
  <outline>
    <contour>
      <point x="263.8666666666667" y="718.8" type="curve" smooth="yes"/>
      <point x="151.13333333333333" y="718.8"/>
      <point x="111.06666666666666" y="661.9333333333333"/>
      <point x="111.06666666666666" y="570.5333333333333" type="curve" smooth="yes"/>
      <point x="111.06666666666666" y="0.0" type="line"/>
      <point x="232.8" y="0.0" type="line"/>
      <point x="232.8" y="555.4" type="line" smooth="yes"/>
      <point x="232.8" y="604.8"/>
      <point x="251.6" y="623.8666666666667"/>
      <point x="306.8" y="623.8666666666667" type="curve" smooth="yes"/>
      <point x="402.6" y="623.8666666666667" type="line"/>
      <point x="413.06666666666666" y="710.0" type="line"/>
      <point x="371.73333333333335" y="716.5333333333333"/>
      <point x="297.8" y="718.8"/>
    </contour>
    <contour>
      <point x="376.06666666666666" y="490.46666666666664" type="line"/>
      <point x="114.66666666666667" y="490.46666666666664" type="line"/>
      <point x="23.6" y="485.46666666666664" type="line"/>
      <point x="23.6" y="401.73333333333335" type="line"/>
      <point x="376.06666666666666" y="401.73333333333335" type="line"/>
    </contour>
  </outline>
</glyph>
<glyph name="g" format="2">
  <advance width="568.4666666666667"/>
  <unicode hex="0067"/>
  <anchor x="275.53333333333336" y="552.2" name="top"/>
  <outline>
    <contour>
      <point x="274.1333333333333" y="503.6" type="curve" smooth="yes"/>
      <point x="106.8" y="503.6"/>
      <point x="52.4" y="459.73333333333335"/>
      <point x="52.4" y="344.73333333333335" type="curve" smooth="yes"/>
      <point x="52.4" y="234.8"/>
      <point x="106.66666666666667" y="188.46666666666667"/>
      <point x="273.1333333333333" y="188.46666666666667" type="curve" smooth="yes"/>
      <point x="439.73333333333335" y="188.46666666666667"/>
      <point x="493.73333333333335" y="234.8"/>
      <point x="493.73333333333335" y="345.6" type="curve" smooth="yes"/>
      <point x="493.73333333333335" y="459.73333333333335"/>
      <point x="439.6" y="503.6"/>
    </contour>
    <contour>
      <point x="273.1333333333333" y="418.06666666666666" type="curve" smooth="yes"/>
      <point x="355.93333333333334" y="418.06666666666666"/>
      <point x="381.93333333333334" y="401.4"/>
      <point x="381.93333333333334" y="345.6" type="curve" smooth="yes"/>
      <point x="381.93333333333334" y="292.4"/>
      <point x="355.93333333333334" y="273.0"/>
      <point x="273.1333333333333" y="273.0" type="curve" smooth="yes"/>
      <point x="190.33333333333334" y="273.0"/>
      <point x="163.33333333333334" y="292.4"/>
      <point x="163.33333333333334" y="345.6" type="curve" smooth="yes"/>
      <point x="163.33333333333334" y="401.4"/>
      <point x="190.33333333333334" y="418.06666666666666"/>
    </contour>
    <contour>
      <point x="551.6" y="490.46666666666664" type="line"/>
      <point x="381.06666666666666" y="490.46666666666664" type="line"/>
      <point x="416.3333333333333" y="416.3333333333333" type="line"/>
      <point x="545.0666666666667" y="430.8" type="line"/>
    </contour>
    <contour>
      <point x="131.46666666666667" y="219.06666666666666" type="line"/>
      <point x="63.0" y="189.86666666666667"/>
      <point x="52.46666666666667" y="51.4"/>
      <point x="163.46666666666667" y="38.53333333333333" type="curve" smooth="yes"/>
      <point x="326.3333333333333" y="19.0" type="line" smooth="yes"/>
      <point x="392.46666666666664" y="10.666666666666666"/>
      <point x="408.6666666666667" y="7.8"/>
      <point x="408.6666666666667" y="-33.666666666666664" type="curve" smooth="yes"/>
      <point x="408.6666666666667" y="-88.6"/>
      <point x="384.3333333333333" y="-98.8"/>
      <point x="278.0" y="-98.8" type="curve" smooth="yes"/>
      <point x="171.73333333333332" y="-98.8"/>
      <point x="148.4" y="-91.06666666666666"/>
      <point x="148.4" y="-33.0" type="curve" smooth="yes"/>
      <point x="148.4" y="4.933333333333334"/>
      <point x="170.6" y="23.866666666666667"/>
      <point x="211.66666666666666" y="56.46666666666667" type="curve" smooth="yes"/>
      <point x="257.53333333333336" y="93.4" type="line"/>
      <point x="210.33333333333334" y="110.73333333333333" type="line"/>
      <point x="140.8" y="77.0" type="line" smooth="yes"/>
      <point x="63.86666666666667" y="42.8"/>
      <point x="31.266666666666666" y="16.066666666666666"/>
      <point x="31.266666666666666" y="-45.93333333333333" type="curve" smooth="yes"/>
      <point x="31.266666666666666" y="-158.46666666666667"/>
      <point x="88.8" y="-195.73333333333332"/>
      <point x="279.26666666666665" y="-195.73333333333332" type="curve" smooth="yes"/>
      <point x="464.06666666666666" y="-195.73333333333332"/>
      <point x="525.8" y="-160.2"/>
      <point x="525.8" y="-39.0" type="curve" smooth="yes"/>
      <point x="525.8" y="46.13333333333333"/>
      <point x="488.46666666666664" y="90.93333333333334"/>
      <point x="390.93333333333334" y="104.13333333333333" type="curve" smooth="yes"/>
      <point x="212.4" y="129.13333333333333" type="line" smooth="yes"/>
      <point x="163.8" y="135.6"/>
      <point x="169.93333333333334" y="189.26666666666668"/>
      <point x="195.53333333333333" y="209.0" type="curve"/>
    </contour>
  </outline>
</glyph>
<glyph name="h" format="2">
  <advance width="589.8"/>
  <unicode hex="0068"/>
  <anchor x="304.3333333333333" y="-12.0" name="bottom"/>
  <anchor x="295.6" y="237.2" name="center"/>
  <anchor x="128.06666666666666" y="707.2" name="top"/>
  <outline>
    <contour>
      <point x="389.6666666666667" y="503.6" type="curve" smooth="yes"/>
      <point x="315.93333333333334" y="503.6"/>
      <point x="241.86666666666667" y="468.73333333333335"/>
      <point x="169.13333333333333" y="410.73333333333335" type="curve"/>
      <point x="176.4" y="333.6" type="line"/>
      <point x="251.66666666666666" y="377.46666666666664"/>
      <point x="299.46666666666664" y="401.1333333333333"/>
      <point x="350.6" y="401.1333333333333" type="curve" smooth="yes"/>
      <point x="390.46666666666664" y="401.1333333333333"/>
      <point x="403.06666666666666" y="386.2"/>
      <point x="403.06666666666666" y="331.26666666666665" type="curve" smooth="yes"/>
      <point x="403.06666666666666" y="0.0" type="line"/>
      <point x="524.6666666666666" y="0.0" type="line"/>
      <point x="524.6666666666666" y="367.93333333333334" type="line" smooth="yes"/>
      <point x="524.6666666666666" y="456.46666666666664"/>
      <point x="477.1333333333333" y="503.6"/>
    </contour>
    <contour>
      <point x="189.73333333333332" y="700.0" type="line"/>
      <point x="68.13333333333334" y="700.0" type="line"/>
      <point x="68.13333333333334" y="0.0" type="line"/>
      <point x="189.73333333333332" y="0.0" type="line"/>
      <point x="189.73333333333332" y="380.8" type="line"/>
      <point x="177.53333333333333" y="395.4" type="line"/>
      <point x="185.06666666666666" y="424.93333333333334"/>
      <point x="190.73333333333332" y="471.06666666666666"/>
      <point x="190.73333333333332" y="519.8" type="curve" smooth="yes"/>
    </contour>
  </outline>
</glyph>
<glyph name="i" format="2">
  <advance width="264.8666666666667"/>
  <unicode hex="0069"/>
  <anchor x="133.66666666666666" y="-12.0" name="bottom"/>
  <anchor x="183.4" y="0.0" name="ogonek"/>
  <anchor x="133.53333333333333" y="553.5333333333333" name="top"/>
  <outline>
    <contour>
      <point x="192.73333333333332" y="490.46666666666664" type="line"/>
      <point x="72.13333333333334" y="490.46666666666664" type="line"/>
      <point x="72.13333333333334" y="0.0" type="line"/>
      <point x="192.73333333333332" y="0.0" type="line"/>
    </contour>
    <contour>
      <point x="160.46666666666667" y="703.0" type="curve" smooth="yes"/>
      <point x="104.4" y="703.0" type="line" smooth="yes"/>
      <point x="80.73333333333333" y="703.0"/>
      <point x="69.4" y="689.9333333333333"/>
      <point x="69.4" y="667.8666666666667" type="curve" smooth="yes"/>
      <point x="69.4" y="613.4" type="line" smooth="yes"/>
      <point x="69.4" y="589.6"/>
      <point x="80.73333333333333" y="578.2666666666667"/>
      <point x="104.4" y="578.2666666666667" type="curve" smooth="yes"/>
      <point x="160.46666666666667" y="578.2666666666667" type="line" smooth="yes"/>
      <point x="184.13333333333333" y="578.2666666666667"/>
      <point x="195.46666666666667" y="589.6"/>
      <point x="195.46666666666667" y="613.4" type="curve" smooth="yes"/>
      <point x="195.46666666666667" y="667.8666666666667" type="line" smooth="yes"/>
      <point x="195.46666666666667" y="689.9333333333333"/>
      <point x="184.13333333333333" y="703.0"/>
    </contour>
  </outline>
</glyph>
<glyph name="j" format="2">
  <advance width="266.73333333333335"/>
  <unicode hex="006A"/>
  <outline>
    <contour>
      <point x="194.6" y="490.46666666666664" type="line"/>
      <point x="73.13333333333334" y="490.46666666666664" type="line"/>
      <point x="73.13333333333334" y="8.6" type="line" smooth="yes"/>
      <point x="73.13333333333334" y="-52.733333333333334"/>
      <point x="56.266666666666666" y="-97.86666666666667"/>
      <point x="15.4" y="-146.53333333333333" type="curve"/>
      <point x="82.86666666666666" y="-199.53333333333333" type="line"/>
      <point x="151.8" y="-156.8"/>
      <point x="194.6" y="-77.2"/>
      <point x="194.6" y="8.6" type="curve" smooth="yes"/>
    </contour>
    <contour>
      <point x="161.93333333333334" y="704.3333333333334" type="curve" smooth="yes"/>
      <point x="105.86666666666666" y="704.3333333333334" type="line"/>
      <point x="82.2" y="704.3333333333334"/>
      <point x="70.86666666666667" y="691.2666666666667"/>
      <point x="70.86666666666667" y="669.2" type="curve" smooth="yes"/>
      <point x="70.86666666666667" y="614.7333333333333" type="line"/>
      <point x="70.86666666666667" y="590.9333333333333"/>
      <point x="82.2" y="579.6"/>
      <point x="105.86666666666666" y="579.6" type="curve" smooth="yes"/>
      <point x="161.93333333333334" y="579.6" type="line"/>
      <point x="185.6" y="579.6"/>
      <point x="196.93333333333334" y="590.9333333333333"/>
      <point x="196.93333333333334" y="614.7333333333333" type="curve" smooth="yes"/>
      <point x="196.93333333333334" y="669.2" type="line"/>
      <point x="196.93333333333334" y="691.2666666666667"/>
      <point x="185.6" y="704.3333333333334"/>
    </contour>
  </outline>
</glyph>
<glyph name="k" format="2">
  <advance width="534.4666666666667"/>
  <unicode hex="006B"/>
  <guideline x="470.8666666666667" y="273.0" angle="90.0"/>
  <anchor x="272.6666666666667" y="0.0" name="bottom"/>
  <outline>
    <contour>
      <point x="508.8666666666667" y="490.46666666666664" type="line"/>
      <point x="370.73333333333335" y="490.46666666666664" type="line"/>
      <point x="208.93333333333334" y="279.6" type="line"/>
      <point x="387.0" y="0.0" type="line"/>
      <point x="525.2666666666667" y="0.0" type="line"/>
      <point x="371.8" y="225.8" type="line" smooth="yes"/>
      <point x="361.1333333333333" y="244.26666666666668"/>
      <point x="341.8" y="265.73333333333335"/>
      <point x="331.1333333333333" y="272.8666666666667" type="curve"/>
      <point x="331.1333333333333" y="275.1333333333333" type="line"/>
      <point x="341.8" y="282.4"/>
      <point x="361.1333333333333" y="299.46666666666664"/>
      <point x="371.8" y="316.06666666666666" type="curve" smooth="yes"/>
    </contour>
    <contour>
      <point x="189.73333333333332" y="700.0" type="line"/>
      <point x="68.13333333333334" y="700.0" type="line"/>
      <point x="68.13333333333334" y="0.0" type="line"/>
      <point x="189.73333333333332" y="0.0" type="line"/>
      <point x="189.73333333333332" y="159.46666666666667" type="line" smooth="yes"/>
      <point x="189.73333333333332" y="195.0"/>
      <point x="184.06666666666666" y="237.73333333333332"/>
      <point x="177.4" y="277.26666666666665" type="curve"/>
      <point x="186.2" y="318.06666666666666"/>
      <point x="190.6" y="357.6"/>
      <point x="190.6" y="401.6666666666667" type="curve" smooth="yes"/>
    </contour>
    <contour>
      <point x="263.8" y="315.8" type="line"/>
      <point x="150.26666666666668" y="315.8" type="line"/>
      <point x="150.26666666666668" y="234.2" type="line"/>
      <point x="263.8" y="234.2" type="line"/>
    </contour>
  </outline>
</glyph>
<glyph name="l" format="2">
  <advance width="313.8"/>
  <unicode hex="006C"/>
  <anchor x="189.73333333333332" y="-12.0" name="bottom"/>
  <anchor x="129.93333333333334" y="744.2666666666667" name="top"/>
  <outline>
    <contour>
      <point x="190.6" y="700.0" type="line"/>
      <point x="69.13333333333334" y="700.0" type="line"/>
      <point x="69.13333333333334" y="123.4" type="line" smooth="yes"/>
      <point x="69.13333333333334" y="37.13333333333333"/>
      <point x="120.13333333333334" y="-10.533333333333333"/>
      <point x="200.86666666666667" y="-10.533333333333333" type="curve" smooth="yes"/>
      <point x="228.6" y="-10.533333333333333"/>
      <point x="283.2" y="-5.133333333333334"/>
      <point x="305.4" y="5.933333333333334" type="curve"/>
      <point x="291.06666666666666" y="95.73333333333333" type="line"/>
      <point x="249.26666666666665" y="95.73333333333333" type="line" smooth="yes"/>
      <point x="210.06666666666666" y="95.73333333333333"/>
      <point x="189.73333333333332" y="114.4"/>
      <point x="189.73333333333332" y="152.53333333333333" type="curve" smooth="yes"/>
    </contour>
  </outline>
</glyph>
<glyph name="m" format="2">
  <advance width="875.4666666666667"/>
  <unicode hex="006D"/>
  <anchor x="439.6666666666667" y="-12.0" name="bottom"/>
  <anchor x="449.06666666666666" y="557.8666666666667" name="top"/>
  <outline>
    <contour>
      <point x="676.7333333333333" y="503.6" type="curve" smooth="yes"/>
      <point x="607.8" y="503.6"/>
      <point x="545.4" y="473.6"/>
      <point x="478.73333333333335" y="411.46666666666664" type="curve"/>
      <point x="486.26666666666665" y="333.6" type="line"/>
      <point x="559.3333333333334" y="383.53333333333336"/>
      <point x="586.7333333333333" y="401.1333333333333"/>
      <point x="629.8666666666667" y="401.1333333333333" type="curve" smooth="yes"/>
      <point x="675.6666666666666" y="401.1333333333333"/>
      <point x="689.7333333333333" y="381.0"/>
      <point x="690.6" y="331.26666666666665" type="curve" smooth="yes"/>
      <point x="690.6" y="0.0" type="line"/>
      <point x="810.3333333333334" y="0.0" type="line"/>
      <point x="810.3333333333334" y="367.93333333333334" type="line" smooth="yes"/>
      <point x="810.3333333333334" y="456.46666666666664"/>
      <point x="763.9333333333333" y="503.6"/>
    </contour>
    <contour>
      <point x="167.13333333333333" y="490.46666666666664" type="line"/>
      <point x="68.13333333333334" y="490.46666666666664" type="line"/>
      <point x="68.13333333333334" y="0.0" type="line"/>
      <point x="188.73333333333332" y="0.0" type="line"/>
      <point x="188.73333333333332" y="380.8" type="line"/>
      <point x="176.53333333333333" y="395.4" type="line"/>
    </contour>
    <contour>
      <point x="365.8666666666667" y="503.6" type="curve" smooth="yes"/>
      <point x="295.06666666666666" y="503.6"/>
      <point x="232.93333333333334" y="471.8666666666667"/>
      <point x="167.0" y="411.46666666666664" type="curve"/>
      <point x="175.4" y="333.6" type="line"/>
      <point x="250.6" y="385.26666666666665"/>
      <point x="278.73333333333335" y="401.1333333333333"/>
      <point x="320.26666666666665" y="401.1333333333333" type="curve" smooth="yes"/>
      <point x="362.46666666666664" y="401.1333333333333"/>
      <point x="382.0" y="384.46666666666664"/>
      <point x="381.1333333333333" y="331.26666666666665" type="curve" smooth="yes"/>
      <point x="381.1333333333333" y="0.0" type="line"/>
      <point x="498.2" y="0.0" type="line"/>
      <point x="498.2" y="367.93333333333334" type="line" smooth="yes"/>
      <point x="497.3333333333333" y="457.3333333333333"/>
      <point x="450.93333333333334" y="503.6"/>
    </contour>
  </outline>
</glyph>
<glyph name="n" format="2">
  <advance width="589.8"/>
  <unicode hex="006E"/>
  <anchor x="302.6" y="-12.0" name="bottom"/>
  <anchor x="307.6666666666667" y="552.6666666666666" name="top"/>
  <outline>
    <contour>
      <point x="389.6666666666667" y="503.6" type="curve" smooth="yes"/>
      <point x="316.3333333333333" y="503.6"/>
      <point x="242.93333333333334" y="469.26666666666665"/>
      <point x="170.73333333333332" y="412.3333333333333" type="curve"/>
      <point x="176.4" y="333.6" type="line"/>
      <point x="251.66666666666666" y="375.73333333333335"/>
      <point x="299.46666666666664" y="401.1333333333333"/>
      <point x="350.6" y="401.1333333333333" type="curve" smooth="yes"/>
      <point x="390.46666666666664" y="401.1333333333333"/>
      <point x="403.06666666666666" y="386.2"/>
      <point x="403.06666666666666" y="331.26666666666665" type="curve" smooth="yes"/>
      <point x="403.06666666666666" y="0.0" type="line"/>
      <point x="524.6666666666666" y="0.0" type="line"/>
      <point x="524.6666666666666" y="367.93333333333334" type="line" smooth="yes"/>
      <point x="524.6666666666666" y="456.46666666666664"/>
      <point x="477.1333333333333" y="503.6"/>
    </contour>
    <contour>
      <point x="169.86666666666667" y="490.46666666666664" type="line"/>
      <point x="68.13333333333334" y="490.46666666666664" type="line"/>
      <point x="68.13333333333334" y="0.0" type="line"/>
      <point x="189.73333333333332" y="0.0" type="line"/>
      <point x="188.86666666666667" y="380.8" type="line"/>
      <point x="180.26666666666665" y="395.4" type="line"/>
    </contour>
  </outline>
</glyph>
<glyph name="o" format="2">
  <advance width="576.3333333333334"/>
  <unicode hex="006F"/>
  <anchor x="286.2" y="-12.0" name="bottom"/>
  <anchor x="334.4" y="1.7333333333333334" name="ogonek"/>
  <anchor x="290.4" y="547.0" name="top"/>
  <outline>
    <contour>
      <point x="288.6666666666667" y="503.6" type="curve" smooth="yes"/>
      <point x="112.26666666666667" y="503.6"/>
      <point x="45.93333333333334" y="432.73333333333335"/>
      <point x="45.93333333333334" y="244.66666666666666" type="curve" smooth="yes"/>
      <point x="45.93333333333334" y="57.0"/>
      <point x="112.26666666666667" y="-12.866666666666667"/>
      <point x="288.6666666666667" y="-12.866666666666667" type="curve" smooth="yes"/>
      <point x="464.93333333333334" y="-12.866666666666667"/>
      <point x="530.4" y="57.0"/>
      <point x="530.4" y="244.66666666666666" type="curve" smooth="yes"/>
      <point x="530.4" y="432.73333333333335"/>
      <point x="464.93333333333334" y="503.6"/>
    </contour>
    <contour>
      <point x="288.6666666666667" y="406.6666666666667" type="curve" smooth="yes"/>
      <point x="377.4" y="406.6666666666667"/>
      <point x="404.0" y="371.93333333333334"/>
      <point x="404.0" y="244.66666666666666" type="curve" smooth="yes"/>
      <point x="404.0" y="118.66666666666667"/>
      <point x="377.4" y="84.06666666666666"/>
      <point x="288.6666666666667" y="84.06666666666666" type="curve" smooth="yes"/>
      <point x="198.93333333333334" y="84.06666666666666"/>
      <point x="173.2" y="118.66666666666667"/>
      <point x="173.2" y="244.66666666666666" type="curve" smooth="yes"/>
      <point x="173.2" y="371.93333333333334"/>
      <point x="198.93333333333334" y="406.6666666666667"/>
    </contour>
  </outline>
</glyph>
<glyph name="p" format="2">
  <advance width="591.4"/>
  <unicode hex="0070"/>
  <outline>
    <contour>
      <point x="377.3333333333333" y="503.3333333333333" type="curve" smooth="yes"/>
      <point x="301.6" y="503.3333333333333"/>
      <point x="214.93333333333334" y="464.8"/>
      <point x="170.73333333333332" y="410.6" type="curve"/>
      <point x="185.86666666666667" y="340.26666666666665" type="line"/>
      <point x="244.13333333333333" y="380.6"/>
      <point x="284.4" y="402.6"/>
      <point x="332.4" y="402.6" type="curve" smooth="yes"/>
      <point x="394.6666666666667" y="402.6"/>
      <point x="419.3333333333333" y="365.6"/>
      <point x="419.3333333333333" y="242.0" type="curve" smooth="yes"/>
      <point x="419.3333333333333" y="111.6"/>
      <point x="392.06666666666666" y="86.6"/>
      <point x="319.8666666666667" y="86.6" type="curve" smooth="yes"/>
      <point x="271.93333333333334" y="86.6"/>
      <point x="235.46666666666667" y="97.73333333333333"/>
      <point x="184.2" y="109.33333333333333" type="curve"/>
      <point x="176.26666666666668" y="42.93333333333333" type="line"/>
      <point x="227.53333333333333" y="4.266666666666667"/>
      <point x="291.46666666666664" y="-12.266666666666667"/>
      <point x="356.2" y="-12.266666666666667" type="curve" smooth="yes"/>
      <point x="480.2" y="-12.266666666666667"/>
      <point x="544.3333333333334" y="49.266666666666666"/>
      <point x="544.3333333333334" y="241.4" type="curve" smooth="yes"/>
      <point x="544.3333333333334" y="407.06666666666666"/>
      <point x="496.06666666666666" y="503.3333333333333"/>
    </contour>
    <contour>
      <point x="167.66666666666666" y="490.46666666666664" type="line"/>
      <point x="68.13333333333334" y="490.46666666666664" type="line"/>
      <point x="68.13333333333334" y="-194.73333333333332" type="line"/>
      <point x="188.86666666666667" y="-194.73333333333332" type="line"/>
      <point x="188.86666666666667" y="-66.26666666666667" type="line" smooth="yes"/>
      <point x="189.86666666666667" y="-25.333333333333332"/>
      <point x="188.6" y="12.933333333333334"/>
      <point x="184.6" y="52.46666666666667" type="curve"/>
      <point x="188.86666666666667" y="64.46666666666667" type="line"/>
      <point x="188.86666666666667" y="372.06666666666666" type="line"/>
      <point x="179.86666666666667" y="388.93333333333334" type="line"/>
    </contour>
  </outline>
</glyph>
<glyph name="q" format="2">
  <advance width="579.8666666666667"/>
  <unicode hex="0071"/>
  <outline>
    <contour>
      <point x="278.6666666666667" y="503.6" type="curve" smooth="yes"/>
      <point x="92.26666666666667" y="503.6"/>
      <point x="46.06666666666667" y="405.2"/>
      <point x="46.06666666666667" y="243.4" type="curve" smooth="yes"/>
      <point x="46.06666666666667" y="66.53333333333333"/>
      <point x="102.0" y="-12.866666666666667"/>
      <point x="217.6" y="-12.866666666666667" type="curve" smooth="yes"/>
      <point x="294.06666666666666" y="-12.866666666666667"/>
      <point x="366.2" y="26.53333333333333"/>
      <point x="419.6" y="77.86666666666666" type="curve"/>
      <point x="406.3333333333333" y="149.13333333333333" type="line"/>
      <point x="353.3333333333333" y="115.0"/>
      <point x="315.6" y="90.86666666666667"/>
      <point x="261.4" y="90.86666666666667" type="curve" smooth="yes"/>
      <point x="186.66666666666666" y="90.86666666666667"/>
      <point x="171.06666666666666" y="137.06666666666666"/>
      <point x="171.06666666666666" y="236.6" type="curve" smooth="yes"/>
      <point x="171.06666666666666" y="370.6666666666667"/>
      <point x="197.93333333333334" y="403.8"/>
      <point x="277.46666666666664" y="406.8" type="curve" smooth="yes"/>
      <point x="317.6" y="407.93333333333334"/>
      <point x="374.26666666666665" y="401.8"/>
      <point x="416.6666666666667" y="387.46666666666664" type="curve"/>
      <point x="513.6" y="466.8" type="line"/>
      <point x="451.26666666666665" y="491.6"/>
      <point x="343.0" y="503.6"/>
    </contour>
    <contour>
      <point x="392.8666666666667" y="472.46666666666664" type="line"/>
      <point x="392.8666666666667" y="89.53333333333333" type="line"/>
      <point x="405.2" y="75.8" type="line"/>
      <point x="394.53333333333336" y="38.0"/>
      <point x="391.8666666666667" y="-0.26666666666666666"/>
      <point x="392.0" y="-43.93333333333333" type="curve" smooth="yes"/>
      <point x="392.8666666666667" y="-194.73333333333332" type="line"/>
      <point x="513.6" y="-194.73333333333332" type="line"/>
      <point x="513.6" y="466.8" type="line"/>
    </contour>
  </outline>
</glyph>
<glyph name="r" format="2">
  <advance width="413.0"/>
  <unicode hex="0072"/>
  <anchor x="129.66666666666666" y="-12.0" name="bottom"/>
  <anchor x="221.46666666666667" y="553.5333333333333" name="top"/>
  <outline>
    <contour>
      <point x="162.8" y="490.46666666666664" type="line"/>
      <point x="68.13333333333334" y="490.46666666666664" type="line"/>
      <point x="68.13333333333334" y="0.0" type="line"/>
      <point x="189.73333333333332" y="0.0" type="line"/>
      <point x="189.73333333333332" y="380.8" type="line"/>
      <point x="177.53333333333333" y="395.4" type="line"/>
    </contour>
    <contour>
      <point x="399.73333333333335" y="503.6" type="line"/>
      <point x="375.93333333333334" y="503.6" type="line"/>
      <point x="309.06666666666666" y="503.6"/>
      <point x="235.46666666666667" y="470.1333333333333"/>
      <point x="166.13333333333333" y="411.46666666666664" type="curve"/>
      <point x="176.4" y="340.93333333333334" type="line"/>
      <point x="254.46666666666667" y="372.0"/>
      <point x="302.26666666666665" y="390.46666666666664"/>
      <point x="352.1333333333333" y="390.46666666666664" type="curve" smooth="yes"/>
      <point x="386.93333333333334" y="390.46666666666664" type="line"/>
    </contour>
  </outline>
</glyph>
<glyph name="s" format="2">
  <advance width="516.6"/>
  <unicode hex="0073"/>
  <anchor x="250.86666666666667" y="-11.666666666666666" name="bottom"/>
  <anchor x="262.8" y="552.2" name="top"/>
  <outline>
    <contour>
      <point x="243.0" y="503.6" type="curve" smooth="yes"/>
      <point x="99.06666666666666" y="504.46666666666664"/>
      <point x="43.06666666666667" y="472.8666666666667"/>
      <point x="43.06666666666667" y="365.4" type="curve" smooth="yes"/>
      <point x="43.06666666666667" y="286.53333333333336"/>
      <point x="71.0" y="245.53333333333333"/>
      <point x="157.6" y="221.33333333333334" type="curve" smooth="yes"/>
      <point x="286.6666666666667" y="186.13333333333333" type="line" smooth="yes"/>
      <point x="333.46666666666664" y="172.86666666666667"/>
      <point x="358.6" y="170.26666666666668"/>
      <point x="358.6" y="133.13333333333333" type="curve" smooth="yes"/>
      <point x="358.6" y="93.86666666666666"/>
      <point x="330.8666666666667" y="86.06666666666666"/>
      <point x="227.2" y="86.06666666666666" type="curve" smooth="yes"/>
      <point x="164.0" y="86.06666666666666"/>
      <point x="99.46666666666667" y="86.93333333333334"/>
      <point x="59.6" y="89.53333333333333" type="curve"/>
      <point x="51.8" y="4.8" type="line"/>
      <point x="141.0" y="-9.866666666666667"/>
      <point x="223.93333333333334" y="-11.0"/>
      <point x="257.2" y="-11.0" type="curve" smooth="yes"/>
      <point x="409.53333333333336" y="-11.0"/>
      <point x="475.8" y="14.0"/>
      <point x="475.8" y="134.06666666666666" type="curve" smooth="yes"/>
      <point x="475.8" y="220.2"/>
      <point x="439.73333333333335" y="252.26666666666668"/>
      <point x="358.53333333333336" y="274.6666666666667" type="curve" smooth="yes"/>
      <point x="227.06666666666666" y="310.6" type="line" smooth="yes"/>
      <point x="180.8" y="323.6"/>
      <point x="160.26666666666665" y="325.3333333333333"/>
      <point x="160.26666666666665" y="364.06666666666666" type="curve" smooth="yes"/>
      <point x="160.26666666666665" y="404.8"/>
      <point x="182.13333333333333" y="405.53333333333336"/>
      <point x="263.8666666666667" y="405.53333333333336" type="curve" smooth="yes"/>
      <point x="325.73333333333335" y="405.53333333333336"/>
      <point x="388.6666666666667" y="403.8"/>
      <point x="451.3333333333333" y="402.06666666666666" type="curve"/>
      <point x="460.0" y="485.93333333333334" type="line"/>
      <point x="399.6" y="496.3333333333333"/>
      <point x="310.0" y="502.73333333333335"/>
    </contour>
  </outline>
</glyph>
<glyph name="t" format="2">
  <advance width="399.8666666666667"/>
  <unicode hex="0074"/>
  <anchor x="254.6" y="-10.266666666666667" name="bottom"/>
  <anchor x="173.13333333333333" y="646.9333333333333" name="top"/>
  <outline>
    <contour>
      <point x="231.33333333333334" y="631.0" type="line"/>
      <point x="110.46666666666667" y="631.0" type="line"/>
      <point x="110.6" y="132.06666666666666" type="line" smooth="yes"/>
      <point x="110.6" y="40.6"/>
      <point x="157.86666666666667" y="-10.533333333333333"/>
      <point x="244.46666666666667" y="-10.533333333333333" type="curve" smooth="yes"/>
      <point x="274.1333333333333" y="-10.533333333333333"/>
      <point x="335.93333333333334" y="-5.133333333333334"/>
      <point x="370.26666666666665" y="5.933333333333334" type="curve"/>
      <point x="356.8" y="95.73333333333333" type="line"/>
      <point x="289.93333333333334" y="95.73333333333333" type="line" smooth="yes"/>
      <point x="245.93333333333334" y="95.73333333333333"/>
      <point x="231.33333333333334" y="110.06666666666666"/>
      <point x="231.33333333333334" y="152.53333333333333" type="curve" smooth="yes"/>
    </contour>
    <contour>
      <point x="374.8666666666667" y="490.46666666666664" type="line"/>
      <point x="119.0" y="490.46666666666664" type="line"/>
      <point x="22.133333333333333" y="485.46666666666664" type="line"/>
      <point x="22.133333333333333" y="401.73333333333335" type="line"/>
      <point x="374.8666666666667" y="401.73333333333335" type="line"/>
    </contour>
  </outline>
</glyph>
<glyph name="u" format="2">
  <advance width="579.4666666666667"/>
  <unicode hex="0075"/>
  <anchor x="280.1333333333333" y="-11.133333333333333" name="bottom"/>
  <anchor x="513.9333333333333" y="0.0" name="ogonek"/>
  <anchor x="289.53333333333336" y="557.0" name="top"/>
  <outline>
    <contour>
      <point x="186.73333333333332" y="490.46666666666664" type="line"/>
      <point x="65.13333333333334" y="490.46666666666664" type="line"/>
      <point x="65.13333333333334" y="122.53333333333333" type="line" smooth="yes"/>
      <point x="65.13333333333334" y="33.13333333333333"/>
      <point x="111.66666666666667" y="-13.133333333333333"/>
      <point x="201.0" y="-13.133333333333333" type="curve" smooth="yes"/>
      <point x="275.1333333333333" y="-13.133333333333333"/>
      <point x="343.46666666666664" y="16.0"/>
      <point x="417.53333333333336" y="74.66666666666667" type="curve"/>
      <point x="402.93333333333334" y="150.8" type="line"/>
      <point x="335.26666666666665" y="111.26666666666667"/>
      <point x="292.2" y="90.06666666666666"/>
      <point x="247.13333333333333" y="90.06666666666666" type="curve" smooth="yes"/>
      <point x="201.2" y="90.06666666666666"/>
      <point x="185.86666666666667" y="106.86666666666667"/>
      <point x="186.73333333333332" y="159.2" type="curve" smooth="yes"/>
    </contour>
    <contour>
      <point x="511.3333333333333" y="490.46666666666664" type="line"/>
      <point x="390.46666666666664" y="490.46666666666664" type="line"/>
      <point x="390.46666666666664" y="108.8" type="line"/>
      <point x="401.8" y="95.06666666666666" type="line"/>
      <point x="414.8" y="0.0" type="line"/>
      <point x="511.3333333333333" y="0.0" type="line"/>
    </contour>
  </outline>
</glyph>
<glyph name="v" format="2">
  <advance width="546.4"/>
  <unicode hex="0076"/>
  <outline>
    <contour>
      <point x="534.6666666666666" y="490.46666666666664" type="line"/>
      <point x="406.26666666666665" y="490.46666666666664" type="line"/>
      <point x="304.6666666666667" y="166.8" type="line" smooth="yes"/>
      <point x="296.2" y="139.26666666666665"/>
      <point x="287.6" y="109.86666666666666"/>
      <point x="279.26666666666665" y="82.33333333333333" type="curve"/>
      <point x="266.26666666666665" y="82.33333333333333" type="line"/>
      <point x="258.8" y="109.86666666666666"/>
      <point x="250.46666666666667" y="139.26666666666665"/>
      <point x="241.86666666666667" y="166.8" type="curve" smooth="yes"/>
      <point x="140.13333333333333" y="490.46666666666664" type="line"/>
      <point x="11.733333333333334" y="490.46666666666664" type="line"/>
      <point x="179.66666666666666" y="29.066666666666666" type="line" smooth="yes"/>
      <point x="185.2" y="11.2"/>
      <point x="200.66666666666666" y="0.0"/>
      <point x="219.66666666666666" y="0.0" type="curve" smooth="yes"/>
      <point x="325.8666666666667" y="0.0" type="line" smooth="yes"/>
      <point x="345.73333333333335" y="0.0"/>
      <point x="360.3333333333333" y="11.2"/>
      <point x="366.73333333333335" y="29.066666666666666" type="curve" smooth="yes"/>
    </contour>
  </outline>
</glyph>
<glyph name="w" format="2">
  <advance width="834.4"/>
  <unicode hex="0077"/>
  <anchor x="418.3333333333333" y="552.2" name="top"/>
  <outline>
    <contour>
      <point x="815.1333333333333" y="490.46666666666664" type="line"/>
      <point x="691.0666666666667" y="490.46666666666664" type="line"/>
      <point x="610.1333333333333" y="153.13333333333333" type="line" smooth="yes"/>
      <point x="603.5333333333333" y="126.6"/>
      <point x="600.6666666666666" y="101.93333333333334"/>
      <point x="596.8" y="75.4" type="curve"/>
      <point x="583.9333333333333" y="75.4" type="line"/>
      <point x="579.3333333333334" y="101.93333333333334"/>
      <point x="573.4666666666667" y="127.46666666666667"/>
      <point x="568.7333333333333" y="153.13333333333333" type="curve" smooth="yes"/>
      <point x="510.53333333333336" y="452.73333333333335" type="line" smooth="yes"/>
      <point x="506.53333333333336" y="475.8666666666667"/>
      <point x="489.53333333333336" y="490.46666666666664"/>
      <point x="467.26666666666665" y="490.46666666666664" type="curve" smooth="yes"/>
      <point x="367.8666666666667" y="490.46666666666664" type="line" smooth="yes"/>
      <point x="344.73333333333335" y="490.46666666666664"/>
      <point x="328.6" y="475.8666666666667"/>
      <point x="324.6" y="453.73333333333335" type="curve" smooth="yes"/>
      <point x="265.4" y="153.13333333333333" type="line" smooth="yes"/>
      <point x="260.6666666666667" y="127.46666666666667"/>
      <point x="254.93333333333334" y="101.06666666666666"/>
      <point x="250.33333333333334" y="75.4" type="curve"/>
      <point x="237.46666666666667" y="75.4" type="line"/>
      <point x="234.6" y="101.06666666666666"/>
      <point x="229.86666666666667" y="127.46666666666667"/>
      <point x="224.26666666666668" y="153.13333333333333" type="curve" smooth="yes"/>
      <point x="143.2" y="490.46666666666664" type="line"/>
      <point x="19.266666666666666" y="490.46666666666664" type="line"/>
      <point x="149.0" y="33.06666666666666" type="line" smooth="yes"/>
      <point x="153.4" y="12.333333333333334"/>
      <point x="170.86666666666667" y="0.0"/>
      <point x="192.73333333333332" y="0.0" type="curve" smooth="yes"/>
      <point x="293.53333333333336" y="0.0" type="line" smooth="yes"/>
      <point x="316.6666666666667" y="0.0"/>
      <point x="335.53333333333336" y="14.6"/>
      <point x="339.53333333333336" y="37.733333333333334" type="curve" smooth="yes"/>
      <point x="397.1333333333333" y="339.26666666666665" type="line" smooth="yes"/>
      <point x="401.8666666666667" y="365.8"/>
      <point x="406.46666666666664" y="392.06666666666666"/>
      <point x="411.06666666666666" y="419.46666666666664" type="curve"/>
      <point x="423.2" y="419.46666666666664" type="line"/>
      <point x="428.6666666666667" y="392.06666666666666"/>
      <point x="431.4" y="365.8"/>
      <point x="436.1333333333333" y="339.26666666666665" type="curve" smooth="yes"/>
      <point x="494.6" y="37.733333333333334" type="line" smooth="yes"/>
      <point x="498.6" y="14.6"/>
      <point x="517.4666666666667" y="0.0"/>
      <point x="539.7333333333333" y="0.0" type="curve" smooth="yes"/>
      <point x="642.5333333333333" y="0.0" type="line" smooth="yes"/>
      <point x="664.4" y="0.0"/>
      <point x="681.0" y="12.333333333333334"/>
      <point x="686.2666666666667" y="33.06666666666666" type="curve" smooth="yes"/>
    </contour>
  </outline>
</glyph>
<glyph name="x" format="2">
  <advance width="546.2"/>
  <unicode hex="0078"/>
  <outline>
    <contour>
      <point x="519.1333333333333" y="490.46666666666664" type="line"/>
      <point x="391.8666666666667" y="490.46666666666664" type="line"/>
      <point x="255.0" y="252.4" type="line"/>
      <point x="402.73333333333335" y="0.0" type="line"/>
      <point x="531.0" y="0.0" type="line"/>
      <point x="376.46666666666664" y="252.4" type="line"/>
    </contour>
    <contour>
      <point x="154.33333333333334" y="490.46666666666664" type="line"/>
      <point x="27.066666666666666" y="490.46666666666664" type="line"/>
      <point x="169.73333333333332" y="252.4" type="line"/>
      <point x="15.2" y="0.0" type="line"/>
      <point x="143.46666666666667" y="0.0" type="line"/>
      <point x="291.2" y="252.4" type="line"/>
    </contour>
    <contour>
      <point x="341.1333333333333" y="297.8" type="line"/>
      <point x="206.2" y="297.8" type="line"/>
      <point x="206.2" y="210.13333333333333" type="line"/>
      <point x="341.1333333333333" y="210.13333333333333" type="line"/>
    </contour>
  </outline>
</glyph>
<glyph name="y" format="2">
  <advance width="545.6666666666666"/>
  <unicode hex="0079"/>
  <anchor x="456.8" y="-11.133333333333333" name="bottom"/>
  <anchor x="275.6666666666667" y="553.5333333333333" name="top"/>
  <outline>
    <contour>
      <point x="532.9333333333333" y="490.46666666666664" type="line"/>
      <point x="402.6666666666667" y="490.46666666666664" type="line"/>
      <point x="297.73333333333335" y="152.93333333333334" type="line" smooth="yes"/>
      <point x="289.0" y="123.86666666666667"/>
      <point x="277.1333333333333" y="81.93333333333334"/>
      <point x="265.6" y="54.13333333333333" type="curve" smooth="yes"/>
      <point x="238.13333333333333" y="-11.133333333333333" type="line" smooth="yes"/>
      <point x="213.86666666666667" y="-68.0"/>
      <point x="173.2" y="-104.26666666666667"/>
      <point x="93.66666666666667" y="-126.46666666666667" type="curve"/>
      <point x="104.2" y="-203.06666666666666" type="line"/>
      <point x="247.93333333333334" y="-210.66666666666666"/>
      <point x="319.1333333333333" y="-106.4"/>
      <point x="351.4" y="-15.466666666666667" type="curve" smooth="yes"/>
    </contour>
    <contour>
      <point x="141.13333333333333" y="490.46666666666664" type="line"/>
      <point x="11.733333333333334" y="490.46666666666664" type="line"/>
      <point x="177.93333333333334" y="29.933333333333334" type="line" smooth="yes"/>
      <point x="183.46666666666667" y="11.2"/>
      <point x="198.93333333333334" y="0.0"/>
      <point x="218.8" y="0.0" type="curve" smooth="yes"/>
      <point x="250.06666666666666" y="0.0" type="line"/>
      <point x="289.06666666666666" y="87.53333333333333" type="line"/>
      <point x="264.26666666666665" y="87.53333333333333" type="line"/>
      <point x="260.26666666666665" y="109.86666666666666"/>
      <point x="254.53333333333333" y="131.46666666666667"/>
      <point x="247.8" y="152.93333333333334" type="curve" smooth="yes"/>
    </contour>
  </outline>
</glyph>
<glyph name="z" format="2">
  <advance width="517.6"/>
  <unicode hex="007A"/>
  <anchor x="263.06666666666666" y="-11.133333333333333" name="bottom"/>
  <anchor x="261.2" y="553.5333333333333" name="top"/>
  <outline>
    <contour>
      <point x="333.93333333333334" y="398.06666666666666" type="line"/>
      <point x="44.6" y="93.4" type="line"/>
      <point x="180.26666666666665" y="92.4" type="line"/>
      <point x="468.73333333333335" y="397.06666666666666" type="line"/>
    </contour>
    <contour>
      <point x="473.0" y="93.4" type="line"/>
      <point x="44.6" y="93.4" type="line"/>
      <point x="44.6" y="0.0" type="line"/>
      <point x="473.0" y="0.0" type="line"/>
    </contour>
    <contour>
      <point x="468.73333333333335" y="490.46666666666664" type="line"/>
      <point x="48.86666666666667" y="490.46666666666664" type="line"/>
      <point x="48.86666666666667" y="397.06666666666666" type="line"/>
      <point x="468.73333333333335" y="397.06666666666666" type="line"/>
    </contour>
  </outline>
</glyph>
<glyph name="braceleft" format="2">
  <advance width="331.26666666666665"/>
  <unicode hex="007B"/>
  <outline>
    <contour>
      <point x="291.8666666666667" y="768.0" type="line"/>
      <point x="150.93333333333334" y="783.2666666666667"/>
      <point x="93.86666666666667" y="727.6"/>
      <point x="93.86666666666667" y="631.5333333333333" type="curve" smooth="yes"/>
      <point x="93.86666666666667" y="442.26666666666665" type="line" smooth="yes"/>
      <point x="93.86666666666667" y="383.3333333333333"/>
      <point x="84.13333333333334" y="383.3333333333333"/>
      <point x="39.333333333333336" y="368.73333333333335" type="curve"/>
      <point x="39.333333333333336" y="287.26666666666665" type="line"/>
      <point x="81.26666666666667" y="270.6666666666667"/>
      <point x="97.86666666666667" y="266.8"/>
      <point x="97.86666666666667" y="217.73333333333332" type="curve" smooth="yes"/>
      <point x="97.86666666666667" y="-28.533333333333335" type="line" smooth="yes"/>
      <point x="97.86666666666667" y="-124.6"/>
      <point x="154.93333333333334" y="-180.26666666666668"/>
      <point x="295.8666666666667" y="-165.0" type="curve"/>
      <point x="295.8666666666667" y="-89.86666666666667" type="line"/>
      <point x="232.26666666666665" y="-89.86666666666667"/>
      <point x="213.8" y="-73.93333333333334"/>
      <point x="213.8" y="-19.333333333333332" type="curve" smooth="yes"/>
      <point x="213.8" y="202.06666666666666" type="line" smooth="yes"/>
      <point x="212.8" y="272.06666666666666"/>
      <point x="192.13333333333333" y="304.73333333333335"/>
      <point x="112.86666666666666" y="328.0" type="curve"/>
      <point x="190.4" y="341.8666666666667"/>
      <point x="210.93333333333334" y="374.6666666666667"/>
      <point x="209.8" y="457.93333333333334" type="curve" smooth="yes"/>
      <point x="209.8" y="621.0666666666667" type="line" smooth="yes"/>
      <point x="209.8" y="675.6666666666666"/>
      <point x="228.26666666666665" y="692.8666666666667"/>
      <point x="291.8666666666667" y="692.8666666666667" type="curve"/>
    </contour>
  </outline>
</glyph>
<glyph name="bar" format="2">
  <advance width="254.33333333333334"/>
  <unicode hex="007C"/>
  <outline>
    <contour>
      <point x="170.26666666666668" y="781.0" type="line"/>
      <point x="84.06666666666666" y="781.0" type="line"/>
      <point x="84.06666666666666" y="-169.0" type="line"/>
      <point x="170.26666666666668" y="-169.0" type="line"/>
    </contour>
  </outline>
</glyph>
<glyph name="braceright" format="2">
  <advance width="332.1333333333333"/>
  <unicode hex="007D"/>
  <outline>
    <contour>
      <point x="40.266666666666666" y="768.0" type="curve"/>
      <point x="40.266666666666666" y="692.8666666666667" type="line"/>
      <point x="103.86666666666667" y="692.8666666666667"/>
      <point x="122.33333333333333" y="675.6666666666666"/>
      <point x="122.33333333333333" y="621.0666666666667" type="curve" smooth="yes"/>
      <point x="122.33333333333333" y="457.93333333333334" type="line" smooth="yes"/>
      <point x="121.2" y="374.6666666666667"/>
      <point x="141.73333333333332" y="341.8666666666667"/>
      <point x="219.26666666666668" y="328.0" type="curve"/>
      <point x="140.0" y="304.73333333333335"/>
      <point x="119.33333333333333" y="272.06666666666666"/>
      <point x="118.33333333333333" y="202.06666666666666" type="curve" smooth="yes"/>
      <point x="118.33333333333333" y="-19.333333333333332" type="line" smooth="yes"/>
      <point x="118.33333333333333" y="-73.93333333333334"/>
      <point x="99.86666666666667" y="-89.86666666666667"/>
      <point x="36.266666666666666" y="-89.86666666666667" type="curve"/>
      <point x="36.266666666666666" y="-165.0" type="line"/>
      <point x="177.2" y="-180.26666666666668"/>
      <point x="234.26666666666665" y="-124.6"/>
      <point x="234.26666666666665" y="-28.533333333333335" type="curve" smooth="yes"/>
      <point x="234.26666666666665" y="217.73333333333332" type="line" smooth="yes"/>
      <point x="234.26666666666665" y="266.8"/>
      <point x="250.86666666666667" y="270.6666666666667"/>
      <point x="292.8" y="287.26666666666665" type="curve"/>
      <point x="292.8" y="368.73333333333335" type="line"/>
      <point x="248.0" y="383.3333333333333"/>
      <point x="238.26666666666665" y="383.3333333333333"/>
      <point x="238.26666666666665" y="442.26666666666665" type="curve" smooth="yes"/>
      <point x="238.26666666666665" y="631.5333333333333" type="line" smooth="yes"/>
      <point x="238.26666666666665" y="727.6"/>
      <point x="181.2" y="783.2666666666667"/>
    </contour>
  </outline>
</glyph>
<glyph name="asciitilde" format="2">
  <advance width="519.0666666666667"/>
  <unicode hex="007E"/>
  <outline>
    <contour>
      <point x="148.2" y="356.93333333333334" type="curve" smooth="yes"/>
      <point x="96.4" y="358.8"/>
      <point x="56.06666666666666" y="316.46666666666664"/>
      <point x="69.26666666666667" y="220.86666666666667" type="curve"/>
      <point x="127.66666666666667" y="220.86666666666667" type="line"/>
      <point x="127.66666666666667" y="259.8"/>
      <point x="132.6" y="275.1333333333333"/>
      <point x="166.06666666666666" y="271.0" type="curve" smooth="yes"/>
      <point x="215.53333333333333" y="265.0"/>
      <point x="303.8" y="220.33333333333334"/>
      <point x="371.73333333333335" y="217.6" type="curve" smooth="yes"/>
      <point x="426.8" y="214.73333333333332"/>
      <point x="463.8666666666667" y="260.2"/>
      <point x="450.6666666666667" y="351.93333333333334" type="curve"/>
      <point x="392.26666666666665" y="351.93333333333334" type="line"/>
      <point x="392.26666666666665" y="313.8666666666667"/>
      <point x="386.3333333333333" y="299.26666666666665"/>
      <point x="352.8666666666667" y="303.53333333333336" type="curve" smooth="yes"/>
      <point x="303.3333333333333" y="309.4"/>
      <point x="209.93333333333334" y="354.2"/>
    </contour>
  </outline>
</glyph>
<glyph name="exclamdown" format="2">
  <advance width="271.26666666666665"/>
  <unicode hex="00A1"/>
  <outline>
    <contour>
      <point x="183.4" y="285.2" type="line"/>
      <point x="87.86666666666666" y="285.2" type="line"/>
      <point x="75.4" y="91.06666666666666" type="line"/>
      <point x="75.4" y="-189.73333333333332" type="line"/>
      <point x="195.86666666666667" y="-189.73333333333332" type="line"/>
      <point x="195.86666666666667" y="91.06666666666666" type="line"/>
    </contour>
    <contour>
      <point x="150.53333333333333" y="500.93333333333334" type="curve" smooth="yes"/>
      <point x="121.73333333333333" y="500.93333333333334" type="line" smooth="yes"/>
      <point x="89.26666666666667" y="500.93333333333334"/>
      <point x="78.33333333333333" y="490.0"/>
      <point x="78.33333333333333" y="457.53333333333336" type="curve" smooth="yes"/>
      <point x="78.33333333333333" y="406.1333333333333" type="line" smooth="yes"/>
      <point x="78.33333333333333" y="373.6666666666667"/>
      <point x="89.26666666666667" y="363.6"/>
      <point x="121.73333333333333" y="363.6" type="curve" smooth="yes"/>
      <point x="150.53333333333333" y="363.6" type="line" smooth="yes"/>
      <point x="183.0" y="363.6"/>
      <point x="193.93333333333334" y="373.6666666666667"/>
      <point x="193.93333333333334" y="406.1333333333333" type="curve" smooth="yes"/>
      <point x="193.93333333333334" y="457.53333333333336" type="line" smooth="yes"/>
      <point x="193.93333333333334" y="490.0"/>
      <point x="183.0" y="500.93333333333334"/>
    </contour>
  </outline>
</glyph>
<glyph name="cent" format="2">
  <advance width="513.2666666666667"/>
  <unicode hex="00A2"/>
  <outline>
    <contour>
      <point x="285.6" y="606.5333333333333" type="curve" smooth="yes"/>
      <point x="110.0" y="606.5333333333333"/>
      <point x="44.93333333333334" y="537.4"/>
      <point x="44.93333333333334" y="348.73333333333335" type="curve" smooth="yes"/>
      <point x="44.93333333333334" y="159.2"/>
      <point x="109.0" y="90.93333333333334"/>
      <point x="284.46666666666664" y="90.93333333333334" type="curve" smooth="yes"/>
      <point x="346.8666666666667" y="90.93333333333334"/>
      <point x="413.26666666666665" y="100.2"/>
      <point x="464.6" y="120.8" type="curve"/>
      <point x="453.4" y="199.33333333333334" type="line"/>
      <point x="399.8" y="191.46666666666667"/>
      <point x="336.53333333333336" y="189.73333333333332"/>
      <point x="306.0" y="189.73333333333332" type="curve" smooth="yes"/>
      <point x="200.13333333333333" y="189.73333333333332"/>
      <point x="165.26666666666665" y="224.33333333333334"/>
      <point x="165.26666666666665" y="348.73333333333335" type="curve" smooth="yes"/>
      <point x="165.26666666666665" y="472.1333333333333"/>
      <point x="200.13333333333333" y="506.73333333333335"/>
      <point x="306.0" y="506.73333333333335" type="curve" smooth="yes"/>
      <point x="342.8" y="506.73333333333335"/>
      <point x="393.4" y="505.0"/>
      <point x="442.6666666666667" y="500.6666666666667" type="curve"/>
      <point x="456.73333333333335" y="579.0666666666667" type="line"/>
      <point x="405.26666666666665" y="600.2666666666667"/>
      <point x="333.73333333333335" y="606.5333333333333"/>
    </contour>
    <contour>
      <point x="307.93333333333334" y="145.53333333333333" type="line"/>
      <point x="253.8" y="145.53333333333333" type="line"/>
      <point x="238.86666666666667" y="0.0" type="line"/>
      <point x="293.0" y="0.0" type="line"/>
    </contour>
    <contour>
      <point x="345.73333333333335" y="537.6666666666666" type="line"/>
      <point x="290.73333333333335" y="537.6666666666666" type="line"/>
      <point x="255.06666666666666" y="143.8" type="line"/>
      <point x="309.2" y="143.8" type="line"/>
    </contour>
    <contour>
      <point x="362.46666666666664" y="690.0" type="line"/>
      <point x="308.2" y="690.0" type="line"/>
      <point x="292.0" y="535.9333333333333" type="line"/>
      <point x="347.0" y="535.9333333333333" type="line"/>
    </contour>
  </outline>
</glyph>
<glyph name="currency" format="2">
  <advance width="588.8666666666667"/>
  <unicode hex="00A4"/>
  <outline>
    <contour>
      <point x="293.93333333333334" y="481.4" type="curve" smooth="yes"/>
      <point x="362.73333333333335" y="481.4"/>
      <point x="421.2" y="423.93333333333334"/>
      <point x="421.2" y="352.1333333333333" type="curve" smooth="yes"/>
      <point x="421.2" y="280.46666666666664"/>
      <point x="362.73333333333335" y="222.0"/>
      <point x="293.93333333333334" y="222.86666666666667" type="curve" smooth="yes"/>
      <point x="223.4" y="222.0"/>
      <point x="164.93333333333334" y="280.46666666666664"/>
      <point x="164.93333333333334" y="352.1333333333333" type="curve" smooth="yes"/>
      <point x="164.93333333333334" y="423.93333333333334"/>
      <point x="223.4" y="481.4"/>
    </contour>
    <contour>
      <point x="110.73333333333333" y="586.6666666666666" type="line"/>
      <point x="59.4" y="535.4666666666667" type="line"/>
      <point x="143.93333333333334" y="450.93333333333334" type="line"/>
      <point x="195.13333333333333" y="501.26666666666665" type="line"/>
    </contour>
    <contour>
      <point x="479.53333333333336" y="586.6666666666666" type="line"/>
      <point x="397.1333333333333" y="504.26666666666665" type="line"/>
      <point x="447.46666666666664" y="453.06666666666666" type="line"/>
      <point x="530.7333333333333" y="535.4666666666667" type="line"/>
    </contour>
    <contour>
      <point x="146.8" y="261.8666666666667" type="line"/>
      <point x="56.0" y="171.2" type="line"/>
      <point x="110.73333333333333" y="116.46666666666667" type="line"/>
      <point x="201.4" y="207.13333333333333" type="line"/>
    </contour>
    <contour>
      <point x="441.06666666666666" y="255.2" type="line"/>
      <point x="389.8666666666667" y="204.0" type="line"/>
      <point x="478.53333333333336" y="115.46666666666667" type="line"/>
      <point x="530.7333333333333" y="166.66666666666666" type="line"/>
    </contour>
    <contour>
      <point x="293.93333333333334" y="551.4666666666667" type="curve" smooth="yes"/>
      <point x="183.26666666666668" y="551.4666666666667"/>
      <point x="93.6" y="461.8"/>
      <point x="93.6" y="351.1333333333333" type="curve" smooth="yes"/>
      <point x="93.6" y="241.33333333333334"/>
      <point x="183.26666666666668" y="151.66666666666666"/>
      <point x="293.93333333333334" y="151.66666666666666" type="curve" smooth="yes"/>
      <point x="403.73333333333335" y="151.66666666666666"/>
      <point x="493.4" y="241.33333333333334"/>
      <point x="493.4" y="351.1333333333333" type="curve" smooth="yes"/>
      <point x="493.4" y="461.8"/>
      <point x="404.6" y="551.4666666666667"/>
    </contour>
  </outline>
</glyph>
<glyph name="yen" format="2">
  <advance width="635.4666666666667"/>
  <unicode hex="00A5"/>
  <outline>
    <contour>
      <point x="607.0666666666667" y="690.0" type="line"/>
      <point x="477.6666666666667" y="690.0" type="line"/>
      <point x="351.8" y="431.53333333333336" type="line" smooth="yes"/>
      <point x="340.8" y="405.8666666666667"/>
      <point x="331.46666666666664" y="374.93333333333334"/>
      <point x="323.0" y="348.26666666666665" type="curve"/>
      <point x="314.3333333333333" y="348.26666666666665" type="line"/>
      <point x="305.0" y="374.93333333333334"/>
      <point x="296.6666666666667" y="405.73333333333335"/>
      <point x="284.6666666666667" y="431.4" type="curve" smooth="yes"/>
      <point x="157.8" y="690.0" type="line"/>
      <point x="28.4" y="690.0" type="line"/>
      <point x="259.6666666666667" y="240.53333333333333" type="line"/>
      <point x="376.6666666666667" y="240.53333333333333" type="line"/>
    </contour>
    <contour>
      <point x="380.8" y="320.2" type="line"/>
      <point x="255.66666666666666" y="320.2" type="line"/>
      <point x="255.66666666666666" y="0.0" type="line"/>
      <point x="380.8" y="0.0" type="line"/>
    </contour>
    <contour>
      <point x="548.6" y="216.73333333333332" type="line"/>
      <point x="91.2" y="216.73333333333332" type="line"/>
      <point x="92.33333333333333" y="149.66666666666666" type="line"/>
      <point x="548.6" y="149.66666666666666" type="line"/>
    </contour>
    <contour>
      <point x="548.6" y="332.8666666666667" type="line"/>
      <point x="90.33333333333333" y="332.8666666666667" type="line"/>
      <point x="92.33333333333333" y="264.93333333333334" type="line"/>
      <point x="548.6" y="264.93333333333334" type="line"/>
    </contour>
  </outline>
</glyph>
<glyph name="brokenbar" format="2">
  <advance width="256.3333333333333"/>
  <unicode hex="00A6"/>
  <outline>
    <contour>
      <point x="171.26666666666668" y="781.0" type="line"/>
      <point x="85.06666666666666" y="781.0" type="line"/>
      <point x="85.06666666666666" y="381.0" type="line"/>
      <point x="171.26666666666668" y="381.0" type="line"/>
    </contour>
    <contour>
      <point x="171.26666666666668" y="231.0" type="line"/>
      <point x="85.06666666666666" y="231.0" type="line"/>
      <point x="85.06666666666666" y="-169.0" type="line"/>
      <point x="171.26666666666668" y="-169.0" type="line"/>
    </contour>
  </outline>
</glyph>
<glyph name="section" format="2">
  <advance width="547.6666666666666"/>
  <unicode hex="00A7"/>
  <outline>
    <contour>
      <point x="158.53333333333333" y="371.6" type="curve"/>
      <point x="72.6" y="371.6" type="line"/>
      <point x="43.93333333333334" y="257.53333333333336"/>
      <point x="56.93333333333334" y="183.4"/>
      <point x="161.13333333333333" y="129.6" type="curve" smooth="yes"/>
      <point x="307.3333333333333" y="49.46666666666667" type="line" smooth="yes"/>
      <point x="340.1333333333333" y="31.53333333333333"/>
      <point x="367.46666666666664" y="12.733333333333334"/>
      <point x="364.2" y="-27.333333333333332" type="curve" smooth="yes"/>
      <point x="362.8" y="-71.33333333333333"/>
      <point x="321.73333333333335" y="-73.6"/>
      <point x="249.93333333333334" y="-73.6" type="curve" smooth="yes"/>
      <point x="174.73333333333332" y="-72.73333333333333"/>
      <point x="132.26666666666668" y="-72.0"/>
      <point x="71.26666666666667" y="-68.13333333333334" type="curve"/>
      <point x="62.46666666666667" y="-159.86666666666667" type="line"/>
      <point x="135.33333333333334" y="-168.0"/>
      <point x="228.46666666666667" y="-171.0"/>
      <point x="283.73333333333335" y="-171.86666666666667" type="curve" smooth="yes"/>
      <point x="414.2" y="-171.86666666666667"/>
      <point x="493.8666666666667" y="-152.46666666666667"/>
      <point x="493.8666666666667" y="-31.866666666666667" type="curve" smooth="yes"/>
      <point x="493.8666666666667" y="61.13333333333333"/>
      <point x="446.93333333333334" y="96.2"/>
      <point x="393.46666666666664" y="127.33333333333333" type="curve" smooth="yes"/>
      <point x="231.13333333333333" y="218.93333333333334" type="line" smooth="yes"/>
      <point x="166.46666666666667" y="255.06666666666666"/>
      <point x="153.33333333333334" y="289.2"/>
    </contour>
    <contour>
      <point x="265.6666666666667" y="703.1333333333333" type="curve" smooth="yes"/>
      <point x="129.13333333333333" y="703.1333333333333"/>
      <point x="54.666666666666664" y="678.5333333333333"/>
      <point x="54.666666666666664" y="563.8666666666667" type="curve" smooth="yes"/>
      <point x="54.666666666666664" y="471.8666666666667"/>
      <point x="100.86666666666666" y="437.6666666666667"/>
      <point x="155.06666666666666" y="406.53333333333336" type="curve" smooth="yes"/>
      <point x="317.4" y="314.06666666666666" type="line" smooth="yes"/>
      <point x="381.3333333333333" y="277.8"/>
      <point x="395.2" y="242.06666666666666"/>
      <point x="390.0" y="160.53333333333333" type="curve"/>
      <point x="475.93333333333334" y="160.53333333333333" type="line"/>
      <point x="505.46666666666664" y="273.73333333333335"/>
      <point x="493.3333333333333" y="348.73333333333335"/>
      <point x="389.1333333333333" y="403.4" type="curve" smooth="yes"/>
      <point x="242.93333333333334" y="483.4" type="line" smooth="yes"/>
      <point x="208.4" y="502.2"/>
      <point x="181.93333333333334" y="520.2666666666667"/>
      <point x="184.33333333333334" y="560.3333333333334" type="curve" smooth="yes"/>
      <point x="186.6" y="602.7333333333333"/>
      <point x="227.8" y="604.7333333333333"/>
      <point x="300.3333333333333" y="603.8666666666667" type="curve" smooth="yes"/>
      <point x="388.6" y="603.8666666666667"/>
      <point x="422.2" y="603.2666666666667"/>
      <point x="478.1333333333333" y="599.4" type="curve"/>
      <point x="486.06666666666666" y="691.1333333333333" type="line"/>
      <point x="419.0" y="698.2666666666667"/>
      <point x="321.6666666666667" y="702.2666666666667"/>
    </contour>
  </outline>
</glyph>
<glyph name="dieresis" format="2">
  <advance width="418.2792666666667"/>
  <unicode hex="00A8"/>
  <anchor x="210.42073333333335" y="556.2684666666667" name="_top"/>
  <outline>
    <contour>
      <point x="319.26666666666665" y="702.6666666666666" type="curve" smooth="yes"/>
      <point x="279.73333333333335" y="702.6666666666666" type="line" smooth="yes"/>
      <point x="258.93333333333334" y="702.6666666666666"/>
      <point x="249.4" y="691.4"/>
      <point x="249.4" y="672.3333333333334" type="curve" smooth="yes"/>
      <point x="249.4" y="617.1333333333333" type="line" smooth="yes"/>
      <point x="249.4" y="596.3333333333334"/>
      <point x="258.93333333333334" y="586.8"/>
      <point x="279.73333333333335" y="586.8" type="curve" smooth="yes"/>
      <point x="319.26666666666665" y="586.8" type="line" smooth="yes"/>
      <point x="338.3333333333333" y="586.8"/>
      <point x="349.6" y="596.3333333333334"/>
      <point x="349.6" y="617.1333333333333" type="curve" smooth="yes"/>
      <point x="349.6" y="672.3333333333334" type="line" smooth="yes"/>
      <point x="349.6" y="691.4"/>
      <point x="338.3333333333333" y="702.6666666666666"/>
    </contour>
    <contour>
      <point x="140.66666666666666" y="702.6666666666666" type="curve" smooth="yes"/>
      <point x="100.26666666666667" y="702.6666666666666" type="line" smooth="yes"/>
      <point x="80.33333333333333" y="702.6666666666666"/>
      <point x="70.8" y="691.4"/>
      <point x="70.8" y="672.3333333333334" type="curve" smooth="yes"/>
      <point x="70.8" y="617.1333333333333" type="line" smooth="yes"/>
      <point x="70.8" y="596.3333333333334"/>
      <point x="80.33333333333333" y="586.8"/>
      <point x="100.26666666666667" y="586.8" type="curve" smooth="yes"/>
      <point x="140.66666666666666" y="586.8" type="line" smooth="yes"/>
      <point x="160.6" y="586.8"/>
      <point x="170.13333333333333" y="596.3333333333334"/>
      <point x="170.13333333333333" y="617.1333333333333" type="curve" smooth="yes"/>
      <point x="170.13333333333333" y="672.3333333333334" type="line" smooth="yes"/>
      <point x="170.13333333333333" y="691.4"/>
      <point x="160.6" y="702.6666666666666"/>
    </contour>
  </outline>
</glyph>
<glyph name="copyright" format="2">
  <advance width="821.8666666666667"/>
  <unicode hex="00A9"/>
  <outline>
    <contour>
      <point x="410.93333333333334" y="703.1333333333333" type="curve" smooth="yes"/>
      <point x="210.4" y="703.1333333333333"/>
      <point x="50.4" y="553.1333333333333"/>
      <point x="50.4" y="345.0" type="curve" smooth="yes"/>
      <point x="50.4" y="136.86666666666667"/>
      <point x="210.4" y="-13.133333333333333"/>
      <point x="410.93333333333334" y="-13.133333333333333" type="curve" smooth="yes"/>
      <point x="612.4666666666667" y="-13.133333333333333"/>
      <point x="771.4666666666667" y="136.86666666666667"/>
      <point x="771.4666666666667" y="345.0" type="curve" smooth="yes"/>
      <point x="771.4666666666667" y="553.1333333333333"/>
      <point x="612.4666666666667" y="703.1333333333333"/>
    </contour>
    <contour>
      <point x="415.8" y="560.0666666666667" type="curve" smooth="yes"/>
      <point x="272.93333333333334" y="560.0666666666667"/>
      <point x="220.93333333333334" y="503.0"/>
      <point x="220.93333333333334" y="346.8666666666667" type="curve" smooth="yes"/>
      <point x="220.93333333333334" y="189.73333333333332"/>
      <point x="272.93333333333334" y="133.53333333333333"/>
      <point x="415.8" y="133.53333333333333" type="curve" smooth="yes"/>
      <point x="480.93333333333334" y="133.53333333333333"/>
      <point x="519.8" y="138.66666666666666"/>
      <point x="561.2" y="150.2" type="curve"/>
      <point x="553.6666666666666" y="217.46666666666667" type="line"/>
      <point x="512.5333333333333" y="213.6"/>
      <point x="475.8" y="212.73333333333332"/>
      <point x="414.93333333333334" y="212.73333333333332" type="curve" smooth="yes"/>
      <point x="336.8666666666667" y="212.73333333333332"/>
      <point x="314.06666666666666" y="243.4"/>
      <point x="314.06666666666666" y="346.8666666666667" type="curve" smooth="yes"/>
      <point x="314.06666666666666" y="450.2"/>
      <point x="336.8666666666667" y="481.0"/>
      <point x="414.93333333333334" y="481.0" type="curve" smooth="yes"/>
      <point x="471.93333333333334" y="481.0"/>
      <point x="499.93333333333334" y="480.0"/>
      <point x="542.9333333333333" y="478.4" type="curve"/>
      <point x="551.3333333333334" y="545.8" type="line"/>
      <point x="510.93333333333334" y="555.9333333333333"/>
      <point x="479.2" y="560.0666666666667"/>
    </contour>
    <contour>
      <point x="410.93333333333334" y="642.5333333333333" type="curve" smooth="yes"/>
      <point x="575.0" y="642.5333333333333"/>
      <point x="708.4666666666667" y="516.9333333333333"/>
      <point x="708.4666666666667" y="345.0" type="curve" smooth="yes"/>
      <point x="708.4666666666667" y="173.06666666666666"/>
      <point x="575.0" y="47.46666666666667"/>
      <point x="410.93333333333334" y="47.46666666666667" type="curve" smooth="yes"/>
      <point x="248.0" y="47.46666666666667"/>
      <point x="113.4" y="173.06666666666666"/>
      <point x="113.4" y="345.0" type="curve" smooth="yes"/>
      <point x="113.4" y="516.9333333333333"/>
      <point x="248.0" y="642.5333333333333"/>
    </contour>
  </outline>
</glyph>
<glyph name="ordfeminine" format="2">
  <advance width="439.06666666666666"/>
  <unicode hex="00AA"/>
  <outline>
    <contour>
      <point x="250.8" y="611.7333333333333" type="curve" smooth="yes"/>
      <point x="190.26666666666668" y="611.7333333333333"/>
      <point x="118.93333333333334" y="603.7333333333333"/>
      <point x="70.66666666666667" y="596.4666666666667" type="curve"/>
      <point x="79.46666666666667" y="532.5333333333333" type="line"/>
      <point x="132.86666666666667" y="535.5333333333333"/>
      <point x="188.46666666666667" y="539.0"/>
      <point x="231.26666666666668" y="539.0" type="curve" smooth="yes"/>
      <point x="272.73333333333335" y="539.0"/>
      <point x="286.2" y="523.2"/>
      <point x="286.2" y="495.1333333333333" type="curve" smooth="yes"/>
      <point x="286.2" y="355.2" type="line"/>
      <point x="291.8666666666667" y="345.53333333333336" type="line"/>
      <point x="304.06666666666666" y="273.53333333333336" type="line"/>
      <point x="375.6666666666667" y="273.53333333333336" type="line"/>
      <point x="375.6666666666667" y="494.1333333333333" type="line" smooth="yes"/>
      <point x="375.6666666666667" y="583.0666666666667"/>
      <point x="330.46666666666664" y="611.7333333333333"/>
    </contour>
    <contour>
      <point x="338.6" y="475.3333333333333" type="line"/>
      <point x="153.26666666666668" y="475.3333333333333" type="line" smooth="yes"/>
      <point x="91.2" y="475.3333333333333"/>
      <point x="54.266666666666666" y="443.93333333333334"/>
      <point x="54.266666666666666" y="392.53333333333336" type="curve" smooth="yes"/>
      <point x="54.266666666666666" y="356.06666666666666" type="line" smooth="yes"/>
      <point x="54.266666666666666" y="297.4"/>
      <point x="97.86666666666666" y="266.1333333333333"/>
      <point x="158.13333333333333" y="266.1333333333333" type="curve" smooth="yes"/>
      <point x="241.26666666666668" y="266.1333333333333"/>
      <point x="294.46666666666664" y="326.6666666666667"/>
      <point x="313.4" y="356.6666666666667" type="curve"/>
      <point x="313.4" y="401.6666666666667" type="line"/>
      <point x="284.6" y="370.73333333333335"/>
      <point x="230.26666666666668" y="338.6666666666667"/>
      <point x="188.0" y="338.6666666666667" type="curve" smooth="yes"/>
      <point x="157.13333333333333" y="338.6666666666667"/>
      <point x="141.33333333333334" y="346.53333333333336"/>
      <point x="141.33333333333334" y="374.73333333333335" type="curve" smooth="yes"/>
      <point x="141.33333333333334" y="385.3333333333333" type="line" smooth="yes"/>
      <point x="141.33333333333334" y="404.8666666666667"/>
      <point x="151.06666666666666" y="416.93333333333334"/>
      <point x="183.53333333333333" y="418.93333333333334" type="curve" smooth="yes"/>
      <point x="337.6" y="431.93333333333334" type="line"/>
    </contour>
  </outline>
</glyph>
<glyph name="logicalnot" format="2">
  <advance width="586.6"/>
  <unicode hex="00AC"/>
  <outline>
    <contour>
      <point x="516.0666666666667" y="343.73333333333335" type="line"/>
      <point x="65.26666666666667" y="343.73333333333335" type="line"/>
      <point x="65.26666666666667" y="255.2" type="line"/>
      <point x="516.0666666666667" y="255.2" type="line"/>
    </contour>
    <contour>
      <point x="516.0666666666667" y="336.2" type="line"/>
      <point x="425.2" y="334.73333333333335" type="line"/>
      <point x="425.2" y="133.53333333333333" type="line"/>
      <point x="516.0666666666667" y="133.66666666666666" type="line"/>
    </contour>
  </outline>
</glyph>
<glyph name="registered" format="2">
  <advance width="536.3333333333334"/>
  <unicode hex="00AE"/>
  <outline>
    <contour>
      <point x="268.6666666666667" y="702.2666666666667" type="curve" smooth="yes"/>
      <point x="144.66666666666666" y="702.2666666666667"/>
      <point x="45.666666666666664" y="603.2666666666667"/>
      <point x="45.666666666666664" y="480.26666666666665" type="curve" smooth="yes"/>
      <point x="45.666666666666664" y="356.26666666666665"/>
      <point x="144.66666666666666" y="257.26666666666665"/>
      <point x="268.6666666666667" y="257.26666666666665" type="curve" smooth="yes"/>
      <point x="391.6666666666667" y="257.26666666666665"/>
      <point x="490.6666666666667" y="356.26666666666665"/>
      <point x="490.6666666666667" y="480.26666666666665" type="curve" smooth="yes"/>
      <point x="490.6666666666667" y="603.2666666666667"/>
      <point x="391.6666666666667" y="702.2666666666667"/>
    </contour>
    <contour>
      <point x="221.73333333333332" y="604.0" type="line"/>
      <point x="168.8" y="604.0" type="line"/>
      <point x="168.8" y="360.46666666666664" type="line"/>
      <point x="221.73333333333332" y="360.46666666666664" type="line"/>
    </contour>
    <contour>
      <point x="268.6666666666667" y="665.2" type="curve" smooth="yes"/>
      <point x="368.93333333333334" y="665.2"/>
      <point x="451.73333333333335" y="582.5333333333333"/>
      <point x="451.73333333333335" y="480.26666666666665" type="curve" smooth="yes"/>
      <point x="451.73333333333335" y="377.8666666666667"/>
      <point x="368.93333333333334" y="295.2"/>
      <point x="268.6666666666667" y="295.2" type="curve" smooth="yes"/>
      <point x="167.4" y="295.2"/>
      <point x="84.6" y="377.8666666666667"/>
      <point x="84.6" y="480.26666666666665" type="curve" smooth="yes"/>
      <point x="84.6" y="582.5333333333333"/>
      <point x="167.4" y="665.2"/>
    </contour>
    <contour>
      <point x="276.1333333333333" y="607.0" type="curve" smooth="yes"/>
      <point x="225.26666666666668" y="607.0"/>
      <point x="202.53333333333333" y="607.0"/>
      <point x="168.8" y="604.0" type="curve"/>
      <point x="175.66666666666666" y="565.9333333333333" type="line"/>
      <point x="188.53333333333333" y="567.0666666666667"/>
      <point x="226.13333333333333" y="567.0666666666667"/>
      <point x="274.8666666666667" y="567.0666666666667" type="curve" smooth="yes"/>
      <point x="313.6666666666667" y="567.0666666666667"/>
      <point x="326.2" y="560.7333333333333"/>
      <point x="325.3333333333333" y="530.5333333333333" type="curve" smooth="yes"/>
      <point x="326.2" y="502.93333333333334"/>
      <point x="313.6666666666667" y="494.6"/>
      <point x="274.8666666666667" y="493.73333333333335" type="curve" smooth="yes"/>
      <point x="174.66666666666666" y="493.73333333333335" type="line"/>
      <point x="173.8" y="457.6" type="line"/>
      <point x="192.6" y="456.6"/>
      <point x="218.73333333333332" y="456.6"/>
      <point x="275.3333333333333" y="456.6" type="curve" smooth="yes"/>
      <point x="293.26666666666665" y="456.6"/>
      <point x="303.2" y="451.26666666666665"/>
      <point x="309.8" y="434.3333333333333" type="curve" smooth="yes"/>
      <point x="332.93333333333334" y="360.46666666666664" type="line"/>
      <point x="389.1333333333333" y="360.46666666666664" type="line"/>
      <point x="362.6" y="436.46666666666664" type="line" smooth="yes"/>
      <point x="355.6" y="463.0"/>
      <point x="339.2" y="472.06666666666666"/>
      <point x="323.3333333333333" y="473.93333333333334" type="curve"/>
      <point x="323.3333333333333" y="475.93333333333334" type="line"/>
      <point x="364.93333333333334" y="480.8"/>
      <point x="379.26666666666665" y="502.06666666666666"/>
      <point x="379.26666666666665" y="536.0666666666667" type="curve" smooth="yes"/>
      <point x="379.26666666666665" y="591.1333333333333"/>
      <point x="349.0" y="607.0"/>
    </contour>
  </outline>
</glyph>
<glyph name="degree" format="2">
  <advance width="351.8666666666667"/>
  <unicode hex="00B0"/>
  <outline>
    <contour>
      <point x="176.0" y="703.1333333333333" type="curve" smooth="yes"/>
      <point x="102.33333333333333" y="703.1333333333333"/>
      <point x="42.53333333333333" y="644.7333333333333"/>
      <point x="42.53333333333333" y="573.6666666666666" type="curve" smooth="yes"/>
      <point x="42.53333333333333" y="501.6"/>
      <point x="103.2" y="442.3333333333333"/>
      <point x="176.0" y="442.3333333333333" type="curve" smooth="yes"/>
      <point x="248.66666666666666" y="442.3333333333333"/>
      <point x="309.3333333333333" y="501.6"/>
      <point x="309.3333333333333" y="573.6666666666666" type="curve" smooth="yes"/>
      <point x="309.3333333333333" y="645.6"/>
      <point x="247.8" y="703.1333333333333"/>
    </contour>
    <contour>
      <point x="176.0" y="635.6666666666666" type="curve" smooth="yes"/>
      <point x="210.53333333333333" y="635.6666666666666"/>
      <point x="238.46666666666667" y="611.2"/>
      <point x="238.46666666666667" y="573.6666666666666" type="curve" smooth="yes"/>
      <point x="238.46666666666667" y="536.1333333333333"/>
      <point x="209.66666666666666" y="509.8"/>
      <point x="176.0" y="509.8" type="curve" smooth="yes"/>
      <point x="141.33333333333334" y="509.8"/>
      <point x="113.4" y="536.1333333333333"/>
      <point x="113.4" y="573.6666666666666" type="curve" smooth="yes"/>
      <point x="113.4" y="611.2"/>
      <point x="141.33333333333334" y="635.6666666666666"/>
    </contour>
  </outline>
</glyph>
<glyph name="plusminus" format="2">
  <advance width="580.5333333333333"/>
  <unicode hex="00B1"/>
  <outline>
    <contour>
      <point x="514.8666666666667" y="411.26666666666665" type="line"/>
      <point x="65.66666666666667" y="411.26666666666665" type="line"/>
      <point x="65.66666666666667" y="321.4" type="line"/>
      <point x="514.8666666666667" y="321.4" type="line"/>
    </contour>
    <contour>
      <point x="514.8666666666667" y="144.53333333333333" type="line"/>
      <point x="65.66666666666667" y="144.53333333333333" type="line"/>
      <point x="65.66666666666667" y="55.4" type="line"/>
      <point x="514.8666666666667" y="55.4" type="line"/>
    </contour>
    <contour>
      <point x="335.93333333333334" y="536.6" type="line"/>
      <point x="244.6" y="536.6" type="line"/>
      <point x="244.6" y="196.2" type="line"/>
      <point x="335.2" y="196.2" type="line"/>
    </contour>
  </outline>
</glyph>
<glyph name="twosuperior" format="2">
  <advance width="432.73333333333335"/>
  <unicode hex="00B2"/>
  <outline>
    <contour>
      <point x="203.6" y="781.0" type="curve" smooth="yes"/>
      <point x="171.0" y="781.0"/>
      <point x="122.6" y="779.1333333333333"/>
      <point x="58.333333333333336" y="767.2666666666667" type="curve"/>
      <point x="62.333333333333336" y="697.0666666666667" type="line"/>
      <point x="120.73333333333333" y="701.1333333333333"/>
      <point x="152.73333333333332" y="702.0"/>
      <point x="196.13333333333333" y="702.0" type="curve" smooth="yes"/>
      <point x="238.2" y="702.0"/>
      <point x="263.93333333333334" y="698.4"/>
      <point x="261.4" y="668.6" type="curve" smooth="yes"/>
      <point x="258.6" y="639.2666666666667"/>
      <point x="231.33333333333334" y="602.7333333333333"/>
      <point x="180.8" y="555.6" type="curve" smooth="yes"/>
      <point x="68.53333333333333" y="450.1333333333333" type="line" smooth="yes"/>
      <point x="57.46666666666667" y="439.2"/>
      <point x="54.333333333333336" y="426.8666666666667"/>
      <point x="54.333333333333336" y="411.26666666666665" type="curve" smooth="yes"/>
      <point x="54.333333333333336" y="360.0" type="line"/>
      <point x="377.8" y="360.0" type="line"/>
      <point x="378.6666666666667" y="441.6" type="line"/>
      <point x="236.86666666666667" y="442.8666666666667" type="line" smooth="yes"/>
      <point x="213.26666666666665" y="443.0"/>
      <point x="196.4" y="442.6"/>
      <point x="172.93333333333334" y="439.2" type="curve"/>
      <point x="287.3333333333333" y="547.1333333333333" type="line" smooth="yes"/>
      <point x="338.8666666666667" y="596.8666666666667"/>
      <point x="363.46666666666664" y="639.6"/>
      <point x="363.46666666666664" y="679.4666666666667" type="curve" smooth="yes"/>
      <point x="363.46666666666664" y="764.4666666666667"/>
      <point x="309.6666666666667" y="781.0"/>
    </contour>
  </outline>
</glyph>
<glyph name="threesuperior" format="2">
  <advance width="413.6"/>
  <unicode hex="00B3"/>
  <outline>
    <contour>
      <point x="201.8" y="782.1333333333333" type="curve" smooth="yes"/>
      <point x="154.86666666666667" y="782.1333333333333"/>
      <point x="108.4" y="778.1333333333333"/>
      <point x="60.2" y="771.0" type="curve"/>
      <point x="64.2" y="703.6" type="line"/>
      <point x="96.6" y="705.2"/>
      <point x="141.13333333333333" y="705.9333333333333"/>
      <point x="186.66666666666666" y="705.9333333333333" type="curve" smooth="yes"/>
      <point x="245.8" y="705.9333333333333"/>
      <point x="262.06666666666666" y="697.0"/>
      <point x="262.06666666666666" y="661.9333333333333" type="curve" smooth="yes"/>
      <point x="262.06666666666666" y="634.5333333333333"/>
      <point x="256.3333333333333" y="608.2666666666667"/>
      <point x="195.46666666666667" y="608.1333333333333" type="curve" smooth="yes"/>
      <point x="110.2" y="607.6" type="line"/>
      <point x="110.2" y="541.4666666666667" type="line"/>
      <point x="195.46666666666667" y="541.0666666666667" type="line" smooth="yes"/>
      <point x="257.46666666666664" y="540.9333333333333"/>
      <point x="268.53333333333336" y="518.0"/>
      <point x="268.53333333333336" y="487.6" type="curve" smooth="yes"/>
      <point x="268.53333333333336" y="442.3333333333333"/>
      <point x="248.66666666666666" y="428.2"/>
      <point x="182.66666666666666" y="428.2" type="curve" smooth="yes"/>
      <point x="140.33333333333334" y="428.2"/>
      <point x="107.8" y="428.93333333333334"/>
      <point x="55.93333333333334" y="431.8" type="curve"/>
      <point x="51.93333333333334" y="363.0" type="line"/>
      <point x="100.86666666666666" y="356.8666666666667"/>
      <point x="154.06666666666666" y="351.8666666666667"/>
      <point x="207.0" y="351.8666666666667" type="curve" smooth="yes"/>
      <point x="324.1333333333333" y="351.8666666666667"/>
      <point x="365.93333333333334" y="388.3333333333333"/>
      <point x="364.06666666666666" y="475.0" type="curve" smooth="yes"/>
      <point x="363.06666666666666" y="536.0666666666667"/>
      <point x="343.06666666666666" y="570.0"/>
      <point x="276.4" y="579.0" type="curve"/>
      <point x="276.4" y="581.0" type="line"/>
      <point x="338.2" y="589.8666666666667"/>
      <point x="352.93333333333334" y="628.9333333333333"/>
      <point x="352.93333333333334" y="686.0" type="curve" smooth="yes"/>
      <point x="352.93333333333334" y="759.1333333333333"/>
      <point x="314.53333333333336" y="782.1333333333333"/>
    </contour>
  </outline>
</glyph>
<glyph name="acute" format="2">
  <advance width="336.53333333333336"/>
  <unicode hex="00B4"/>
  <anchor x="127.26666666666667" y="538.2477333333333" name="_top"/>
  <outline>
    <contour>
      <point x="232.26666666666668" y="740.0666666666667" type="line"/>
      <point x="44.333333333333336" y="592.6666666666666" type="line"/>
      <point x="82.26666666666667" y="538.7333333333333" type="line"/>
      <point x="294.8" y="650.4" type="line"/>
    </contour>
  </outline>
</glyph>
<glyph name="micro" format="2">
  <advance width="586.6"/>
  <unicode hex="00B5"/>
  <outline>
    <contour>
      <point x="188.86666666666667" y="490.46666666666664" type="line"/>
      <point x="68.13333333333334" y="490.46666666666664" type="line"/>
      <point x="68.13333333333334" y="136.8" type="line"/>
      <point x="68.13333333333334" y="34.46666666666667"/>
      <point x="141.46666666666667" y="-12.266666666666667"/>
      <point x="228.2" y="-12.266666666666667" type="curve" smooth="yes"/>
      <point x="311.26666666666665" y="-12.266666666666667"/>
      <point x="363.8666666666667" y="38.8"/>
      <point x="391.46666666666664" y="86.6" type="curve"/>
      <point x="388.46666666666664" y="288.0" type="line"/>
      <point x="387.46666666666664" y="181.0"/>
      <point x="328.8666666666667" y="96.13333333333333"/>
      <point x="252.66666666666666" y="96.13333333333333" type="curve" smooth="yes"/>
      <point x="210.4" y="96.13333333333333"/>
      <point x="188.86666666666667" y="107.93333333333334"/>
      <point x="188.86666666666667" y="171.6" type="curve" smooth="yes"/>
    </contour>
    <contour>
      <point x="187.86666666666667" y="89.4" type="line"/>
      <point x="68.13333333333334" y="197.26666666666668" type="line"/>
      <point x="68.13333333333334" y="-194.73333333333332" type="line"/>
      <point x="173.13333333333333" y="-194.73333333333332" type="line"/>
      <point x="187.0" y="-65.0" type="line"/>
    </contour>
    <contour>
      <point x="509.93333333333334" y="490.46666666666664" type="line"/>
      <point x="388.46666666666664" y="490.46666666666664" type="line"/>
      <point x="388.46666666666664" y="102.6" type="line"/>
      <point x="391.46666666666664" y="86.6" type="line"/>
      <point x="391.46666666666664" y="75.8" type="line" smooth="yes"/>
      <point x="391.46666666666664" y="12.266666666666667"/>
      <point x="427.53333333333336" y="-11.266666666666667"/>
      <point x="476.93333333333334" y="-11.266666666666667" type="curve" smooth="yes"/>
      <point x="506.93333333333334" y="-11.266666666666667"/>
      <point x="540.0" y="-4.2"/>
      <point x="571.9333333333333" y="6.333333333333333" type="curve"/>
      <point x="564.9333333333333" y="76.26666666666667" type="line"/>
      <point x="534.9333333333333" y="76.26666666666667" type="line" smooth="yes"/>
      <point x="513.9333333333333" y="76.26666666666667"/>
      <point x="509.93333333333334" y="89.26666666666667"/>
      <point x="509.93333333333334" y="121.26666666666667" type="curve" smooth="yes"/>
    </contour>
  </outline>
</glyph>
<glyph name="paragraph" format="2">
  <advance width="595.8666666666667"/>
  <unicode hex="00B6"/>
  <outline>
    <contour>
      <point x="344.8666666666667" y="702.0" type="curve" smooth="yes"/>
      <point x="121.06666666666666" y="702.0"/>
      <point x="33.0" y="635.0"/>
      <point x="33.0" y="450.0" type="curve" smooth="yes"/>
      <point x="33.0" y="284.0"/>
      <point x="101.26666666666667" y="213.0"/>
      <point x="272.06666666666666" y="200.0" type="curve"/>
      <point x="332.0" y="626.6666666666666" type="line"/>
      <point x="375.93333333333334" y="626.6666666666666"/>
      <point x="452.73333333333335" y="623.6666666666666"/>
      <point x="500.53333333333336" y="614.6666666666666" type="curve"/>
      <point x="506.53333333333336" y="685.0" type="line"/>
      <point x="457.06666666666666" y="698.0"/>
      <point x="389.2" y="702.0"/>
    </contour>
    <contour>
      <point x="347.46666666666664" y="685.0" type="line"/>
      <point x="262.06666666666666" y="685.0" type="line"/>
      <point x="262.06666666666666" y="-210.0" type="line"/>
      <point x="347.46666666666664" y="-210.0" type="line"/>
    </contour>
    <contour>
      <point x="506.53333333333336" y="685.0" type="line"/>
      <point x="420.26666666666665" y="685.0" type="line"/>
      <point x="420.26666666666665" y="0.0" type="line"/>
      <point x="506.53333333333336" y="0.0" type="line"/>
    </contour>
  </outline>
</glyph>
<glyph name="cedilla" format="2">
  <advance width="242.2"/>
  <unicode hex="00B8"/>
  <guideline x="50.0" y="-104.0" angle="74.6443"/>
  <anchor x="133.93333333333334" y="0.0" name="_bottom"/>
  <outline>
    <contour>
      <point x="83.26666666666667" y="-39.93333333333333" type="curve"/>
      <point x="71.2" y="-92.86666666666666" type="line"/>
      <point x="122.06666666666666" y="-92.86666666666666"/>
      <point x="132.8" y="-96.8"/>
      <point x="131.66666666666666" y="-115.13333333333334" type="curve" smooth="yes"/>
      <point x="129.4" y="-154.33333333333334"/>
      <point x="93.86666666666666" y="-176.53333333333333"/>
      <point x="46.4" y="-175.66666666666666" type="curve"/>
      <point x="28.733333333333334" y="-234.6" type="line"/>
      <point x="131.2" y="-248.13333333333333"/>
      <point x="210.93333333333334" y="-199.13333333333333"/>
      <point x="214.2" y="-104.93333333333334" type="curve" smooth="yes"/>
      <point x="216.46666666666667" y="-37.93333333333334"/>
      <point x="175.33333333333334" y="-30.266666666666666"/>
    </contour>
  </outline>
</glyph>
<glyph name="onesuperior" format="2">
  <advance width="300.2"/>
  <unicode hex="00B9"/>
  <outline>
    <contour>
      <point x="232.53333333333333" y="774.0" type="line"/>
      <point x="139.26666666666668" y="774.0" type="line"/>
      <point x="25.933333333333334" y="732.4" type="line"/>
      <point x="37.0" y="669.0666666666667" type="line"/>
      <point x="142.66666666666666" y="693.4666666666667" type="line"/>
      <point x="139.4" y="677.6666666666666"/>
      <point x="139.26666666666668" y="663.0"/>
      <point x="139.26666666666668" y="648.2" type="curve" smooth="yes"/>
      <point x="139.26666666666668" y="360.0" type="line"/>
      <point x="232.53333333333333" y="360.0" type="line"/>
    </contour>
  </outline>
</glyph>
<glyph name="ordmasculine" format="2">
  <advance width="441.06666666666666"/>
  <unicode hex="00BA"/>
  <outline>
    <contour>
      <point x="220.6" y="611.7333333333333" type="curve" smooth="yes"/>
      <point x="94.46666666666667" y="611.7333333333333"/>
      <point x="49.53333333333333" y="565.4666666666667"/>
      <point x="49.53333333333333" y="437.93333333333334" type="curve" smooth="yes"/>
      <point x="49.53333333333333" y="311.53333333333336"/>
      <point x="94.46666666666667" y="265.53333333333336"/>
      <point x="220.6" y="265.53333333333336" type="curve" smooth="yes"/>
      <point x="346.73333333333335" y="265.53333333333336"/>
      <point x="391.53333333333336" y="311.53333333333336"/>
      <point x="391.53333333333336" y="437.93333333333334" type="curve" smooth="yes"/>
      <point x="391.53333333333336" y="565.4666666666667"/>
      <point x="346.73333333333335" y="611.7333333333333"/>
    </contour>
    <contour>
      <point x="220.6" y="540.9333333333333" type="curve" smooth="yes"/>
      <point x="279.6666666666667" y="540.9333333333333"/>
      <point x="297.6666666666667" y="519.5333333333333"/>
      <point x="297.6666666666667" y="437.93333333333334" type="curve" smooth="yes"/>
      <point x="297.6666666666667" y="357.6"/>
      <point x="279.6666666666667" y="336.2"/>
      <point x="220.6" y="336.2" type="curve" smooth="yes"/>
      <point x="161.4" y="336.2"/>
      <point x="143.4" y="357.6"/>
      <point x="142.53333333333333" y="437.93333333333334" type="curve" smooth="yes"/>
      <point x="143.4" y="519.5333333333333"/>
      <point x="161.4" y="540.9333333333333"/>
    </contour>
  </outline>
</glyph>
<glyph name="onequarter" format="2">
  <advance width="880.7333333333333"/>
  <unicode hex="00BC"/>
  <outline>
    <contour>
      <point x="655.2666666666667" y="690.0" type="line"/>
      <point x="573.4666666666667" y="690.0" type="line"/>
      <point x="144.86666666666667" y="0.0" type="line"/>
      <point x="226.66666666666666" y="0.0" type="line"/>
    </contour>
    <contour>
      <point x="235.8" y="690.0" type="line"/>
      <point x="142.53333333333333" y="690.0" type="line"/>
      <point x="30.266666666666666" y="648.4" type="line"/>
      <point x="41.333333333333336" y="585.0666666666667" type="line"/>
      <point x="146.8" y="609.4666666666667" type="line"/>
      <point x="143.53333333333333" y="593.6666666666666"/>
      <point x="142.53333333333333" y="579.0"/>
      <point x="142.53333333333333" y="564.2" type="curve" smooth="yes"/>
      <point x="142.53333333333333" y="276.0" type="line"/>
      <point x="235.8" y="276.0" type="line"/>
    </contour>
    <contour>
      <point x="689.4666666666667" y="414.0" type="line"/>
      <point x="601.3333333333334" y="414.0" type="line"/>
      <point x="484.46666666666664" y="159.2" type="line" smooth="yes"/>
      <point x="463.53333333333336" y="114.8"/>
      <point x="492.0" y="89.0"/>
      <point x="527.4" y="89.0" type="curve" smooth="yes"/>
      <point x="791.0666666666667" y="89.0" type="line"/>
      <point x="844.6" y="96.93333333333334" type="line"/>
      <point x="844.6" y="158.8" type="line"/>
      <point x="596.5333333333333" y="158.8" type="line" smooth="yes"/>
      <point x="583.2" y="158.8"/>
      <point x="576.6" y="166.86666666666667"/>
      <point x="581.3333333333334" y="177.46666666666667" type="curve" smooth="yes"/>
    </contour>
    <contour>
      <point x="796.1333333333333" y="333.6" type="line"/>
      <point x="724.4" y="333.6" type="line"/>
      <point x="708.9333333333333" y="268.26666666666665" type="line"/>
      <point x="708.9333333333333" y="0.0" type="line"/>
      <point x="796.1333333333333" y="0.0" type="line"/>
    </contour>
  </outline>
</glyph>
<glyph name="onehalf" format="2">
  <advance width="899.6666666666666"/>
  <unicode hex="00BD"/>
  <outline>
    <contour>
      <point x="647.4666666666667" y="690.0" type="line"/>
      <point x="565.5333333333333" y="690.0" type="line"/>
      <point x="137.06666666666666" y="0.0" type="line"/>
      <point x="218.86666666666667" y="0.0" type="line"/>
    </contour>
    <contour>
      <point x="235.8" y="690.0" type="line"/>
      <point x="142.53333333333333" y="690.0" type="line"/>
      <point x="30.266666666666666" y="648.4" type="line"/>
      <point x="41.333333333333336" y="585.0666666666667" type="line"/>
      <point x="146.8" y="609.4666666666667" type="line"/>
      <point x="143.53333333333333" y="593.6666666666666"/>
      <point x="142.53333333333333" y="579.0"/>
      <point x="142.53333333333333" y="564.2" type="curve" smooth="yes"/>
      <point x="142.53333333333333" y="276.0" type="line"/>
      <point x="235.8" y="276.0" type="line"/>
    </contour>
    <contour>
      <point x="681.1333333333333" y="421.0" type="curve" smooth="yes"/>
      <point x="648.6666666666666" y="421.0"/>
      <point x="600.4" y="419.1333333333333"/>
      <point x="536.2666666666667" y="407.26666666666665" type="curve"/>
      <point x="540.2666666666667" y="337.06666666666666" type="line"/>
      <point x="598.5333333333333" y="341.1333333333333"/>
      <point x="630.4" y="342.0"/>
      <point x="673.6666666666666" y="342.0" type="curve" smooth="yes"/>
      <point x="715.6" y="342.0"/>
      <point x="741.2" y="338.4"/>
      <point x="738.6666666666666" y="308.6" type="curve" smooth="yes"/>
      <point x="735.8666666666667" y="279.26666666666665"/>
      <point x="708.4666666666667" y="242.73333333333332"/>
      <point x="658.3333333333334" y="195.6" type="curve" smooth="yes"/>
      <point x="546.4666666666667" y="90.13333333333333" type="line" smooth="yes"/>
      <point x="535.4" y="79.2"/>
      <point x="532.2666666666667" y="66.86666666666666"/>
      <point x="532.2666666666667" y="51.266666666666666" type="curve" smooth="yes"/>
      <point x="532.2666666666667" y="0.0" type="line"/>
      <point x="854.9333333333333" y="0.0" type="line"/>
      <point x="855.8" y="81.6" type="line"/>
      <point x="714.5333333333333" y="82.86666666666666" type="line" smooth="yes"/>
      <point x="691.0666666666667" y="83.0"/>
      <point x="674.3333333333334" y="82.6"/>
      <point x="650.8666666666667" y="79.2" type="curve"/>
      <point x="764.7333333333333" y="187.13333333333333" type="line" smooth="yes"/>
      <point x="816.1333333333333" y="236.86666666666667"/>
      <point x="840.7333333333333" y="279.6"/>
      <point x="840.7333333333333" y="319.46666666666664" type="curve" smooth="yes"/>
      <point x="840.7333333333333" y="404.46666666666664"/>
      <point x="787.0666666666667" y="421.0"/>
    </contour>
  </outline>
</glyph>
